<?xml version="1.0" encoding="UTF-8"?>
<svg id="Layer_2" data-name="Layer 2" xmlns="http://www.w3.org/2000/svg" viewBox="0 0 256.668 223.708">
  <g id="Layer_1-2" data-name="Layer 1">
    <g>
      <path d="M205.972,214.504c-38.353,0-69.555-31.201-69.555-69.553,0-16.327,5.655-31.358,15.109-43.237,0,0,0,0,0,0,10.036-11.098,63.313,19.153,69.654,22.814-6.357-3.708-59.449-35.119-45.741-42.064h0c9.222-4.524,19.586-7.066,30.532-7.066v-9.031c-13.182,0-25.616,3.263-36.538,9.022h0C152.242,84.473,0,0,0,0c0,0,151.102,86.182,141.973,99.394h0c-9.18,12.859-14.587,28.588-14.587,45.557,0,43.331,35.254,78.584,78.586,78.584,18.546,0,36.551-6.583,50.696-18.536l-5.829-6.898c-12.517,10.577-28.451,16.402-44.866,16.402Z"/>
      <path d="M205.903,223.708c-43.37,0-78.655-35.284-78.655-78.653s35.284-78.653,78.655-78.653v9.039c-38.386,0-69.616,31.229-69.616,69.614s31.229,69.614,69.616,69.614c16.43,0,32.378-5.83,44.906-16.417l5.834,6.904c-14.158,11.964-32.178,18.552-50.74,18.552Z" fill="#00edff"/>
    </g>
  </g>
</svg>