<?xml version="1.0" encoding="UTF-8"?>
<svg id="Layer_2" data-name="Layer 2" xmlns="http://www.w3.org/2000/svg" viewBox="0 0 479.883 466.104">
  <g id="Layer_1-2" data-name="Layer 1">
    <g>
      <path d="M315.781,456.015c-1.982-54.568-20.516-91.363-53.766-106.578-20.404-9.338-45.704-10.299-73.159-2.781-24.213,6.63-48.866,19.842-67.638,36.25l.432.513c-12.335,10.616-28.036,16.462-44.212,16.462-37.793,0-68.54-31.313-68.54-69.802s30.747-69.803,68.54-69.803v-9.06l.073.668c79.092-8.964,263.813-29.919,393.839-191.466l-1.144,2.59-.007.029-.026.031-.184.421-.009.011c-.021.07-.042.139-.053.216-.15.887.449,1.72,1.321,1.872.871.151,1.697-.451,1.847-1.338.011-.078.015-.144.025-.223l-.503-5.171c.119-.148.239-.291.357-.44l2.833,3.998.013.026.011.028.014.029.294.419.011.008c.239.235.528.388.873.45.871.152,1.696-.449,1.836-1.345.113-.673-.194-1.314-.725-1.653l-.375-.173-4.605-2.134c.054-.111.071-.238.05-.361l5.464-.549c.322-.08.624-.264.85-.545.563-.7.464-1.725-.222-2.297-.513-.428-1.207-.484-1.77-.188l-.281.201-.034.042-4.125,2.996c-.043-.053-.075-.098-.125-.14-.052-.044-.102-.067-.161-.099l2.079-4.668.169-.382.009-.012c.099-.335.083-.698-.046-1.05-.308-.851-1.235-1.275-2.06-.951-.644.247-1.045.872-1.036,1.542l.027.285.504,5.184c-.123.004-.242.045-.338.121l-2.945-4.153-.045-.072-.166-.242-.011-.028-.02-.016c-.043-.053-.094-.096-.156-.147-.687-.574-1.702-.462-2.256.227-.563.699-.471,1.735.216,2.309.05.043.102.085.151.109l.02.016.393.172,4.584,2.116c-.036.074-.049.154-.052.234-.037.046-.075.091-.112.138l-5.106.515-.215.031c-.071.026-.137.042-.209.069-.835.314-1.253,1.258-.935,2.098.316.841,1.235,1.275,2.071.961.072-.027.134-.062.197-.097l.333-.244,2.858-2.095C355.415,202.692,196.739,235.199,107.406,246.935c44.802-8.853,81.822-23.152,110.315-42.659,28.521-19.526,48.544-44.203,59.514-73.348,11.019-29.272,10.53-56.825,8.178-74.783-2.611-19.95-8.561-35.965-13.176-41.729.214-1.117.627-3.072,1.231-5.108,1.461-4.916-.706-7.175-.706-7.175-1.733-2.537-4.195-2.603-6.063-1.28-1.868,1.324-1.499,4.594-1.499,4.594,0,0-2.766-1.573-4.634-.249-1.869,1.323-2.665,3.697-.931,6.234,0,0,1.326,2.856,6.359,3.17,2.108.132,4.073.424,5.168.607,6.918,8.632,25.712,59.777,4.835,115.236-10.87,28.88-30.727,53.343-59.016,72.711-34.433,23.573-81.41,39.517-139.63,47.388l.088.668C34.739,251.212,0,286.592,0,330.079s34.739,78.866,77.439,78.866c18.276,0,36.017-6.606,49.957-18.602l.38.553c.434-.31,43.679-30.727,73.646-15.196,17.342,8.985,26.987,31.457,28.738,66.805-.85.877-2.525,2.548-4.456,4.162-4.395,3.674-3.755,7.175-3.755,7.175.062,3.485,2.328,5.119,4.895,5.072,2.566-.046,4.234-3.348,4.234-3.348,0,0,1.622,3.241,4.189,3.193,2.566-.048,4.774-1.764,4.713-5.249,0,0,.515-3.523-4.01-7.033-1.902-1.475-3.569-3.009-4.48-3.879-1.757-35.96-11.648-58.867-29.466-68.101-30.669-15.891-74.568,14.979-75.008,15.293l.38.553-5.737-6.914.425.504c18.627-16.282,43.089-29.393,67.117-35.972,27.159-7.438,52.149-6.499,72.272,2.708,32.752,14.987,51.015,51.363,52.985,105.366-2.466.363-4.338,2.532-4.27,5.131.073,2.801,2.362,5.012,5.112,4.938,2.75-.075,4.921-2.405,4.849-5.206-.067-2.541-1.962-4.578-4.366-4.881Z"/>
      <path d="M77.438,408.529c-43.37,0-77.438-35.284-77.438-78.653s34.067-78.653,77.438-78.653v9.039c-38.386,0-68.538,31.229-68.538,69.614s30.152,70.142,68.538,70.142c16.43,0,31.692-6.004,44.22-16.591l5.737,6.914c-14.158,11.964-31.395,18.187-49.958,18.187Z" fill="#00edff"/>
    </g>
  </g>
</svg>