<?xml version="1.0" encoding="UTF-8"?>
<svg id="Layer_2" data-name="Layer 2" xmlns="http://www.w3.org/2000/svg" viewBox="0 0 367.941 494.258">
  <g id="Layer_1-2" data-name="Layer 1">
    <g>
      <path d="M363.347,439.121l-.127.077c-22.651,21.654-55.2,27.706-85.531,26.917-31.139-.81-62.266-7.97-91.136-19.508-29.233-11.682-56.534-28.18-80.502-48.589-24.475-20.842-45.265-45.786-61.496-73.529-16.737-28.61-28.675-60-35.409-92.445C2.394,199.513.606,165.569,5.017,132.594c2.279-17.032,6.304-34.15,13.701-49.732,6.72-14.156,16.049-26.943,27.46-37.677C67.591,25.044,95.513,12.352,124.467,7.922c29.564-4.525,59.699.12,86.981,12.202,27.765,12.297,52.201,31.763,71.172,55.406,3.23,4.025,6.292,8.179,9.197,12.441-40.435,3.279-72.337,37.23-72.337,78.495,0,43.427,35.331,78.758,78.76,78.758,18.586,0,36.631-6.598,50.808-18.577l-5.842-6.914c-12.546,10.601-28.515,16.44-44.966,16.44-38.438,0-69.709-31.27-69.709-69.707s31.271-69.707,69.709-69.707h6.168l-5.975-9.383c-17.786-28.062-42.854-51.614-72.148-67.407C197.485,4.442,164.57-2.874,131.953,1.04c-31.291,3.754-61.737,17.143-84.55,39.075C21.934,64.597,8.46,99.208,3.145,133.599c-5.496,35.554-3.573,72.445,4.094,107.53,7.672,35.108,21.385,68.911,40.714,99.225,18.713,29.347,42.737,55.118,70.676,75.87,27.528,20.446,58.675,36.051,91.619,45.601,32.157,9.321,67.602,14.227,100.778,7.78,15.99-3.107,31.568-9.209,44.366-19.455,1.497-1.198,2.893-2.846,4.492-3.877,1.192-.768,1.457-.169,2.061.987.515.986.97,2.003,1.373,3.04,1.554,3.991,2.262,8.3,2.154,12.579-.118,4.693-1.071,8.858-3.946,12.628-2.492,3.267-5.672,6.015-9.224,8.075-6.738,3.91-14.708,5.358-22.372,3.958-.894-.163-2.573,6.191-2.506,6.203,13.261,2.423,27.227-3.877,34.087-15.508,7.025-11.914,9.23-26.858,1.837-39.114"/>
      <path d="M298.18,245.157c-43.37,0-78.655-35.284-78.655-78.653s35.284-78.653,78.655-78.653l-.246,8.793c-38.386,0-69.453,31.57-69.453,69.955s31.229,69.602,69.615,69.602c16.43,0,32.648-5.728,45.176-16.315l5.648,6.718c-14.158,11.964-32.178,18.552-50.74,18.552Z" fill="#00edff"/>
    </g>
  </g>
</svg>