<?xml version="1.0" encoding="UTF-8"?>
<svg id="Layer_2" data-name="Layer 2" xmlns="http://www.w3.org/2000/svg" viewBox="0 0 204.575 223.036">
  <g id="Layer_1-2" data-name="Layer 1">
    <g>
      <path d="M102.371,200.027c-17.7,0-35.094-6.08-48.944-17.099-6.724-5.351-12.57-11.795-17.235-19.012-1.296-2.004-2.185-4.337-3.195-6.491-1.21-2.579-2.161-6.47-4.088-8.553-.709-.767-1.793-1.276-2.805-1.017-1.554.398-2.162,2.247-2.453,3.825-.996,5.401-.13,11.457,4.964,14.563.935.569,2.092,1.213,2.119,2.307.025,1.031-1.124,1.793-2.151,1.688-1.025-.106-1.883-.829-2.541-1.623-4.136-4.985-2.665-12.926-6.629-18.048-1.7-2.196-4.242-3.617-6.894-4.443,5.049-.623,8.789-2.921,9.686-8.252.614-3.641-.331-7.35-1.366-10.894-2.733-9.348-5.619-19.583-11.847-27.275C5.381,95.243.387,91.124.016,85.396c-.073-1.116.082-2.329.836-3.156.754-.827,2.255-1.014,2.946-.135.367.467.43,1.096.482,1.688.542,6.172,2.441,13.58,8.406,15.254,2.324.652,7.473.22,9.212-1.833.958-1.132.828-3.13.591-4.488-.227-1.295-.633-2.557-.805-3.861-.207-1.567-.073-3.161.173-4.722-.049,1.339.282,2.668.764,3.917.486,1.257,1.191,2.519,2.368,3.175,3.473,1.935,6.049-3.233,7.187-5.572,1.304-2.681,2.884-5.307,4.388-7.908,2.987-5.164,7.815-10.016,12.196-14.094,7.781-7.244,17.017-12.899,27.022-16.498,9.866-3.549,24.454-3.26,32.66-10.059,2.609-2.162,4.35-5.198,5.669-8.319,4.027-9.531,3.927-21.948-3.839-28.785,6.93,3.557,11.562,11.196,11.511,18.986-.025,3.739-1.039,7.365-2.156,10.903-1.002,3.171-2.401,6.217-1.285,9.574.77,2.317,2.517,4.292,4.723,5.34-1.26-.602-2.519-1.205-3.778-1.807-.37-.177-.756-.358-1.167-.361-.898-.006-1.601.876-1.719,1.767-.335,2.5.561,5.777,1.759,7.943,3.682,6.657,13.063,10.108,13.666,17.692.135,1.702-.311,3.559-1.622,4.654-2.2,1.837-5.771.62-7.498-1.667-1.727-2.287-2.172-5.255-2.82-8.047-1.055-4.543-2.899-9.095-6.374-12.205-3.475-3.11-8.873-4.404-12.929-2.101-3.44,1.953-5.161,5.854-7.425,9.097-2.263,3.244-6.175,6.209-9.885,4.839-.301-2.055,1.5-3.812,3.326-4.804,2.951-1.602,9-5.231,3.705-7.348-2.543-1.017-10.921,2.977-13.442,3.972-6.921,2.731-17.056,5.713-17.649,14.591-.138,2.058.29,4.113.837,6.101.247.895.515,1.862.18,2.727-.335.865-1.583,1.4-2.215.721-.282-.303-.354-.74-.394-1.152-.119-1.243-.055-2.504.19-3.729.164-.824.412-1.641.414-2.482.02-7.737-9.314,3.962-10.543,5.594-2.815,3.74-5.839,7.721-7.902,11.948-4.628,9.478-7.103,19.989-7.103,30.54,0,38.429,31.265,69.692,69.693,69.692,9.884,0,19.741-2.13,28.746-6.204,3.17-1.434,8.487-3.106,11.105-5.391,3.514-3.068.439-6.766-2.961-8.041-3.739-1.402-7.644-2.357-11.609-2.838,6.494-1.227,13.342-.51,19.44,2.036,2.037.85,5.724,2.548,7.754.799,1.984-1.71,1.82-5.667.577-7.713-.765-1.26-1.932-2.225-2.781-3.43-.848-1.205-1.345-2.869-.589-4.135.136-.227.314-.438.551-.557.566-.285,1.283.058,1.637.583.353.526.44,1.18.538,1.805.348,2.225.906,5.948,2.566,7.615.528.53,1.218.865,1.909,1.152,1.26.522,2.572.919,3.911,1.18-.66.215-1.375.077-2.069.059-.695-.017-1.484.147-1.842.741-.206.341-.228.761-.201,1.159.095,1.391.67,2.441.489,3.888-.297,2.383-1.892,4.372-2.852,6.574-1.925,4.414-1.202,9.623.82,13.993,2.126,4.596,5.709,8.237,8.457,12.374,2.583,3.886,7.137,7.087,11.561,8.447,6.279,1.931,13.02.506,19.541-.282,1.568-.19,3.198-.336,4.693.172,1.495.508,2.822,1.848,2.815,3.427-.012,2.522-3.023,3.803-5.514,4.194-9.187,1.442-19.067-.549-26.379-6.297-8.229-6.471-12.877-17.174-22.182-21.972-7.673-3.955-12.841-3.344-20.163-.097-7.901,3.505-19.417,5.807-27.966,5.807"/>
      <path d="M102.721,199.449c-43.162.037-77.762-35.182-78.655-78.653-.866-42.151,34.286-74.733,78.655-78.653l-3.281,8.913c-37.471.917-66.882,31.974-66.882,70.359s31.777,70.039,70.163,70.039c16.43,0,33.319-5.934,45.847-16.52l4.309,5.379c-14.158,11.964-31.594,19.136-50.156,19.136Z" fill="#00edff"/>
    </g>
  </g>
</svg>