<?xml version="1.0" encoding="UTF-8"?>
<svg id="Layer_2" data-name="Layer 2" xmlns="http://www.w3.org/2000/svg" viewBox="0 0 126.781 156.34">
  <g id="Layer_1-2" data-name="Layer 1">
    <g>
      <path d="M125,140.832c2.066-1.54,2.377-4.525.714-6.492l-.002-.002c-1.538-1.82-4.217-2.105-6.128-.682-7.219,5.374-15.403,9.267-24.056,11.498h-.003c-25.781,6.613-41.403-5.985-26.792-8.526h0c25.432-4.62,44.897-29.113,44.897-58.543,0-32.713-24.05-59.327-53.612-59.327-2.771,0-5.494.234-8.154.685h-.004c-11.156,1.798-9.864-1.068-.409-5.193h0s0,0,0,0c6.999-2.947,14.58-4.776,22.518-5.261,2.39-.146,4.27-2.089,4.27-4.483,0-2.572-2.157-4.651-4.725-4.497C32.564,2.459,0,36.55,0,78.103c0,43.14,35.098,78.237,78.238,78.237,16.879,0,33.307-5.477,46.761-15.508ZM111.043,78.084c0,31.288-22.889,56.743-51.026,56.743-27.205,0-49.501-23.799-50.948-53.657-.044-1.01-.077-2.023-.077-3.043,0-.008,0-.016,0-.024,0-.047.003-.093.003-.14.002-.907.022-1.809.062-2.706.003-.076.008-.151.012-.227,1.432-29.873,23.735-53.688,50.95-53.688,28.137,0,51.026,25.455,51.026,56.743Z"/>
      <path d="M77.953,156.339C38.021,156.339,0,122.022,0,78.653S33.984,2.527,73.514.008l1.171,8.863C36.299,8.871,9.039,40.268,9.039,78.653s31.229,69.614,69.616,69.614c16.43,0,25.954-5.084,39.684-13.706l6.661,6.272c-11.41,8.083-26.496,15.507-47.047,15.507Z" fill="#00edff"/>
    </g>
  </g>
</svg>