<?xml version="1.0" encoding="UTF-8"?>
<svg id="Layer_2" data-name="Layer 2" xmlns="http://www.w3.org/2000/svg" viewBox="0 0 168.783 229.148">
  <g id="Layer_1-2" data-name="Layer 1">
    <g>
      <g>
        <path d="M69.276,152.517l-3.948-11.208L29.228,38.818l-8.569,3.018,35.005,99.458c.002.006.003.01.005.015,8.364,23.763-37.939,11.475-51.82,7.32,11.529,3.63,46.021,14.772,62.575,23.238,20.051,10.254,102.359,57.281,102.359,57.281,0,0-91.641-54.031-99.507-76.632Z"/>
        <path d="M3.85,148.629c-2.436-.767-3.85-1.199-3.85-1.199,0,0,1.441.478,3.85,1.199Z"/>
        <path d="M41.298,0l-20.638,41.836,8.568-3.018C26.223,30.558,41.298,0,41.298,0Z"/>
      </g>
      <polygon points="66.254 171.329 20.714 41.937 29.24 38.934 74.812 168.314 66.254 171.329" fill="#ffce00"/>
    </g>
  </g>
</svg>