<?xml version="1.0" encoding="UTF-8"?>
<svg id="Layer_2" data-name="Layer 2" xmlns="http://www.w3.org/2000/svg" viewBox="0 0 55.9 559.18">
  <defs>
    <style>
      .cls-1 {
        fill: #ffce00;
      }
    </style>
  </defs>
  <g id="Layer_1-2" data-name="Layer 1">
    <g>
      <g>
        <path d="M55.17,131.89l.73.14c-.27-.31-.56-.47-.87-.53L8.71,0,0,3.07l1.86,5.28-.37-.44c.59.67.66,1.64.71,2.53.15,2.73.44,5.46.58,8.19v17.8c.35,5.07.15,10.18.51,15.24v42.19c1.37,9.01,1.38,18.11,1,27.22-.31,7.19-.69,14.39-1,21.58v40.67c-.02,1.87.08,3.74.11,5.6.08,6.33.67,12.64,1.75,18.88.52.2.81-.59.81-1.14-.06-6.08-.07-12.17-.13-18.25v-10.18c-.53-10.5-1.13-20.99-1.02-31.5,0-6.74.28-13.38.55-20.11.27-6.66.54-13.32.81-19.98.17-4.15-.26-8.02-.28-12.11-.04-7.79.38-15.64-1.02-23.34-.92-5.09-.4-11.74-.06-16.97.3-4.57.19-9.15,0-13.73v-17.28c.47-1.2.78-2.46.95-3.74l1.1,3.11-.5,1.76v16.35c-.38,7.2.15,14.46.96,21.63v15.87c.04,1.27.02,2.43.07,3.7.18,5.17.24,10.35.42,15.52v5.77c-.28.46.39,1.14.86.89.62-4.26.75-8.64.1-12.9v-9.63c-.07-2.57.06-5.17-.48-7.68v-13.47c-.1-4.49.19-9.02-.48-13.45v-10.14c1.16,0,1.07-1.51.79-2.63-.67-2.77-.96-5.7-.67-8.55l2.19,6.22c.38,3.44.6,6.93.39,10.38v11.74c-.13,5.21.26,10.43.77,15.61.08-.12.18-.23.29-.33-.2-1.94-.34-3.91-.18-5.86v-2.67c-.06-2.49-.12-4.98-.18-7.47v-6.58c-.09-2.9-.24-5.81-.18-8.71v-3.49l3.06,8.68c.02.28.04.55.06.83v45.36c.04-.2.09-.4.15-.6,1.45-5.24,1.65-10.86.61-16.2v-8.65c.67-2.07,1.17-4.24.75-6.38v-3.01c-.14-1.38-.23-2.76-.38-4.13v-3.86l1.55,4.41-1.01,2.1c.2.21.23.42.23.71.02,2.15.23,4.3.48,6.44v10.15c.17,0,.26.19.26.37-.08,2.61-.16,5.23-.24,7.84.18.06.37.11.56.13-.05-.31-.06-.64.01-.94v-5.25c.01-1.07-.01-2.15,0-3.22v-2.64c0-.51-.07-1.01-.07-1.52.01-2.07.11-4.17-.17-6.23v-3.58c-.15-1.37-.22-2.74.04-4.05l1.04,2.96-.19.05v7.49c1.45,4.49,2.17,9.27,1.5,13.94v15.46c.52,3.02.93,9.25,1.21,16.36-.03.77-.06,1.54-.11,2.31v42.77c-1.07,6.34-1.67,12.77-1.21,19.19.27.06.54.08.81.14v20.21c.03,6.6-.77,13.21-1.75,19.73.31.01.63,0,.94.02v43.19c-.05,4.07-.06,8.15-.11,12.23,0,.56.49,1.44.92,1.07v17.37c-.34,3.62.07,7.31,1.04,10.82.14-.34.03-.79.17-1.13v-23c.15-6.36.42-12.72.57-19.08.09-3.82.18-7.64.27-11.46.07-3,.14-6,.52-8.97.13-1.03.25-1.78-.56-2.44v-25.43c.75-3.09-1.57-6.37-.65-9.41.11-.36.26-.71.35-1.08.13-.55.11-1.11.09-1.67-.32-9.11-.03-18.27.21-27.38v-83.53c.28-4.29.87-8.47,1.29-12.68l.77,2.18-.33.05v8.72c-.05,1.49-.07,3.01.14,4.49.1.75.24,1.49.32,2.24.11,1.04.1,2.1.09,3.15-.02,1.57-.17,3.14-.19,4.71v34.86c.2,0,.43,0,.59.14-.03,1.65-.07,3.31-.1,4.96-.06,2.8-.28,5.66.23,8.42v9.97c.19,0,.38-.01.58-.02-.03-2.37-.19-4.74-.22-7.1v-2.5c.11-1.42.25-2.84.18-4.26v-6.96c-.22.06-.47-.02-.64-.16.5-1.68.4-3.52-.25-5.15v-10.67c.21-2.07.36-4.14.36-6.23v-13c-.19-.02-.37-.04-.56-.06.51-3.44.7-6.94.56-10.42v-13.08l1.12,3.19v13.55c.52,0,1.08.01,1.48.35-.53,3.33-.74,6.71-.6,10.08v14.01c.63,0,.92-.61.91-1.24-.02-2.51-.02-5.02-.04-7.52v-5.24c.52-3.61.68-7.29.44-10.93v-1.38c-.93-1.43-1.6-3.06-1.31-4.74,0-1.52-.28-3.56-.37-5.49l2.74,7.78v9.68c-.04,7.14.54,14.29.5,21.43v66.3c-.33.76-.48,1.51-.45,2.34.5,11.36,1,22.71,1.49,34.07,1.47-3.34-.71-7.61,1.2-10.72-.11-.92-.14-1.85-.25-2.76v-9.03c-.78.27-1.19-1-1.11-1.82.24-2.53.38-5.07.62-7.6v-25.94c-1.19-.5-1.26-1.9-1.1-3.18,1.15-9.18,1.29-18.47.6-27.7v-19.94c.03-6.31-.03-12.63,0-18.94v-1.93l4.13,11.74-.59,1.21v2.87c.13,2.33.13,4.66.26,6.99.02.43.17.81.22,1.24v-2.39c.19-.15.13-.47.11-.71-.08-1.2-.28-2.39-.35-3.59v-2.52c.13.09.22-.12.23-.28.06-.88.13-1.76.19-2.64l1.73,4.91v3.64c.03.76-.08,1.52,0,2.28.14,1.39.21,2.78.36,4.17v4.54c-.06,1.07-.18,2.15-.24,3.22v7.2c.22,0,.45-.01.66.06-.02-.19-.03-.38-.06-.57v-3.11c-.1.11-.24-.12-.24-.27,0-1.54.11-3.07.12-4.61v-2.27c.09-2.31.15-4.61.24-6.92v-4.07c-.12-.01-.25-.02-.37-.03.02-.61.02-1.22.03-1.83l3.42,9.72v2.89c.35,2.91,1.2,5.76.62,8.64v1.03c.24,2.39.22,4.79.21,7.2v4.94c.16-.9.38-1.76.47-2.67.09-.93.1-1.86.11-2.79.02-1.68,0-3.35.03-5.03v-5.35c-.14-2.13-.31-4.26-.57-6.38l3.3,9.37c-.59,13.93-.75,27.85-.09,41.81v94.52c-.53,33.15-.32,66.31-.41,99.47.8.02,1.63.05,2.3-.37-.74-29.53-.7-59.12,1.11-88.6v-24.76c-2.18-3.85-1.86-8.65-1.68-13.06.68-16.15.99-32.3,1.68-48.45v-39.76c-1.23-2.26-.79-4.88-.11-7.36.82-2.99,1.65-6.03,3.3-8.65.2-.32.55-.81.97-1.31l3.55-1.25-.12-.33ZM20.79,71.61c1.49,3.24,0,10.66,0,14.22v8.36c-.08-.86-.09-1.74,0-2.6v-10.97c-.3-2-.69-3.98-1-5.98v-8.53c.57-1.31.94-2.77.93-4.18l1.54,4.38-1.47,5.3Z"/>
        <path d="M37.51,132.18s-.1-.05-.15-.07c.01.12.03.25.04.37.03-.1.06-.21.11-.31Z"/>
        <path d="M37.42,133.78c.02-.43.01-.86-.02-1.29-.12.42-.12.88.02,1.29Z"/>
        <path d="M14.15,90.26v-.95c-.06.32-.09.64,0,.95Z"/>
        <path d="M15.6,125.74c-1.37,5.57-1.52,11.38-.7,17.05v53.76c.58,0,1.18-.07,1.67-.37-.33-2.76-.59-5.53-.92-8.3v-40.21c.14-3.63.18-7.27,0-10.9v-4.15c1.09-1.8,1.71-3.97,1.13-6v-1.92c-.68.07-1.24-.99-.75-1.47h-.38c-.02-.49-.04-.97-.06-1.46-.17-.07-.33-.02-.46.1.2-2.04.26-4.1.14-6.15v-24.83c-.46.28-.96-.09-1.12-.6,0-.01,0-.03,0-.04v35.26c.49,0,.97.13,1.45.22Z"/>
        <path d="M43.82,452.58v74.81c0,4.24,0,8.48,0,12.72,0,2.37.04,4.63.23,6.96.29,3.68-.77,8.62,1.66,11.75.19.25.56.49.78.27.13-.13.11-.33.08-.51-.24-1.5-.75-2.97-1.49-4.29.38.05.72-.42.55-.77.44.2.86.25,1.29.04.86-4.51-1.41-9.34-1.6-13.89-.11-2.63-.21-5.26-.27-7.89-.3-12.54.93-24.98.68-37.47-.25-12.78-.38-25.57-.03-38.35.41-15.03,1.1-29.99.28-45.01-.1-1.89-.21-3.8.05-5.68.35-2.54,1.35-4.98,1.36-7.54,0-3.84-1.61-7.51-2.57-11.14-.36-1.36-.58-2.71-.73-4.05-.06,8.52-.13,17.04-.27,25.55v44.49Z"/>
        <path d="M43.82,374.33c0,2.79-.03,5.49.27,8.2.04-5.58.06-11.17.08-16.75-.12,0-.23,0-.34,0v8.55Z"/>
      </g>
      <polygon class="cls-1" points="45.67 132.39 .13 3 8.66 0 54.23 129.38 45.67 132.39"/>
    </g>
  </g>
</svg>