<?xml version="1.0" encoding="UTF-8"?>
<svg id="Layer_2" data-name="Layer 2" xmlns="http://www.w3.org/2000/svg" viewBox="0 0 217.809 633.212">
  <g id="Layer_1-2" data-name="Layer 1">
    <g>
      <g>
        <path d="M206.137,358.982c5.522.872,10.695-2.982,11.551-8.607.856-5.624-2.928-10.891-8.451-11.763-4.976-.786-9.657,2.272-11.163,6.999-42.121-13.014-74.009-51.16-93.855-82.107-22.484-35.062-34.641-68.433-35.531-70.914h.001S23.116,60.818,23.116,60.818C12.211,28.78,9.862,5.67,17.139,1.916c11.042-5.697,38.837,32.634,51.076,50.625-4.13-1.481-8.499-2.027-12.984-1.906l1.433,2.111c4.939-.203,9.931.937,14.436,2.983-.233-5.003.288-10.23,2.356-14.809l-1.456-2.145c-1.645,4.045-2.647,8.412-2.798,12.816C43.49,13.781,25.278-3.822,16.531.693c-8.035,4.145-5.995,27.351,5.315,60.581l-7.257,2.603,45.489,131.631-.014.006c.255.624,25.579,63.43,33.121,145.803,4.427,48.359,1.95,93.901-7.362,135.36-11.548,51.413-33.708,96.657-65.859,134.502-1.271,1.387-2.878,3.067-4.725,3.449-1.976.403-4.859-.477-6.488-1.704l-8.752,9.582c2.656,2.093,6.367,2.805,9.456,1.185-1.305,3.364-.378,6.781,1.845,9.521l8.752-9.582c-1.29-1.487-2.289-3.861-2.195-5.781.059-2.003,1.143-3.523,2.379-4.934l.023.022c.233-.273.46-.549.692-.822.053-.058.105-.116.159-.174l-.007-.006c32.238-37.994,54.457-83.394,66.039-134.974,9.342-41.606,11.826-87.3,7.381-135.809-7.344-80.157-31.486-141.833-33.127-145.946l6.024-2.16c.879,2.452,13.08,35.97,35.658,71.184,19.983,31.169,52.123,69.593,94.666,82.71-.017.093-.042.183-.056.277-.856,5.625,2.927,10.892,8.45,11.764Z"/>
        <path d="M75.454,43.863c-1.806,4.443-2.851,9.272-2.825,14.117-4.411-1.758-9.111-2.386-13.944-2.256l1.433,2.111c4.94-.203,9.933.939,14.438,2.985-.234-5.005.287-10.232,2.356-14.811l-1.457-2.145Z"/>
      </g>
      <polygon points="60.003 195.297 15.346 65.598 23.766 62.696 68.582 192.341 60.003 195.297" fill="#ffce00"/>
    </g>
  </g>
</svg>