<?xml version="1.0" encoding="UTF-8"?>
<svg id="Layer_2" data-name="Layer 2" xmlns="http://www.w3.org/2000/svg" viewBox="0 0 389.059 473.368">
  <g id="Layer_1-2" data-name="Layer 1">
    <g>
      <path d="M385.899,318.348l-.01.012c.201-.472.734-1.179.01-.012M385.89,318.362c-.038.157-.065.288-.056.3l.056-.3ZM40.698,118.449c31.589,85.069,37.015,90.639,55.786,130.786,19.245,41.162,41.259,79.287,64.101,118.567,20.757,35.695,44.632,72.113,81.913,92.323,16.897,9.16,35.99,14.374,55.286,13.034,18.024-1.252,35.983-7.974,49.212-20.507,13.997-13.263,22.027-32.795,24.862-51.616,3.217-21.365-.834-42.98-7.548-63.289-.579-1.751-1.208-3.485-1.827-5.223,6.814,2.106,15.277-.998,19.891-6.413,3.901-4.578,6.342-11.427,6.653-17.39.345-6.606-2.103-13.15-5.788-18.544-8.56-12.532-23.538-17.906-36.855-23.745-14.756-6.468-29.168-14.44-41.971-24.264-6.489-4.979-12.63-10.862-16.354-18.25-1.849-3.669-3.034-7.674-3.392-11.771-.166-1.894-.16-3.807.059-5.697.288-2.503.372-2.94,1.621-4.79.832-1.234,1.359-2.79,1.824-4.195.107-.326.728-2.325.025-1.284-3.812,5.652-6.327,12.91-6.221,19.767.105,6.774,2.54,13.302,6.379,18.828,4.241,6.106,9.953,11.016,15.928,15.362,6.451,4.692,13.24,8.949,20.196,12.849,7.083,3.971,14.388,7.488,21.844,10.705,6.803,2.936,13.689,5.78,20.034,9.645,11.383,6.934,22.543,19.74,19.756,34.125-.024.121-.147.583-.222.899-.376.602-.806,1.167-1.266,1.706-.935,1.098-2.002,2.082-3.16,2.941-2.397,1.777-5.208,3.016-8.13,3.617-5.482,1.125-11.284-.209-14.831-4.751-.077-.099-1.466,2.738-1.562,2.974-.299.738-1.268,2.402-.943,3.225,14.289,36.108,25.674,85.002-4.65,116.454-12.524,12.989-30.007,20.255-47.78,22.148-18.631,1.985-37.28-2.201-54.015-10.4-37.09-18.17-61.675-52.81-82.19-87.392-22.481-37.892-43.09-76.946-62.074-116.699-19.069-39.926-35.543-81.1-51.079-122.53l-4.124-11.717-1.882-5.349L8.576,0,0,3.021l38.343,108.753v.002s2.354,6.674,2.354,6.674Z"/>
      <polygon points="45.879 132.316 .027 3.034 8.553 .031 54.125 129.411 45.879 132.316" fill="#ffce00"/>
    </g>
  </g>
</svg>