<?xml version="1.0" encoding="UTF-8"?>
<svg id="Layer_2" data-name="Layer 2" xmlns="http://www.w3.org/2000/svg" viewBox="0 0 109.614 361.701">
  <g id="Layer_1-2" data-name="Layer 1">
    <g>
      <path d="M21.066,19.307c.238.682.679,2.855,1.139,3.214,1.348,1.051,1.101-1.433.611-2.494-1.568-3.391-4.445-5.662-6.486-8.709-.31-.464-.619-1.01-.592-1.553.037-.752.739-1.115,1.365-.931.626.184,1.173.752,1.67,1.318,3.452,3.924,7.05,8.735,6.695,14.187-.075,1.155-.217,2.307-.423,3.446-.786,4.332-2.515,8.699-1.588,13.003.165.768.426,1.539.94,2.133.514.595,1.322.982,2.091.819.865-.183,1.477-1.018,1.645-1.886.068-.351.079-.718.217-1.048.137-.33.453-.625.809-.589.487.049.715.684.564,1.15-.152.466-.537.809-.856,1.181-1.591,1.865-2.306,5.728-.645,7.737.618.747,1.497,1.219,2.289,1.779,1.927,1.362,3.412,3.343,4.179,5.576-.759-.441-1.701-.553-2.542-.301-1.308.394.53,3.953.837,4.791.689,1.878,1.422,3.739,2.087,5.626,6.716,19.05,13.332,38.137,20,57.204,6.985,19.975,13.97,39.951,20.956,59.926,1.23,3.517,2.46,7.034,3.689,10.552.573,1.636,1.077,3.313,1.776,4.898,1,2.272,2.3,3.033,4.19,3.757.979.375,1.996.806,2.793,1.682-1.357-.22-2.881-.381-3.759.696-.732.898-.775,2.445-.425,3.822s1.035,2.645,1.662,3.916c2.141,4.336,3.142,9.042,5.24,13.357.479.984,1.093,2.092,1.966,2.3,1.153.275,1.831-1.229,1.909-2.609.13-2.311-.596-4.786-1.739-6.909-.558-1.038-1.239-2.412-.68-3.222.427-.62,1.377-.361,1.934.313.557.674.807,1.608.99,2.494.753,3.639.797,7.357.127,10.731-.391,1.971-1.022,3.827-1.306,5.846-.529,3.764.815,8.068,3.009,11.316.726,1.075,1.688,2.143,2.731,2.17.703.019,1.286-.448,1.797-.944.332-.322.708-.682,1.17-.574.505.118.905.806.929,1.422.025.617-.251,1.142-.614,1.495-.884.861-2.244.837-3.455.315-1.211-.522-2.313-1.479-3.393-2.421-.938-.819.745-2.552-.194-3.372-.409-.357-.831-.722-1.295-.886-.944-.334-1.843.259-2.364,1.119-.778,1.282-.912,3.065-.89,4.792.076,5.893,1.752,12.066,4.707,17.33,2.527,4.504,6.358,8.373,10.141,5.376.413-.327.791-.732,1.279-.897s1.138-.007,1.472.566c.468.804-.011,1.816-.68,2.09-.669.273-1.455.103-2.173.215-2.36.369-3.337,3.495-3.977,6.248-1.097,4.726-2.103,9.514-3.416,14.117-1.183,4.145-1.889,8.641-1.406,13.357.173,1.687,1.1,3.967,2.405,3.717,1.172-.225,1.131-2.221.978-3.735-.152-1.514.285-3.508,1.512-3.116.681.217,1.142,1.12,1.358,1.951.797,3.064-.464,6.005-2.229,7.829-1.765,1.823-4.01,2.89-5.872,4.574-3.466,3.134-5.445,8.467-5.269,14.193.177,5.726,2.508,11.741,6.202,16.009,2.178,2.515,5.163,5.552,4.446,8.646-.462,1.993-2.493,2.729-4.254,2.029-1.76-.7-3.232-2.488-4.349-4.399-4.493-7.682-4.27-17.237-3.504-25.717,1.245-13.796,3.34-27.318,3.95-41.304.349-8.02.196-16.213-.875-24.441-1.057-8.116-3.381-14.881-6.054-22.52-3.469-9.915-6.939-19.83-10.408-29.744-3.629-10.37-7.859-19.68-15.434-27.055-3.367-3.279-7.459-6.591-8.391-11.483-.082-.429-.135-.877-.04-1.266.284-1.176,1.773-1.106,2.64-.197.868.909,1.274,2.271,1.687,3.535,1.455,4.456,4.126,9.221,7.847,10.234.404.11.843.163,1.151-.092.42-.347.435-1.114.383-1.79-.352-4.628-2.764-8.814-4.305-13.216-5.385-15.39-10.77-30.78-16.156-46.171-5.163-14.756-10.326-29.512-15.49-44.268-1.956-5.59-3.912-11.181-5.869-16.771-2.51-7.172-4.691-14.424-9.543-20.161-2.185-2.584-4.861-5.062-5.628-8.493-.13-.583-.175-1.265.158-1.612.426-.442,1.214-.015,1.596.639.382.654.486,1.44.649,2.186.279,1.289.767,2.551,1.423,3.685.565.978,1.371,1.934,2.276,2.024,2.54.254.119-3.845-.307-5.066-.931-2.675-1.731-5.677-3.233-8.06-1.35-2.142-5.677-6.331-4.669-9.202-.058.66.154,1.387.517,1.974.362.586.865,1.039,1.398,1.345.305.175.628.306.942.306.227,0,.441-.071.636-.181.781-.441,1.198-1.501,1.241-2.612.074-1.864-.647-4-1.556-5.656C6.997,10.905,2.791,7.12.338,1.948.046,1.332-.192.466.223.123.394-.02.633-.016.858.024c1.506.266,2.778,1.864,3.801,3.415,1.515,2.3,2.852,4.761,3.982,7.329.963,2.188,1.786,4.474,3.029,6.477,1.127,1.818,3.243,4.28,5.017,3.701,1.466-.479,2.913-1.125,4.38-1.638"/>
      <polygon points="65.718 183.277 20.178 53.886 28.704 50.883 74.277 180.263 65.718 183.277" fill="#ffce00"/>
    </g>
  </g>
</svg>