<?xml version="1.0" encoding="UTF-8"?>
<svg id="Layer_2" data-name="Layer 2" xmlns="http://www.w3.org/2000/svg" viewBox="0 0 129.418 140.019">
  <g id="Layer_1-2" data-name="Layer 1">
    <g>
      <path d="M124.967,48.703C113.902,17.408,85.011-1.996,56.167.163c-5.045.378-10.089,1.415-15.036,3.164-3.334,1.179-6.5,2.637-9.484,4.344-5.544,3.171-10.46,7.199-14.667,11.888C2.052,36.198-3.941,61.153,2.673,85.611c.516,1.906,1.107,3.809,1.778,5.705,10.298,29.124,36.035,47.95,62.805,48.681,7.026.192,14.123-.863,21.031-3.306,3.115-1.101,6.082-2.446,8.892-4.01,27.16-15.115,39.57-50.656,27.788-83.978ZM119.865,71.667c3.316,9.379-.821,19.425-9.222,22.396-8.401,2.97-17.933-2.243-21.25-11.621-1.662-4.701-1.452-9.571.23-13.633,1.673-4.04,4.802-7.281,8.992-8.763,8.401-2.97,17.934,2.243,21.25,11.621ZM122.061,49.73h0c3.84,10.861.617,14.651-10.827,9.186-.001,0-.002,0-.003-.001-4.143-1.985-8.865-2.421-13.314-.848-7.804,2.759-12.375,10.852-11.698,19.461.147,1.863.539,3.75,1.197,5.612.77,2.177,1.844,4.151,3.146,5.883,4.965,6.597,13.263,9.676,20.781,7.017h0c6.52-2.305,12.162-.685,9.483,5.557h0c-1.63,3.784-3.602,7.376-5.895,10.718-.901,1.313-1.856,2.585-2.854,3.817-15.746,18.714-28.239-5.676-32.589-17.936l-.026-.073L50.666,16.754h0s0,0,0,0c-3.092-8.745-3.874-11.928,1.099-12.957.362-.058.723-.129,1.085-.18,28.631-4.023,58.161,14.866,69.21,46.113ZM7.357,90.288c-2.529-7.151-3.897-14.408-4.208-21.524-.096-2.205-.091-4.398.014-6.569.826-17.244,7.875-33.186,19.636-44.181h0c.521-.488,1.061-.956,1.601-1.424,5.928-4.852,14.12-7.011,17.683,3.062h0s22.369,63.264,22.369,63.264c.001.002.001.004.002.006,12.789,36.168,17.347,54.333,1.315,53.924-.872-.048-1.743-.107-2.611-.195-23.996-2.428-46.478-19.996-55.801-46.362Z"/>
      <polygon points="83.658 137.77 38.118 8.379 46.644 5.376 92.217 134.756 83.658 137.77" fill="#ffce00"/>
    </g>
  </g>
</svg>