<?xml version="1.0" encoding="UTF-8"?>
<svg id="Layer_2" data-name="Layer 2" xmlns="http://www.w3.org/2000/svg" viewBox="0 0 80.047 243.421">
  <g id="Layer_1-2" data-name="Layer 1">
    <g>
      <g>
        <path d="M21.023,2.427c-1.054-1.551-1.661-2.427-1.661-2.427,0,0,.603.887,1.661,2.427Z"/>
        <path d="M37.676,164.051s0-.001,0-.002l42.371-120.29-8.551-3.012-5.917,16.812v.002C63.481,63.716,29.033,14.091,21.023,2.427c7.97,11.734,41.856,62.627,37.902,74.039l-.002.005-.004.013C52.747,94.169,0,125.666,0,125.666c0,0,51.836-29.101,50.114-24.167v.002s-24.119,68.525-24.119,68.525h0c9.485,3.295,19.558,73.395,19.558,73.395,0,0-10.147-72.93-7.878-79.371Z"/>
      </g>
      <polygon points="34.474 173.163 80.014 43.772 71.488 40.769 25.915 170.149 34.474 173.163" fill="#1ca300"/>
    </g>
  </g>
</svg>