<?xml version="1.0" encoding="UTF-8"?>
<svg id="Layer_2" data-name="Layer 2" xmlns="http://www.w3.org/2000/svg" viewBox="0 0 56.15 407.49">
  <defs>
    <style>
      .cls-1 {
        fill: #1ca300;
      }
    </style>
  </defs>
  <g id="Layer_1-2" data-name="Layer 1">
    <g>
      <g>
        <path d="M1.33,259.7c0,2.95-.03,5.79.31,8.64,0-2.2,0-4.39.04-6.59.05-3.56.11-7.13.17-10.69-.17,0-.35,0-.52,0v8.64Z"/>
        <path d="M3.03,301.46c1.37-4.55.74-9.77.48-14.46-.11-1.91-.21-3.84.05-5.74.35-2.56,1.37-5.04,1.37-7.62,0-3.88-1.63,2.11-2.6-1.55-.33-1.26-.55-2.5-.7-3.74.01,10.27.36,20.51.54,30.8.01.86.11,1.88.86,2.31Z"/>
        <path d="M12.18,202.22c1.02-1.78,1.59-3.88,1.02-5.85v-1.94c-.69.07-1.25-1-.76-1.48h-.33c.05.95.08,5.56.07,9.27Z"/>
        <path d="M12.08,192.95h.04c-.01-.22-.02-.25-.04,0Z"/>
        <path d="M42.57,224.03c-.45.91-.48,1.96,0,0h0Z"/>
        <path d="M55.72,60.45v-9.73c-.06-2.24.03-4.51-.3-6.72-.1-.7-.19-1.39-.19-2.1v4.52c-.1-4.53.19-9.11-.49-13.59v-10.25c1.17,0,1.08-1.52.8-2.66-.86-3.54-1.12-7.34-.32-10.9,0,0,0-2.37,0-4.1l.64-1.81-8.84-3.11L0,133.63l2.05.72c-.49,12.99-.58,25.97.03,38.99v53.99c0,7.91-.11,15.82-.24,23.73.76.02,1.52.02,2.15-.38-.1-4.02-.19-6.77-.26-8.61.23,1.18.67.02,1.38-11.49v-17.65c-2.2-3.89-1.88-8.74-1.69-13.2.69-16.32,1-8.19,1.69-24.51v-23.11c-1.24-2.28-.8-4.93-.11-7.44.77-2.82,1.57-5.69,3.03-8.21l.77.27,1.74-4.94v27.86c-.1,0-.07,6.36,0,10.94v24.66c.5,0,.98.13,1.47.23-1.38,5.62-1.54,11.5-.71,17.23v194.79c.58,0,1.19-.07,1.69-.37-.33-2.79-.6-125.67-.93-128.46v-72.03c.07,1.5.11-1.08.12-4.41-.04.07-.08.14-.12.21v-9.23c0-.11,0-.18.01-.25h-.01c-.02-.49-.04-.98-.06-1.47-.17-.07-.33-.02-.46.1.2-2.07.27-4.15.15-6.22v-15.3c.36-2.94.36-5.93,0-8.86v-.93s-.08.04-.12.05c-.08-.52-.16-1.05-.26-1.56v-8.74c.67-2.1,1.18-4.29.76-6.45v-3.04c-.14-1.39-.24-2.79-.38-4.18v-7.78l1.52-4.31c.37,2.85,1.16,5.64.59,8.46v1.04c.25,2.42.22,4.84.21,7.27v4.99c.16-.91.39-1.78.48-2.7.09-.94.1-1.88.12-2.82.02-1.69,0-3.39.03-5.08v-5.4c-.16-2.56-.38-5.13-.74-7.68l3.47-9.84c.15,2.28.21,4.56.07,6.83v11.86c-.13,5.26.26,10.54.78,15.78.08-.12.18-.23.3-.33-.2-1.96-.34-3.95-.18-5.92v-2.7c-.06-2.52-.12-5.03-.18-7.55v-6.65c-.09-2.94-.24-5.87-.18-8.81v-4.25l1.26-3.57v3.17c-.05,1.5-.07,3.04.14,4.53.11.75.24,1.5.32,2.26.11,1.06.1,2.12.09,3.18-.02,1.59-.17,3.17-.19,4.76v18.16c.12,0,.24.01.36.04v3.55c.08-.81.15-1.62.21-2.43-.03,1.33-.06,2.66-.09,4-.06,2.83-.28,5.72.23,8.51v10.08c.19,0,.39-.01.58-.02-.03-2.39-.19-4.79-.22-7.18v-2.52c.11-1.44.25-2.87.18-4.31v-7.03c-.22.06-.48-.02-.65-.16.4-1.33.42-2.76.09-4.11,0-.37.02-.74.02-1.1v-13.14c-.19-.02-.38-.04-.57-.06.52-3.48.7-7.01.57-10.53v-12.7l1.3-3.68v.38c.41,2.71.65,5.44.68,8.18v14.19c-.28.05-.46.46-.27.68v.68c-.05.64.21,1.25.36,1.88.15.62.17,1.26.19,1.9.07,2.19.06,4.4.13,6.59v16.83c.6,0,.92.7.98,1.3.07.6.04,1.27.46,1.71.13.03.22-.15.19-.28-.04-.13-.15-.22-.22-.34-.13-.19-.14-.44-.16-.67-.04-.64-.14-7.8-.22-12.22.1-.02.19-.04.29-.06.71-3.77.82-7.64.46-11.46v-8.24c-.35.06-.72,0-1.04-.15.06-2.63.12-5.27.18-7.9.03-1.44.14-2.89-.1-4.31v-5.32c-.16-.11-.2-.26-.2-.46-.11-2.21-.23-4.42-.34-6.64l-.03-.06,2.7-7.68v11.94c.52,0,1.1.01,1.49.36-.54,3.37-.75,6.78-.61,10.19v14.16c.64,0,.93-.62.92-1.26-.02-2.53-.02-5.07-.04-7.6v-5.3c.53-3.65.68-7.36.44-11.04v-1.4c-.94-1.45-1.62-3.09-1.33-4.79,0-1.83-.4-4.4-.39-6.66l4.65-13.21v7.94c-.05,7.22.55,14.44.5,21.65v49.93c-.33.77-.49,1.53-.45,2.36.5,11.48,1.01,43.33,1.51,54.81,1.48-3.37-.71-7.69,1.21-10.83-.11-.93-.14-1.87-.25-2.79v-36.86c-.79.28-1.2-1.01-1.13-1.84.24-2.56.38-22.19.62-24.75v-1.78c-1.2-.5-1.27-1.92-1.11-3.22,1.16-9.28,1.31-18.67.61-28v-3.08c.03-6.38-.03-12.76,0-19.14v-8.56c.01-.07.03-.16.04-.24l1.87-5.3c0,.22.01.44.02.66v3.86c.14-.15.32.16.32.36-.03,2.39.03,4.78,0,7.17v2.93c.23.58.22,1.23.15,1.85v1.39c-.05,1.49-.12,2.97-.06,4.46.02.47.04.95.06,1.42.03.66.05,1.32.2,1.96.33-.49.33-1.13.32-1.73-.03-1.27-.02-2.54-.05-3.81v-12.32c.43-.42.28-1.23.22-1.83-.16-1.55-.37-3.09-.53-4.64v-2.16l-.24-.72,1.4-3.97c.2.19.29.48.33.84,1.42,12.74.65,25.49,1.49,38.29,2.18,33.24,3.26,69.44,4.78,102.71v22.58s0,0,0,0c.39-.79,1.09-1.47,2.04,0,.73-.27.69-1.3.52-2.05-.46-2.04-.77-4.14-1.23-6.17v-5.5c-.18-1.13-.35.67-.44,2.18v-10.17c.96-3.82-.06-7.64-.55-11.55-.38-3.05-.52-6.22.11-9.23v-46.32c-.6-4.42-1.17-1.48-1.77-5.9l-.51-3.09c-.17-3.09.68-2.98.51-6.07l-1.9-20.09c0-1.71.35-4.97-.25-6.57-.15-.41,1.53-2.32,1.52-2.78-.1-3.09-1.03-2.16-1.14-5.24v-2.93c0-1.69-.49-3.31-1.06-4.9-.18-.5-.16-1.05.18-1.46v-14.22c.6,0,1.21.13,1.77-.08v-4.29c0-1.85-.45-5.33-.57-8.87l3.69-10.48v3.24c.35,5.02.16,10.07.49,15.09.01.21.02.42.02.64v25.25s.01.06.02.1c0,.11-.01.21-.02.33v58.17c-.02,1.89.08,3.77.11,5.66.09,6.39.68,3.07,1.77,9.37.52.2.82-.59.82-1.15-.06-6.15-.07-2.59-.13-8.74v-10.29c-.54-10.61-1.14-21.22-1.03-31.84,0-6.81.28-6.16.55-12.96.27-6.73.55,10.99.82,4.26.17-4.19-.26-8.1-.29-12.24-.04-7.87.38-15.8-1.03-23.59-.02-.1-.03-.18-.05-.26.29-4.55.18-9.12,0-13.68v-13.18l1.32-3.75c.15,2.23.2,4.46.06,6.68v11.86c-.13,5.26.26,10.54.78,15.78.08-.12.18-.23.3-.33-.2-1.96-.34-3.95-.18-5.92v-2.7c-.06-2.52-.13-5.03-.18-7.55v-6.65c-.09-2.94-.24-5.87-.18-8.81v-4.07l1.07-3.03c.1.65.33,1.27.78,1.85v20.9c-.07,6.77.04,13.62,1.19,20.29v7.16c.56,10.34.64,20.7,1.19,31.04v5.97c-.26,4.77-.33,9.56-.6,14.33v8.38c2.24,13.92-2.02,27.92.6,41.77,0,21.77-.49,43.34-1.43,64.97-.27,6.35-.55,12.72-.3,19.07.12,2.98.44,12.91,1.72,15.07v99.71c-.64.19-.78.71-.89,1.36-1.3,7.42-1.09,15.11.61,22.45.6.09,1.21.18,1.81.28-.29-2.66-.65-5.32-.93-7.98v-21.53c.45.6,1.17-.58,1.12-1.33-.24-3.52-.29-7.06-.52-10.57v-37.63c.87.64,1.94-1.14,1.89-2.23-.35-6.41-.34-12.84-.69-19.25v-33.43c-.25-2.78-.34-5.58-.6-8.36v-6.09c-.42.61-1.28-.52-1.27-1.26.03-3.33.15-6.68.68-9.97v-72.24c.13-6.57.47-13.13.6-19.7v-56.73c-.41-1.82-1.42-3.41-1.83-5.23-.68-3.02-1.32-6.31.04-9.09v-32.84c.35-3.22-.2-6.47-1.19-9.55v-13.13c-.07-.52-.14-1.04-.18-1.56l2.97-8.43v16.08c-.37,7.06.12,14.19.9,21.22.05.42.07.84.07,1.27v-1.67c.04,1.29.02,2.46.07,3.74.18,5.23.24,10.46.42,15.69v5.83c-.28.47.39,1.15.87.89.62-4.31.76-8.74.1-13.04ZM23.29,145.14c.11-.64.2-1.68.2-2.33v-1.5s.09-.01.14-.02v7.01c-.21.06-.44.03-.64-.08.67-2-.28.15.3-3.08ZM44.58,85.2c.2.52.35.31.46-.17,0,.16-.01.32-.02.51-.13,3.15-.28,1.71-.43-.34Z"/>
      </g>
      <polygon class="cls-1" points="10.21 132.52 55.75 3.12 47.22 .12 1.65 129.5 10.21 132.52"/>
    </g>
  </g>
</svg>