<?xml version="1.0" encoding="UTF-8"?>
<svg id="Layer_2" data-name="Layer 2" xmlns="http://www.w3.org/2000/svg" viewBox="0 0 72.906 442.007">
  <g id="Layer_1-2" data-name="Layer 1">
    <g>
      <path d="M33.399,431.034l-.028-.01-.027-.031-.391-.25-.008-.01c-.067-.031-.132-.062-.206-.084-.856-.278-1.762.219-2.035,1.09-.273.872.206,1.802,1.062,2.08.074.023.14.036.216.058l5.253.213c.116.135.226.271.343.406l-4.381,2.361-.028.008-.029.008-.03.011-.456.243-.01.009c-.266.212-.458.486-.567.832-.273.871.205,1.801,1.071,2.069.65.211,1.325-.013,1.734-.51l.225-.361,2.756-4.418c.101.072.224.106.35.101l-.226,5.676c.034.342.173.677.419.949.611.674,1.637.717,2.3.095.494-.465.648-1.169.434-1.787l-.158-.317-.037-.041-2.379-4.647c.059-.036.108-.063.156-.109.051-.047.08-.095.12-.151l4.319,2.785.352.227.011.011c.317.148.678.183,1.044.101.884-.197,1.432-1.086,1.229-1.977-.154-.695-.715-1.194-1.378-1.278l-.285-.012-5.192-.211c.015-.126-.009-.254-.071-.363l4.516-2.434.076-.037.263-.135.029-.008.019-.019c.059-.037.109-.083.167-.139.663-.623.696-1.679.094-2.344-.611-.674-1.647-.726-2.311-.103-.049.046-.098.093-.129.14l-.019.019-.225.378-2.735,4.4c-.047-.033-.099-.056-.152-.073-.065-.074-.125-.149-.19-.223l.207-5.229v-.223c-.017-.078-.023-.147-.039-.225-.193-.9-1.067-1.46-1.941-1.253-.875.207-1.433,1.086-1.24,1.987.016.078.041.147.067.216l.194.376,1.466,2.834C5.319,394.129.182,347.413,1.541,314.559c1.451-35.084,10.379-62.113,11.068-64.152l.005.002L59.051,119.101c6.018-15.859,10.616-33.867,12.617-49.42,2.566-19.938,1.139-35.622-4.24-46.618-2.753-5.628-6.545-9.932-11.316-12.873.112-.341.21-.689.276-1.053.764-4.198-1.96-8.231-6.081-9.006-4.121-.776-8.082,1.999-8.846,6.196-.762,4.198,1.962,8.231,6.082,9.006,3.297.621,6.486-1.034,8.022-3.869,4.482,2.808,8.055,6.889,10.657,12.211,5.184,10.595,6.606,26.443,4.11,45.83-1.982,15.412-6.536,33.257-12.495,48.99l-7.274-2.666L4.108,247.291l7.234,2.652c-.681,2.01-9.679,29.214-11.145,64.518-1.377,33.169,3.822,80.364,35.926,118.318l-2.724-1.745Z"/>
      <polygon points="13.269 248.584 58.809 119.193 50.419 116.237 4.711 245.57 13.269 248.584" fill="#1ca300"/>
    </g>
  </g>
</svg>