<?xml version="1.0" encoding="UTF-8"?>
<svg id="Layer_2" data-name="Layer 2" xmlns="http://www.w3.org/2000/svg" viewBox="0 0 259.632 516.738">
  <g id="Layer_1-2" data-name="Layer 1">
    <g>
      <path d="M259.524,166.976c-18.15-15.879-23.046-40.516-28.423-62.885-2.697-11.224-5.562-22.493-10.311-33.055-4.511-10.028-10.544-19.351-17.716-27.678-14.387-16.703-33.307-29.477-54.126-36.709C138.567,3.044,127.695.812,116.714.205c-11.766-.651-24.46.096-35.501,4.5-5.677,2.264-10.942,5.695-14.725,10.552-3.808,4.89-5.82,10.936-6.855,16.987-.906,5.298-.421,10.779,2.77,15.259,2.974,4.172,7.83,7.208,12.984,7.611,2.513.198,4.946-.301,7.194-1.428.714-.358,1.01-2.575,1.187-3.271.086-.34.43-3.399.517-3.442-9.472,4.749-21.102-2.863-22.937-12.701-.255-1.374-.375-2.784-.318-4.182.017-.406.06-.805.089-1.209.002-.035.044-.261.075-.438l.073-.203c.247-.475.417-.999.648-1.484,1.244-2.613,2.957-5.016,4.942-7.116,4.37-4.624,10.223-7.607,16.237-9.487,10.72-3.352,22.5-3.917,33.649-3.125,10.488.745,20.858,2.957,30.777,6.431,19.979,6.996,38.206,19.091,52.325,34.873,7.005,7.831,12.997,16.578,17.638,26.01,4.974,10.114,8.055,20.961,10.75,31.867,5.136,20.779,8.905,43.772,22.989,60.72-37.624.927-73.478,17.342-102.18,41.294-31.861,26.589-53.903,57.865-70.039,95.725-6.846,16.064-20.798,42.768-25.007,55.89l-.053-.018L0,513.631l8.854,3.108,53.977-153.798c3.78-10.77,21.735-64.773,41.31-98.789,20.011-34.777,52.279-61.949,89.426-77.915,20.248-8.704,42.177-13.355,64.252-12.546.594.022,2.247-6.239,1.705-6.714"/>
      <polygon points="8.667 516.611 54.155 387.201 45.628 384.201 .107 513.599 8.667 516.611" fill="#1ca300"/>
    </g>
  </g>
</svg>