<?xml version="1.0" encoding="UTF-8"?>
<svg id="Layer_2" data-name="Layer 2" xmlns="http://www.w3.org/2000/svg" viewBox="0 0 184.137 271.158">
  <g id="Layer_1-2" data-name="Layer 1">
    <g>
      <path d="M6.547,251.004c1.773.904,3.087,2.481,4.423,3.957,5.991,6.62,13.782,12.087,22.634,13.257,8.851,1.171,18.716-2.833,22.558-10.893,2.204-4.622,2.272-9.945,2.124-15.063-.148-5.119-.452-10.365,1.108-15.243,1.56-4.877,5.485-9.388,10.575-9.953-2.57,4.16-5.162,8.368-6.696,13.01-1.372,4.152-1.86,8.593-1.423,12.945.234,2.334,1.01,4.994,3.182,5.878,2.412.98,5.006-.794,6.932-2.546,6.536-5.945,12.145-12.906,16.565-20.556,1.055-1.826,1.949-3.753,2.594-5.763.548-1.708,1.991-5.506.316-6.996-.737-.656-1.893-.487-2.8-.098-2.257.965-3.981,3.088-4.462,5.494-.397-1.715.557-3.455,1.695-4.798,2.48-2.927,5.924-4.871,8.634-7.586,2.027-2.03,3.617-4.489,4.656-7.162.474-1.22.847-2.456,1.339-3.65.436-1.061.422-2.36,1.168-3.287,1.485-4.203,2.969-8.407,4.454-12.61,1.839-5.207,3.678-10.413,5.517-15.62.86-2.434,1.72-4.868,2.58-7.303.711-2.013,1.732-4.588,3.375-6.017.44-.384.941-.712,1.281-1.187.34-.474.475-1.164.123-1.63-.302-.399-.876-.51-1.364-.396-.487.114-.91.41-1.315.703-1.279.925-2.54,1.892-3.597,3.066-1.238,1.374-2.27,3.122-2.31,5.012-.025,1.161.209,3.395-1.497,3.461-1.938.075-.921-2.491-.451-3.295,3.46-5.928,9.11-10.629,10.659-17.542.541-2.415.693-4.9.751-7.373.052-2.187-.054-4.602-1.545-6.201,1.274,1.229,1.839,2.958,2.811,4.401.601.893.833.89,1.412.094.526-.724.953-1.463,1.334-2.274,2.568-5.469,4.544-11.05,6.556-16.747,1.878-5.317,3.756-10.635,5.635-15.952,1.542-4.368,3.086-8.736,4.628-13.104,2.256-6.386,5.077-12.176,4.792-19.052-.092-2.222-.207-4.478-.929-6.581-1.87-5.446-8.093-8.963-13.746-7.866-5.653,1.097-10.086,6.585-10.084,12.343-1.727-4.404-.2-9.389,1.814-13.669,2.015-4.28,4.565-8.49,4.949-13.204.326-4.008-.96-7.965-2.446-11.702-2.532-6.368-6.305-13.039-12.795-15.246-5.662-1.926-11.81.077-17.543,1.78-1.673.497-3.716.888-4.972-.325-1.779-1.718-.158-4.819,1.955-6.104,2.648-1.612,5.887-1.984,8.978-1.747,10.838.83,20.039,8.553,26.281,17.453,6.241,8.9,10.265,19.149,15.842,28.479,2.128,3.559,4.528,7.035,7.745,9.651,1.887,1.534,4.032,2.749,6.319,3.576,3.305,1.196,6.989,1.566,10.346.527,3.626-1.122,6.63-3.821,8.649-7.035,2.018-3.215,3.126-6.924,3.81-10.658.234-1.28.693-2.857,1.979-3.059,1.494-.234,2.395,1.643,2.475,3.153.268,5.124-2.932,9.881-6.918,13.112-3.985,3.232-8.759,5.307-13.185,7.903-7.599,4.457-14.904,14.848-13.771,24.073.072.58.212,1.215.686,1.556,1.013.728,2.268-.471,2.999-1.482.731-1.011,2.28-1.992,3.042-1.004.75.975-.515,2.187-1.509,2.912-5.029,3.668-6.108,10.64-6.374,16.86-.266,6.219-.325,13.004-4.27,17.819-.232.284-.488.566-.825.708-1.038.439-2.154-.777-2.094-1.902.06-1.125.835-2.063,1.544-2.939,1.198-1.485,2.339-3.126,2.604-5.016.265-1.889-.615-4.064-2.414-4.699-4.715-1.663-7.703,13.298-8.728,16.197-2.741,7.755-5.483,15.511-8.224,23.266-6.227,17.614-11.723,35.545-19.176,52.692-7.429,17.091-17.067,33.603-30.536,46.656-.62.602-1.248,1.195-1.883,1.78-4.613,4.253-9.609,8.084-14.911,11.441-.498.314-.998.626-1.502.934-5.157,3.152-10.633,5.926-16.531,7.25-13.079,2.936-26.996-1.676-37.772-9.649-1.48-1.095-2.957-2.304-3.788-3.946-.831-1.643-.851-3.829.417-5.163,1.371-1.442,3.77-1.41,5.544-.506"/>
      <polygon points="112.009 190.346 157.549 60.955 149.023 57.952 103.451 187.332 112.009 190.346" fill="#1ca300"/>
    </g>
  </g>
</svg>