<?xml version="1.0" encoding="UTF-8"?>
<svg id="Layer_2" data-name="Layer 2" xmlns="http://www.w3.org/2000/svg" viewBox="0 0 64.602 177.567">
  <g id="Layer_1-2" data-name="Layer 1">
    <g>
      <path d="M64.602,3.01l-8.545-3.01L10.586,129.193h0c-1.134,3.215-6.418,13.251-9.014,20.264-.321.795-.609,1.61-.835,2.456-.48,1.793-.737,3.69-.737,5.651,0,2.293.352,4.498.999,6.551,2.465,7.822,9.216,13.452,17.137,13.452,10,0,18.135-8.973,18.135-20.003,0-4.136-1.144-7.983-3.102-11.176h0s0,0,0,0c-3.007-5.409-13.221-16.673-4.169-42.308h0s0,0,0,0L64.602,3.01ZM22.989,154.57c0,4.994-3.622,9.057-8.073,9.057s-8.073-4.063-8.073-9.057,3.622-9.057,8.073-9.057,8.073,4.062,8.073,9.057ZM34.187,157.564c0,9.881-7.2,17.919-16.051,17.919s-16.051-8.039-16.051-17.919c0-4.953,1.809-9.443,4.729-12.69.103-.114.217-.215.322-.325,1.31-1.192,2.165-.199,1.695.392-1.095,1.379-2.2,3.215-2.937,5.074-.012.029-.022.059-.034.089-.181.465-.346.931-.474,1.391,0,0,0,0,0,0-.266.992-.402,2.026-.402,3.075,0,1.222.182,2.421.543,3.564.243.77.563,1.509.954,2.196,1.831,3.228,4.985,5.156,8.435,5.156,1.684,0,3.35-.474,4.815-1.369,3.157-1.93,5.118-5.587,5.118-9.546,0-2.179-.584-4.283-1.69-6.085-.409-.668-.877-1.275-1.395-1.818-.279-.293-.577-.559-.883-.812-2.008-1.796-2.678-1.915-6.144-3.07-1.227-.409-.687-2.744,2.563-3.091.279-.016.554-.047.836-.047,8.851,0,16.051,8.038,16.051,17.919Z"/>
      <polygon points="19.057 132.464 64.597 3.073 56.071 .069 10.498 129.449 19.057 132.464" fill="#1ca300"/>
    </g>
  </g>
</svg>