<?xml version="1.0" encoding="UTF-8"?>
<svg id="Layer_2" data-name="Layer 2" xmlns="http://www.w3.org/2000/svg" viewBox="0 0 146.123 255.151">
  <g id="Layer_1-2" data-name="Layer 1">
    <g>
      <g>
        <path d="M74.358,57.819l.006.005-74.364.03v9.138h69.943s.008,0,.013,0c8.516,0-35.122,40.481-35.122,40.481,0,0,42.434-39.141,42.434-31.869,0,.009,0,.015,0,.024l.028,120.152h9.138V66.992h0c.008-6.466,59.687-66.992,59.687-66.992,0,0-57.22,57.819-71.765,57.819Z"/>
        <path d="M86.436,195.78l50.576,59.371s-50.576-63.216-50.576-78.271v18.9Z"/>
      </g>
      <g>
        <polygon points="77.272 57.853 77.307 195.522 86.379 195.522 86.379 57.853 77.272 57.853" fill="#f0f"/>
        <polygon points="86.379 57.876 0 57.911 0 66.983 86.379 66.983 86.379 57.876" fill="#f0f"/>
      </g>
    </g>
  </g>
</svg>