<?xml version="1.0" encoding="UTF-8"?>
<svg id="Layer_2" data-name="Layer 2" xmlns="http://www.w3.org/2000/svg" viewBox="0 0 94.66 401.85">
  <defs>
    <style>
      .cls-1 {
        fill: none;
      }

      .cls-2 {
        fill: #f0f;
      }
    </style>
  </defs>
  <g id="Layer_1-2" data-name="Layer 1">
    <g>
      <g>
        <path class="cls-1" d="M58.1,88.12c.04-.07.07-.14.11-.2,0-3.56-.02-8-.06-8.91h-.04c0,.06,0,.14-.01.24v8.87Z"/>
        <path class="cls-1" d="M18.49,61.92v-6.74s-.09.02-.13.02v1.45c0,.62-.08,1.63-.19,2.24-.56,3.1.35,1.04-.29,2.96.19.1.41.13.61.07Z"/>
        <path d="M94.38.37v-.18h-9.04v.03l-77.05.02v14.98c.15-1.03.88-4.35.86-4.56.22-.14.42.21.46.47.25,1.97.38,3.96.63,5.93v6.44c-.01,2.14,0,4.28,0,6.42v2.81c-.37,2.22-.09,4.54.56,6.7v28.79c.54,1.3.58,2.81.54,4.21-.04,1.25-.32,2.5-.15,3.73.11.78.4,1.54.43,2.33.02.53-.08,1.06-.16,1.58-.29,1.94-.34,3.92-.14,5.87.23,2.28.99,4.94-.24,6.88v3.95c.29.22.76-.02.95-.33s.19-.7.19-1.06c0-2.34,0-4.69-.02-7.03v-13.99c.46,0,.56-.6.58-1.06.12-2.63-.01-5.31-.58-7.88v-2.52c-.38-2.6-.92-5.21-.84-7.83v-12.58c.27-2.71.31-5.45-.28-8.1v-2.53c.09-2.88-.09-5.77,0-8.65v-12.58c0-.66.32-1.09.79-1.37h3.87c.49.21.81.47.79.74v6.3c.4,2.61.62,5.23.66,7.87v13.64c-.27.05-.44.45-.26.65v.66c-.04.62.2,1.2.35,1.81.14.6.16,1.22.19,1.83.07,2.11.05,4.23.12,6.33v16.18c.58,0,.88.67.94,1.25.06.58.04,1.22.44,1.65.13.03.22-.14.18-.27-.04-.12-.14-.21-.21-.32-.12-.19-.14-.42-.15-.64-.04-.61-.14-7.5-.21-11.75.09-.02.18-.04.28-.06.68-3.63.79-7.34.44-11.02v-7.92c-.34.06-.69,0-1-.14.06-2.53.12-5.07.18-7.6.03-1.38.14-2.78-.09-4.14v-5.12c-.15-.11-.19-.25-.2-.44-.11-2.13-.22-4.25-.33-6.38,0-.93.41-2.42,1.09-3.1h1.56c.21.18.42.44.64.78.46.73.54,1.62.61,2.48.24,2.91.6,5.82.84,8.73v13.72c.18,5.07.93,10.13,1.11,15.2v6.69c.27,2.59.54,5.18.37,7.78v25.96c.08,3,.46,5.99.54,8.98.05,1.74.09,3.48.14,5.22.16,6.16.32,12.33.81,18.47.36,4.56.88,9.11.74,13.68v30.04c-.52,2.67-.46,5.47,0,8.16v2.62c.32,0,.46.5.34.8s-.39.51-.59.77c-.45.62-.43,1.45-.38,2.22.25,4.06.63,8.11,1.14,12.15,1.93-1.57,1.51-4.63.97-7.06v-1.89c-.12-.11-.25-.22-.37-.33v-51.55c-.41-.9-.7-1.89-.75-2.87-.06-1.13.12-2.27.22-3.4.2-2.23.19-4.5-.21-6.71v-8.93c-1.26-2.4-1.68-5.39-.37-7.76v-1.53c.62-1.47.62-3.31,0-4.77v-4.15c-.75-1.08-1.22-2.42-.74-3.64v-4.1c-.72-.63-1.1-1.69-.74-2.58v-19.65c.61-3.18.54-6.45,0-9.64v-28.29c-.41.19-.63-.44-.65-.89-.12-3.43-.24-6.86-.36-10.29-.04-1.13-.06-2.34.53-3.31,1.08-1.8,5.4-.69,5.4,1.4,0,2.8-.33,5.52.49,8.18.31,1.02.37,2.11.42,3.17.38,8.19.55,16.3.55,24.49,1.4,8.09,1.94,23.43,1.36,31.63.78-1.42,1.13-3.06,1.06-4.67v-20.18c-.85-1.97-1.18-4.16-.97-6.3v-10.66c-.28-1.83-.82-3.7-.77-5.56.05-2.39.11-4.77.16-7.16.03-1.49.4-2.89.49-4.36.05-.78.11-1.53-.05-2.31-.11-.56-.8-1.45-.8-1.93v-4.85c0-2.24,2.95-2.36,3,.19.25,12.64.5,25.28.75,37.92.17-1.93.18-3.88.34-5.82v-4.8c.17-1.91-.12-3.9-.27-5.8-.17-2.08.07-4.16.28-6.23.23-2.41-.21-4.73-.4-7.15v-3c-.1-1.53-.26-3.06-.2-4.59.04-1.06.47-2.22.9-2.74h.71c.12.27.2.76.19,1.54v4.8c.34,2.83,1.16,5.6.6,8.39v1c.24,2.32.22,4.66.2,6.99v4.79c.16-.87.37-1.71.46-2.6.09-.9.1-1.8.11-2.71.02-1.63,0-3.26.03-4.89v-5.2c-.17-2.67-.39-5.35-.8-7.99v-4.14h5.42c.07.07.13.14.16.22.58,1.66.81,3.44.64,5.19v14.54c-.04,6.94.53,13.88.48,20.82v48c-.32.74-.47,1.47-.44,2.27.48,11.04.97,41.66,1.45,52.7,1.43-3.24-.69-7.39,1.16-10.41-.11-.89-.13-1.79-.24-2.68v-35.45c-.76.27-1.16-.97-1.08-1.77.23-2.46.37-21.34.6-23.8v-1.71c-1.16-.48-1.23-1.85-1.07-3.09,1.12-8.92,1.26-17.95.58-26.92v-2.96c.03-6.14-.03-12.27,0-18.41v-8.23c.36-1.91.31-6.44,1.98-7.66.26.26.68.33,1.01.18.39.17.46.68.48,1.1.05,1.05.07,2.1.12,3.15v3.71c.13-.15.31.15.3.35-.03,2.3.03,4.6,0,6.89v2.81c.22.56.21,1.18.15,1.78v1.34c-.05,1.43-.12,2.85-.06,4.29.02.46.04.91.05,1.37.02.63.05,1.27.19,1.89.32-.48.32-1.09.31-1.66-.02-1.22-.02-2.44-.05-3.67v-11.85c.41-.41.27-1.19.21-1.76-.16-1.49-.35-2.97-.51-4.46v-2.07c-.14-.84-.02-1.72.3-2.52v-1.04c0-.19.03-.35.08-.49h3.01c.84.45,1.58,1.04,1.78,1.42,1.26,2.37,1.97,5.02,2.07,7.7v28.62c-.09.03-.07,6.12,0,10.51v23.71c.48,0,.94.12,1.41.22-1.33,5.41-1.48,11.06-.68,16.57v187.28c.56,0,1.14-.07,1.63-.36-.32-2.68-.57-120.82-.9-123.51v-69.26c.07,1.44.1-1.04.11-4.24-.04.07-.07.14-.11.2v-8.87c0-.1,0-.18.01-.24h-.01c-.02-.47-.04-.94-.06-1.42-.16-.07-.32-.02-.45.09.19-1.99.26-3.99.14-5.98v-14.72c.35-2.83.35-5.7,0-8.52v-.89s-.08.04-.12.05c-.07-.5-.15-1.01-.25-1.5v-8.41c.65-2.02,1.14-4.12.73-6.2v-2.92c-.14-1.34-.23-2.68-.37-4.02v-11.33c-.2.08-.22-.21-.16-.41.32-1.18,3.77-4.83,4.06-2.25.38,3.4.61,6.85.39,10.26v11.41c-.12,5.06.25,10.13.75,15.17.08-.12.18-.23.28-.32-.19-1.89-.33-3.8-.17-5.69v-2.59c-.05-2.42-.12-4.84-.17-7.26v-6.4c-.09-2.82-.23-5.64-.17-8.47v-4.84c0-.9.17-1.93,1.02-2.19.14.15.18.32.18.53,0,.78,0,1.57,0,2.35v8.47c-.05,1.45-.07,2.93.13,4.36.1.72.23,1.44.31,2.17.1,1.02.09,2.04.08,3.06-.01,1.53-.16,3.05-.18,4.58v17.46c.12,0,.23.01.35.04v3.41c.08-.78.15-1.56.2-2.34-.03,1.28-.05,2.56-.08,3.84-.06,2.72-.27,5.5.22,8.18v9.69c.19,0,.37-.01.56-.02-.03-2.3-.18-4.6-.21-6.9v-2.43c.11-1.38.24-2.76.17-4.14v-6.76c-.21.05-.46-.01-.63-.16.38-1.28.4-2.65.09-3.95,0-.35.02-.71.02-1.06v-12.63c-.18-.02-.36-.04-.54-.06.5-3.35.68-6.74.54-10.12v-14.86c0-.97.1-2.36.82-3.14h2.95c.85.68,1.43,1.83,1.36,2.79v15.76c.5,0,1.05.01,1.44.34-.52,3.24-.72,6.52-.59,9.8v13.62c.61,0,.89-.59.89-1.21-.02-2.44-.02-4.88-.04-7.31v-5.1c.51-3.51.66-7.08.42-10.62v-1.34c-.9-1.39-1.56-2.97-1.27-4.6,0-2.61-.87-6.82,0-9.24.42-1.17,1.27-2.02,2.37-2.56.19-.09.46-.21.76-.33h3.62c.31.4.5.91.53,1.41v2.45c.19.2.22.41.23.69.01,2.09.22,4.18.47,6.26v9.86c.17,0,.26.19.25.36-.08,2.54-.15,5.08-.23,7.62.18.06.36.1.55.13-.05-.3-.06-.62.01-.92v-5.1c.01-1.04-.01-2.09,0-3.13v-2.56c0-.49-.07-.98-.06-1.48,0-2.02.11-4.05-.17-6.05v-3.48c-.2-1.91-.27-3.84.58-5.57v-.48h2.07c.18.14.3.37.31.74.03.77.04,1.54-.07,2.29v2.78c.13,2.26.12,4.53.25,6.79.02.42.17.79.22,1.2v-2.32c.18-.14.13-.46.11-.69-.07-1.17-.27-2.32-.34-3.49v-2.45c.12.09.21-.12.22-.27.07-.98.14-1.96.21-2.94.04-.6.54-2.15,1.26-.99.23.36.22.83.26,1.24.04.49.1,1.18.14,1.67v4.3c.03.74-.07,1.47,0,2.21.14,1.35.21,2.7.35,4.05v4.41c-.06,1.04-.18,2.09-.23,3.13v6.99c.22,0,.44-.01.64.06-.02-.19-.03-.37-.06-.56v-3.02c-.1.11-.23-.12-.24-.27,0-1.49.1-2.99.12-4.48v-2.2c.09-2.24.14-4.48.23-6.73v-3.96c-.12-.01-.24-.02-.36-.03.06-2.03.06-4.07.01-6.1v-.93c0-.21.21-.37.54-.48h.02l.03,107.11c-.09,0-.17,0-.25-.04v16.57c-.21,7.27,0,14.58.79,21.81v29.69c-.55,2.29-.8,4.64-.72,6.98.55.23,1.21-.15,1.49-.68.28-.53.29-1.15.29-1.75,0-4.62,0-9.24,0-13.87,0-.36-.23-.88-.52-.67v-37.53h.99c.06,8.76.12,17.53.12,26.29v7.16c0,6.77-.95,14.13.34,20.77,1.03,5.28-.85,11.91-.99,17.32-.2,7.98.87,15.84.99,23.78.12,7.69,0,15.39,0,23.09v18.15c0,2.26.49,5.14,0,7.36-.86,3.92-1.54,7.85-1.85,11.85-.07.87.05,2,.89,2.25.24-1.43.2-3.24,1.5-4.18.49-.35,1.13-.6,1.33-1.17.16-.47-.04-.97-.22-1.43-1.85-4.77-.95-11.39-.95-16.53v-134.72h1.54v.39c-.64,4.31-1.43,8.57-1.53,12.83-.2,8.81,1.99,18.17,2.49,27.02,1.56,27.67-1.13,55.19-.72,82.82.23,15.74.92,31.48,1.12,47.22.19,15.38-1.3,30.69-1.3,45.98,0,2.8.03,5.6,0,8.4-.05,3.96-.06,7.92-.11,11.88,0,.55.47,1.4.89,1.04v16.88c-.33,3.52.07,7.1,1.01,10.51.14-.33.03-.76.16-1.1v-22.35c.15-6.18.41-12.36.55-18.54.09-3.71.18-180,.26-183.71.07-2.91.14-5.83.51-8.72.13-1,.24-1.73-.54-2.37v-24.71c.27-1.14.12-2.3-.12-3.46h1.58V6.26c.17-2,.28-4.01.28-6.04,0,.05-.1.1-.28.15ZM18.16,58.88c.11-.61.19-1.62.19-2.24v-1.45s.09-.01.13-.02v6.74c-.2.06-.43.03-.61-.07.64-1.92-.27.14.29-2.96Z"/>
        <path d="M85.12,39.62c.02-.42.01-.84-.02-1.25-.12.41-.12.85.02,1.25Z"/>
        <path d="M58.22,87.92c.98-1.71,1.53-3.73.98-5.62v-1.86c-.66.07-1.2-.96-.73-1.42h-.32c.05.91.07,5.35.06,8.91Z"/>
        <path d="M85.2,38.07s-.09-.05-.14-.07c.01.12.03.24.04.36.03-.1.06-.2.1-.3Z"/>
        <path d="M58.11,79.01h.04c-.01-.22-.02-.24-.04,0Z"/>
        <path d="M.34,188.99c-.43.87-.47,1.88,0,0H.34Z"/>
      </g>
      <g>
        <polygon class="cls-2" points="85.55 0 85.59 137.67 94.66 137.67 94.66 0 85.55 0"/>
        <polygon class="cls-2" points="94.66 .02 8.28 .06 8.28 9.13 94.66 9.13 94.66 .02"/>
      </g>
    </g>
  </g>
</svg>