<?xml version="1.0" encoding="UTF-8"?>
<svg id="Layer_2" data-name="Layer 2" xmlns="http://www.w3.org/2000/svg" viewBox="0 0 362.558 560.111">
  <g id="Layer_1-2" data-name="Layer 1">
    <g>
      <g>
        <path d="M149.527,543.381h-15.756V178.517c3.314,44.806,12.703,84.807,28.036,119.292,16.089,36.186,38.828,66.615,67.585,90.441,48.419,40.115,100.71,51.141,123.344,54.127l-3.316.559-.414.07c-.07.021-.138.042-.211.076-.825.39-1.177,1.38-.808,2.218.369.839,1.339,1.211,2.165.822.071-.035.129-.07.2-.105l.176-.136,3.917-3.287c.165.02.339.042.5.061l-1.789,4.883-.161.413-.003.027c-.018.054-.026.123-.031.191-.087.919.583,1.733,1.485,1.821.888.087,1.699-.581,1.786-1.499.008-.082.014-.15.008-.221l.003-.028-.011-.029-.054-.296-.018-.085-.83-5.161c.124-.015.238-.074.329-.161l3.321,4.104.182.226c.47.49,1.202.644,1.843.347.824-.376,1.189-1.364.807-2.204-.157-.347-.404-.62-.713-.789h-.014s-.394-.151-.394-.151l-4.814-1.829c.019-.067.039-.12.046-.19.007-.068-.003-.125-.009-.194l5.099-.883.053.005.346-.063c.616-.201,1.076-.754,1.141-1.439.087-.919-.57-1.729-1.472-1.818-.362-.036-.711.054-1,.234l-4.324,3.631c-.073-.105-.174-.183-.292-.224l1.799-4.93.147-.403c.142-.634-.092-1.322-.652-1.724-.737-.542-1.758-.367-2.278.385-.204.299-.304.622-.309.967v.013s.084.519.084.519l.01.031.012.029.011.028.813,5.05c-.04.005-.079.021-.118.035-.118-.015-.244-.031-.363-.046l-3.413-4.219c-.063-.049-.113-.095-.177-.142-.738-.529-1.76-.354-2.28.398-.52.752-.359,1.792.378,2.321.064.048.128.082.192.117h.014s.433.168.433.168l.041.004.024.016,2.838,1.089c-22.632-3.015-74.435-14.04-122.422-53.797-28.594-23.691-51.205-53.951-67.207-89.942-19.421-43.68-29.268-96.272-29.268-156.318h-.676V0h-9.153v.003L46.68.036v9.287h77.264l.032,131.599h8.442v402.459h-15.755l16.432,16.73,16.432-16.73Z"/>
        <polygon points="0 303.184 4.367 307.208 16.09 306.708 12.008 302.919 11.789 302.682 0 303.184"/>
        <path d="M123.3,140.922c0,1.43-.008,2.889-.014,4.34-.477,80.237-14.752,154.444-108.01,161.556l.094,1.283-10.946.467-4.028,4.238,11.755-.5c1.168-1.545,2.474-2.956,3.923-4.174,43.79-3.511,73.315-21.868,90.239-56.122,5.75-11.637,12.068-28.266,15.585-57.893-3.387,62.352-13.802,131.774-40.42,178.956-11.556,20.482-23.837,32.157-32.643,37.972-1.231-.163-3.55-.511-5.975-1.097-5.608-1.355-7.987,1.32-7.987,1.32-2.722,2.191-2.624,5.056-1.011,7.135,1.613,2.079,5.25,1.422,5.25,1.422,0,0-1.569,3.322.044,5.4,1.613,2.079,4.328,2.838,7.049.648,0,0,3.106-1.741,3.107-7.611,0-2.505.198-4.851.327-6.121,8.15-5.307,20.478-16.237,32.896-38.179,34.811-61.511,42.119-160.679,42.119-233.038h-1.353Z"/>
      </g>
      <g>
        <polygon points="123.952 .128 123.987 137.797 133.059 137.797 133.059 .128 123.952 .128" fill="#f0f"/>
        <polygon points="133.059 .152 46.68 .186 46.68 9.259 133.059 9.259 133.059 .152" fill="#f0f"/>
      </g>
    </g>
  </g>
</svg>