<?xml version="1.0" encoding="UTF-8"?>
<svg id="Layer_2" data-name="Layer 2" xmlns="http://www.w3.org/2000/svg" viewBox="0 0 298.733 332.305">
  <g id="Layer_1-2" data-name="Layer 1">
    <g>
      <path d="M263.877,239.803c-22.144,34.404-52.208,63.802-92.092,78.136-15.164,5.45-34.919,9.662-50.357,3.1-13.995-5.95-22.125-19.738-27.661-33.219-21.625-52.646-10.14-113.589,22.342-159.141,1.117-1.567,4.033-7.84,3.702-7.376-18.76,26.308-33.369,56.072-39.103,87.848v-109.96c46.596-3.007,37.886-45.243,59.427-68.047,12.805-13.555,31.078-25.646,50.585-23.18,8.106,1.024,16.339,4.458,21.271,11.243,7.683,10.573,4.304,22.3-9.775,22.599-1.266.027-2.356,3.439-3.268,5.893-.453.82-.908,1.639-1.362,2.459,35.882-.519,69.542,17.375,86.074,49.86,23.078,45.351,5.688,100.213-19.783,139.785M212.814,42.218c4.626-5.125,7.734-11.967,8.025-18.236,1.223-26.341-34.159-27.574-51.03-19.825-17.128,7.868-30.553,22.612-40.166,38.533-3.443,5.702-6.414,11.617-9.072,17.72-8.222,18.879-18.987,29.028-39.863,29.657h-9.2v.026l-71.273.033v9.164h71.026l.251.003.032,129.837h6.802c-.093,1.628-.203,3.252-.244,4.888-1.024,39.9,12.31,102.605,63.296,98.052,49.404-4.412,89.555-36.977,115.626-75.51,21.765-32.17,39.655-76.044,41.592-115.893,2.526-51.97-35.737-93.873-85.8-98.449"/>
      <g>
        <polygon points="71.989 90.153 72.021 227.822 80.473 227.822 80.473 90.153 71.989 90.153" fill="#f0f"/>
        <polygon points="80.473 90.177 0 90.211 0 99.283 80.473 99.283 80.473 90.177" fill="#f0f"/>
      </g>
    </g>
  </g>
</svg>