<?xml version="1.0" encoding="UTF-8"?>
<svg id="Layer_2" data-name="Layer 2" xmlns="http://www.w3.org/2000/svg" viewBox="0 0 234.685 215.405">
  <g id="Layer_1-2" data-name="Layer 1">
    <g>
      <path d="M234.168,38.492c1.235-2.282.09-5.48-1.661-7.594-3.293-3.976-8.263-6.266-13.318-7.316-5.055-1.051-10.265-.984-15.428-1.003-1.034-.004-2.098-.018-3.052-.416-4.499-1.879,1.5-5.227,2.747-7.025.383-.554.546-1.326.192-1.898-.919-.298-1.936.201-2.572.927-2.087,2.387-5.266,12.67-10.479,7.867-1.669-1.537-1.053-4.344.186-6.245,2.249-3.45,5.951-5.662,9.667-7.435,3.717-1.772,7.63-3.256,10.897-5.763.596-.457,1.228-1.204.878-1.868-.211-.401-.698-.563-1.145-.636-1.871-.31-3.781.263-5.502,1.061-6.585,3.053-11.107,9.164-15.943,14.577-6.352,7.109-13.684,13.339-21.715,18.477-8.197,5.246-17.111,9.115-25.443,14.18-4.32,2.626-8.585,5.339-12.87,8.022-6.499,4.069-13.093,7.885-19.805,11.584-6.272,3.457-13.881,5.023-20.891,6.32-5.846,1.082-18.011,5.312-18.943-3.9-.285-2.817.472-5.67.125-8.479-.67,5.381-3.884,10.546-8.571,13.329-5.067,3.007-11.628,1.915-17.289,1.917-20.794.005-32.994.021-44.235.024v9.111h77.254l.033,129.097h9.111v-70.079c0-7.05-.242-14.108.175-21.151.402-6.787.633-13.802,2.143-20.461.98-4.322,2.64-8.557,5.388-12.033,1.19-1.507,2.635-2.897,4.443-3.542,1.809-.644,4.035-.39,5.343,1.015,1.252,1.345,1.41,3.406,1.003,5.197-.406,1.792-1.288,3.435-1.894,5.169-.285.814-.434,1.888.267,2.389.6.429,1.499.104,1.93-.494.432-.598.517-1.372.571-2.107.231-3.145.158-6.313.546-9.443.981-7.91,5.74-14.756,11.129-20.369,6.064-6.315,14.261-11.407,23.35-11.155,5.131.143,10.348,2.409,13.288,6.616,1.746,2.5,2.608,5.507,3.21,8.497.663,3.296,1.025,6.677.855,10.04-.183,3.618-1.464,6.683-2.254,10.139-1.41,6.161-6.299,10.935-7.383,17.211-.208,1.204-.233,2.519.404,3.561.638,1.042,2.134,1.621,3.138.925,1.281-.887.872-2.831.484-4.34-.543-2.115-.748-4.393-.032-6.456.715-2.063,2.507-3.851,4.68-4.07,2.419-.244,4.619,1.415,6.219,3.247,4.826,5.525,7.579,13.949,7.662,21.226.051,4.407-1.369,9.041-4.732,11.889-1.165.987-2.522,1.73-3.685,2.721-1.163.991-2.159,2.332-2.224,3.858-.066,1.526,1.124,3.149,2.651,3.106,1.192-.034,2.139-.982,2.886-1.912,3.121-3.882,6.072-9.598,6.388-14.611.69-10.937-2.58-21.76-5.833-32.069-5.553-17.592-12.279-43.185,1.956-58.543,6.089-6.569,14.17-11.187,22.817-13.522,5.263-1.421,10.734-2.012,16.179-1.869,5.19.136,10.387.455,14.631,3.718,3.153,2.424,5.222,5.98,6.957,9.559.705,1.453,1.926,3.203,3.477,2.75.413-.12.767-.395,1.058-.713.232-.252.424-.524.578-.809"/>
      <g>
        <polygon points="77.272 77.164 77.307 214.833 86.379 214.833 86.379 77.164 77.272 77.164" fill="#f0f"/>
        <polygon points="86.379 77.187 0 77.222 0 86.294 86.379 86.294 86.379 77.187" fill="#f0f"/>
      </g>
    </g>
  </g>
</svg>