<?xml version="1.0" encoding="UTF-8"?>
<svg id="Layer_2" data-name="Layer 2" xmlns="http://www.w3.org/2000/svg" viewBox="0 0 91.625 137.459">
  <g id="Layer_1-2" data-name="Layer 1">
    <g>
      <path d="M82.533.026L4.528.057c-2.501,0-4.528,2.029-4.528,4.53v.005c0,2.497,2.032,4.529,4.53,4.529,41.283,0,27.853,4.006,28.088,25.825.171,15.888,11.72,28.816,26.125,28.816,3.977,0,7.75-.986,11.128-2.747,7.409-3.831,12.683-.29,12.683,26.015v.05l.012,45.849c0,2.501,2.028,4.529,4.53,4.529s4.53-2.028,4.53-4.529V0h-9.093v.026ZM58.743,60.76c-12.75,0-23.122-11.58-23.122-25.813s10.372-25.813,23.122-25.813,23.123,11.579,23.123,25.813-10.372,25.813-23.123,25.813Z"/>
      <g>
        <polygon points="82.488 .029 82.523 127.617 91.595 128.534 91.595 .029 82.488 .029" fill="#f0f"/>
        <polygon points="91.595 .052 5.216 .087 5.216 9.159 91.595 9.159 91.595 .052" fill="#f0f"/>
      </g>
    </g>
  </g>
</svg>