<?xml version="1.0" encoding="UTF-8"?>
<svg id="Layer_2" data-name="Layer 2" xmlns="http://www.w3.org/2000/svg" viewBox="0 0 141.845 161.358">
  <g id="Layer_1-2" data-name="Layer 1">
    <g>
      <path d="M73.562,121.726v-.002s0,.001,0,.002c.128,10.738,4.43,20.783,12.114,28.284,6.79,6.628,15.733,10.652,25.183,11.333l.632-8.776c-7.38-.53-14.365-3.675-19.668-8.852-6.002-5.86-9.363-13.707-9.463-22.094h0c-.011-7.105,17.779-3.029,17.779-3.029,0,0-17.368-4.142-15.548-9.023h0c1.513-3.78,3.771-7.261,6.701-10.262,12.097-12.392,32.018-12.628,44.408-.532l6.147-6.295h0S71.911,0,71.911,0c0,0,59.927,83.064,47.565,81.468l.01.008c-12.27-1.75-25.186,2.156-34.49,11.684-3.388,3.471-6.075,7.443-7.99,11.746,0,0,0,0,0,.001-2.958,7.16-77.005-9.408-77.005-9.408,0,0,72.904,18.529,73.562,26.226Z"/>
      <path d="M110.96,161.358c-9.461-.656-18.421-4.663-25.232-11.28-7.709-7.489-12.04-17.532-12.196-28.279-.155-10.747,3.884-20.91,11.373-28.619,7.489-7.709,17.532-12.04,28.279-12.195,10.789-.155,20.911,3.884,28.62,11.373l-6.136,6.316c-12.431-12.077-32.369-11.79-44.446.642-5.85,6.022-9.005,13.961-8.884,22.355.122,8.395,3.504,16.239,9.526,22.09,5.321,5.17,12.319,8.299,19.706,8.812l-.61,8.784Z" fill="#f99"/>
    </g>
  </g>
</svg>