<?xml version="1.0" encoding="UTF-8"?>
<svg id="Layer_2" data-name="Layer 2" xmlns="http://www.w3.org/2000/svg" viewBox="0 0 69.543 303.549">
  <g id="Layer_1-2" data-name="Layer 1">
    <g>
      <g>
        <path d="M12.492,118.3l-.538-.836c-.038,1.732-.107,3.464-.16,5.197v6.46c-.054,2.443-.121,4.886-.175,7.33v2.618c.156,1.908.022,3.841-.173,5.747.108.095.205.204.287.323.506-5.087.885-10.208.759-15.319v-11.52Z"/>
        <path d="M69.228,63.408c-.043-7.634.369-15.33-1-22.884-.017-.094-.033-.173-.049-.256.28-4.417.172-8.852-.008-13.274l.026-17.259C59.977,2.7,49.55-.716,38.72.125c-10.054.781-19.261,5.171-26.163,12.42l-.191-1.359c.023.498.038.994.06,1.491-.459.486-.907.985-1.345,1.496C4.953,21.335,1.576,30.202,1.361,39.499h-.136v6.978c.028,6.196-.027,12.391,0,18.586v2.987c-.678,9.056-.539,18.171.592,27.183.157,1.255.086,2.636-1.081,3.124v1.727c.234,2.482.374,21.548.606,24.03.075.806-.331,2.056-1.095,1.786v35.793c-.11.901-.135,1.811-.246,2.712,1.869,3.052-.264,7.24,1.175,10.516.489-11.144.979-42.074,1.467-53.219.035-.812-.115-1.548-.439-2.292v-48.478c-.042-6.698.477-13.398.485-20.096.537,2.055,1.228,4.056,2.074,5.985-.345,5.474-.051,10.98.798,16.406l-1.179,23.925c.494,2.231.442,4.446.22,6.72-.461,4.753-.616,9.633.209,14.337l-.458,9.287c.486.754-.186,32.683-.129,31.787.296-4.547,1.978-42.394,1.364-46.909l.506-10.251c-.078-2.772,0-5.549-.08-8.322l.746-15.133c.514-4.115.46-8.343-.863-12.275l-.505-8.219c1.042,2.153,2.273,4.21,3.689,6.152.198,5.485.423,11.644.454,13.018.042,1.872-.5,3.76-.781,5.612v10.761c.208,2.155-.117,4.372-.978,6.358v20.378c-.075,1.635.278,3.289,1.071,4.72-.588-8.274-.044-23.766,1.375-31.938,0-5.571-.194-17.766-.203-27.663,1.423,1.8,3.017,3.484,4.756,5.046v4.053c-.134,3.414.049,6.841.55,10.22-.184.02-.368.039-.55.057v12.759c0,.357.008.715.016,1.072-.312,1.309-.292,2.696.092,3.987-.168.144-.417.214-.632.159v6.826c-.069,1.396.066,2.789.175,4.183v2.449c-.033,2.324-.184,4.647-.216,6.972.188.01.376.023.565.023v-9.788c.498-2.704.285-5.508.228-8.258-.028-1.289-.055-2.579-.082-3.868.057.784.123,1.568.203,2.35v-3.445c.113-.028.232-.04.349-.04v-17.632c-.015-1.544-.167-3.081-.182-4.625-.01-1.031-.02-2.064.085-3.089.075-.734.209-1.461.312-2.193.059-.419.095-.842.121-1.267.629.529,1.274,1.034,1.931,1.521-.17,1.581-.312,3.146-.155,4.754.203,2.088.452,4.195.278,6.295-.158,1.909-.447,3.927-.275,5.852v4.843c.171,1.953.178,3.922.348,5.876.178-9.028.357-18.056.535-27.083,1.417,1.002,2.892,1.911,4.417,2.719l-.066.064c1.621.768,1.694,2.606,1.637,4.161-.117,3.191-.234,6.382-.351,9.573-.123,3.351-.245,6.701-.368,10.052l-.171,4.66c1.463,28.071,2.923,56.149,3.306,84.256l-1.005,31.312c-.989,3.511-2.574,80.045-.693,83.171.714-.237.711-1.237.568-1.974-.385-1.989-.614-4.034-.999-6.022l2.838-88.437c-.251-2.001-.492-4.012-.237-6.012l.358-11.159c1.049-3.677.178-7.413-.178-11.219-.278-2.968-.311-6.048.396-8.944l.578-18.018c-.448-4.304-.855-8.613-1.302-12.917l.757-23.589c-.072-2.998.362-6.009.289-9.007l.876-27.289c2.215.734,4.494,1.277,6.813,1.62.026,6.132-.028,12.263,0,18.395v2.987c-.679,9.057-.539,18.171.592,27.183.157,1.255.086,2.637-1.081,3.124v1.727c.233,2.482.372,21.547.605,24.03.076.806-.331,2.056-1.094,1.786v35.793c-.111.9-.135,1.811-.246,2.712,1.869,3.052-.265,7.24,1.175,10.516.489-11.144.978-42.074,1.467-53.219.035-.812-.115-1.548-.439-2.292v-48.478c-.043-7.006.532-14.017.489-21.023v-3.053c.738.082,1.477.148,2.221.189l1.991,195.068V87.049c-.291-2.002-.451-4.021-.482-6.042.152.003.304.012.457.013l.045-7.284c.177-1.142.391-2.279.667-3.404-.472-.094-.943-.219-1.423-.219V8.899c1.125-.035,2.251-.007,3.375.077l-.037.434c-.198,2.449-.642,4.784-.405,7.222.203,2.088.451,4.195.277,6.295-.158,1.909-.446,3.927-.276,5.852v4.843c.171,1.953.178,3.922.349,5.876.201-10.159.401-20.318.602-30.477.29.026.581.051.87.085-.009,1.821-.014,3.643-.028,5.463-.005.62.275,1.219.895,1.219v-6.563c2.042.3,4.062.799,6.032,1.502v6.32c-.004,2.042.141,4.077.349,6.108v10.471c-.636,1.599-.732,3.407-.241,5.056-.168.144-.417.214-.632.159v6.826c-.069,1.396.067,2.789.175,4.182v2.45c-.033,2.324-.183,4.647-.216,6.971.189.01.376.023.565.023v-9.787c.498-2.705.285-5.509.227-8.259-.033-1.621-.068-3.243-.102-4.865.156-.127.373-.135.573-.135V10.987c.413.158.824.322,1.231.499.131,1.845.006,3.71-.183,5.55.109.095.205.204.287.323.186-1.864.35-3.733.481-5.604.445.204.886.418,1.323.644v7.94c-.272.05-.447.451-.264.659v.662c-.043.625.207,1.213.352,1.822.144.603.166,1.228.186,1.848.071,2.124.053,4.264.124,6.389v64.626c.584,0,.889.68.952,1.261.063.581.043,1.236.447,1.659.128.029.218-.144.182-.269-.037-.125-.142-.217-.213-.326-.123-.188-.141-.424-.156-.648-.057-.872-.228-1.739-.285-2.611v-2.44c-.204.057-.431.026-.619-.072.706-2.114-.454-50.026.486-52.047v-2.96c.164,0,.323-.058.484-.087.684-3.659.796-7.409.442-11.115v-7.995c-.339.06-.698.004-1.01-.142.042-1.827.085-3.655.127-5.482.997.573,1.969,1.206,2.914,1.897l-.49,12.98v8.49c-1.023,5.237-.833,10.751.594,15.893.053.193.104.391.143.59V15.148c.565.422,1.124.857,1.667,1.323l.557-.65v.745c.022,1.646.007,3.289.03,4.935.013.912.025,1.825.113,2.733.087.892.303,1.74.462,2.622v-4.842c-.016-2.359-.038-4.716.202-7.062v-.074l1.068-1.248,1.313,9.384c.341,4.867.158,9.769.478,14.638.013.205.021.411.021.616v24.495c.005.034.01.061.015.095-.005.105-.01.201-.015.319v56.437c-.018,1.83.08,3.662.104,5.491.083,6.202.658,2.98,1.72,9.09.508.193.798-.577.792-1.12-.059-5.965-.064-2.512-.124-8.477v-9.981c-.52-10.293-1.11-20.583-.997-30.889,0-6.611.27-5.977.539-12.578.264-6.531.529,10.664.794,4.133.166-4.067-.253-7.862-.277-11.875ZM10.311,42.963c-.409-5.268.479-10.439,2.546-15.145.038,2.688.063,5.379.063,8.08.894,5.148,1.439,13.2,1.573,20.522-2.365-4.061-3.807-8.634-4.182-13.457ZM39.533,72.064c-6.699-.493-13.111-3.115-18.248-7.511-2.315-1.981-4.296-4.248-5.921-6.727v-15.093c-.861-1.985-1.186-4.2-.978-6.354v-10.752c-.032-.211-.074-.423-.112-.635.98-1.734,2.133-3.386,3.449-4.938.167,8.441.333,16.882.5,25.323.171-1.952.178-3.919.349-5.871v-4.839c.114-1.278.006-2.564-.201-3.83v-1.209c.087-1.208.115-2.421.201-3.629l-.395-6.459c.212-.24.424-.481.643-.714v2.164c.159-.882.375-1.728.462-2.62,0-.006,0-.012.001-.018,3.491-3.562,7.654-6.134,12.119-7.69.006.257.011.513.017.77.042,1.872-.5,3.76-.781,5.611v10.761c.208,2.154-.117,4.372-.979,6.359v20.378c-.075,1.634.28,3.288,1.072,4.719-.588-8.273-.045-23.766,1.374-31.937,0-5.683.089-11.328.266-16.983.596-.187,1.198-.353,1.802-.504v3.707c-.025,1.234-.023,2.468-.049,3.702-.012.578-.012,1.198.311,1.676.139-.624.166-1.265.191-1.903.018-.46.037-.92.055-1.381.058-1.445-.011-2.883-.06-4.329v-1.354c-.008-.075-.012-.15-.018-.225,1.412-.331,2.844-.562,4.285-.698l.643,63.033Z"/>
      </g>
      <path d="M41.946,81.058c-9.547.002-18.827-3.395-26.13-9.565-8.266-6.983-13.318-16.766-14.225-27.548-.907-10.782,2.438-21.272,9.421-29.538S27.778,1.09,38.56.183c10.824-.91,21.273,2.439,29.538,9.421l-5.721,6.773c-13.33-11.26-33.333-9.578-44.593,3.752-5.455,6.457-8.068,14.651-7.359,23.073.709,8.423,4.655,16.065,11.112,21.519,5.705,4.82,12.953,7.473,20.407,7.472l.002,8.865Z" fill="#f99"/>
    </g>
  </g>
</svg>