<?xml version="1.0" encoding="UTF-8"?>
<svg id="Layer_2" data-name="Layer 2" xmlns="http://www.w3.org/2000/svg" viewBox="0 0 370.302 448.273">
  <g id="Layer_1-2" data-name="Layer 1">
    <g>
      <path d="M171.553,242.49c30.43-7.7,59.77-26.965,87.209-57.257,32.838-36.253,63.234-88.703,90.379-155.915,1.582-.678,5.418-2.258,9.629-3.518,8.691-2.601,10.398-8.399,10.398-8.399,2.484-5.374.601-9.432-2.928-11.123-3.529-1.69-8.231,2.214-8.231,2.214,0,0,.178-6.072-3.351-7.763-3.53-1.69-7.8-.58-10.281,4.795,0,0-3.297,5.037.277,13.513,1.626,3.858,2.827,7.632,3.379,9.465-27.112,67.198-57.461,119.611-90.236,155.799-27.258,30.095-56.375,49.229-86.543,56.87-33.898,8.586-63.104.988-82.755-7.779-8.16-9.736-15.238-15.819-19.097-19.133-.851-.73-1.533-1.318-1.995-1.75l.041-.044c-15.719-15.552-40.931-15.182-56.202.827C3.85,221.047-.14,231.272.013,242.084c.154,10.811,4.432,20.914,12.046,28.448,6.726,6.657,15.578,10.687,24.923,11.348l.604-8.837c-7.299-.517-14.212-3.665-19.466-8.865-5.948-5.885-9.289-13.777-9.41-22.223-.12-8.445,2.996-16.432,8.775-22.489,11.895-12.47,31.507-12.79,43.795-.746l-.038.047c.211.18,9.972,8.332,26.42,15.717,7.932,9.498,16.874,22.468,24.846,39.756,19.322,41.901,25.858,93.568,19.477,153.696-5.167-.307-9.775,3.482-10.479,8.792-.74,5.571,3.098,10.7,8.567,11.452,5.471.751,10.506-3.156,11.245-8.727.713-5.379-2.844-10.333-8.014-11.346,6.411-60.39-.162-112.309-19.592-154.443-7.473-16.203-15.791-28.64-23.35-38.003,13.416,5.691,30.821,10.629,50.895,10.629,9.546,0,19.697-1.118,30.295-3.8ZM62.283,217.883l4.199-4.402c.479.45,1.155,1.033,2.064,1.814,3.525,3.028,9.762,8.386,17.05,16.761-13.578-6.433-21.975-13.08-23.313-14.173Z"/>
      <path d="M36.974,281.88c-9.461-.656-18.763-5.139-25.574-11.756C3.692,262.634.16,252.592.004,241.845c-.155-10.747,3.745-20.843,11.234-28.552,7.489-7.709,16.871-12.107,27.618-12.262,10.789-.155,20.911,3.884,28.62,11.373l-6.136,6.316c-12.431-12.077-32.369-11.79-44.446.642-5.85,6.022-8.313,13.961-8.191,22.355.122,8.395,2.812,16.239,8.834,22.09,5.321,5.17,12.655,8.722,20.042,9.235l-.604,8.837Z" fill="#f99"/>
    </g>
  </g>
</svg>