<?xml version="1.0" encoding="UTF-8"?>
<svg id="Layer_2" data-name="Layer 2" xmlns="http://www.w3.org/2000/svg" viewBox="0 0 316.463 286.647">
  <g id="Layer_1-2" data-name="Layer 1">
    <g>
      <path d="M273.328,133.637c-10.805.507-20.69,5.489-27.858,13.586-14.794,16.716-13.218,42.338,3.512,57.118,7.16,6.328,16.36,9.928,25.903,10.14l.2-8.854c-7.453-.167-14.637-2.98-20.23-7.922-13.07-11.544-14.301-31.56-2.744-44.618,5.596-6.324,13.325-10.094,21.76-10.61.156-.012.312-.019.469-.026,13.288-.624,21.843,3.785,27.299,8.943,1.565-1.419,3.274-2.676,5.102-3.734-5.288-7.459-15.754-14.853-33.415-14.023Z" fill="#f99"/>
      <path d="M20.255,87.723C6.315,112.579-.593,140.36.04,168.842c.613,27.667,8.632,55.328,26.14,77.125,15.827,19.699,38.595,34.123,63.519,38.885,6.989,1.334,14.442,2.054,21.791,1.709,6.575-.309,13.066-1.469,19.075-3.805,11.789-4.583,21.099-13.913,27.265-24.788,14.241-25.118,11.057-56.438,2.521-82.88-1.49-4.612-3.151-9.165-4.918-13.677,16.252,3.876,29.578,18.039,31.769,34.729.038.287.08.398.124.396.157-.007.331-1.469.342-1.587.109-1.506.109-3.059-.086-4.559-2.371-18.049-17.048-33.425-35.122-36.242-.002,0-.005,0-.009,0-.413.02-.374,5.948-.128,6.545,6.065,14.583,11.437,29.641,13.637,45.346,1.993,14.233.154,28.331-6.086,41.341-5.661,11.803-14.809,22.214-26.868,27.704-6.64,3.023-13.974,4.458-21.397,4.807-6.807.32-13.687-.274-20.178-1.395-25.673-4.435-49.189-19.161-65.38-39.416C8.227,216.784-.71,187.021.828,158.605c1.566-28.884,12.874-56.646,29.462-80.128,8.343-11.812,18.074-22.634,28.785-32.346,11.816-10.714,24.849-20.399,39.242-27.378,15.294-7.414,31.815-10.721,48.705-11.703.833-.049,1.668-.092,2.502-.131,13.09-.615,26.243-.082,39.225,1.704,27.085,3.728,53.706,13,75.944,29.121,25.545,18.519,44.178,46.595,49.632,77.83,1.316,7.539,1.848,15.204,1.077,22.833-.421,4.16-1.231,8.221-2.106,12.304-.398,1.855-.745,3.725-1.316,5.536-.162.519-.455,1.966-.884,2.326-.131-2.783-1.48-6.857-4.355-10.913-1.828,1.058-3.538,2.316-5.102,3.734,6.553,6.195,8.63,13.471,9.002,14.421.029.08.06.12.089.119.029-.001.059-.041.088-.119,1.561-3.015,2.123-6.367,2.836-9.652.839-3.864,1.578-7.724,2.033-11.655.899-7.775.988-15.667.406-23.47-1.132-15.16-5.322-30.01-12.059-43.628-12.96-26.2-34.795-46.49-60.914-59.292C219.039,6.314,192.152.755,165.426.082c-5.442-.137-10.923-.111-16.396.146-9.832.462-19.639,1.671-29.155,4.03-15.886,3.941-30.451,11.684-43.633,21.262-22.669,16.47-42.263,37.736-55.987,62.203Z"/>
    </g>
  </g>
</svg>