<?xml version="1.0" encoding="UTF-8"?>
<svg id="Layer_2" data-name="Layer 2" xmlns="http://www.w3.org/2000/svg" viewBox="0 0 110.341 177.738">
  <g id="Layer_1-2" data-name="Layer 1">
    <g>
      <path d="M68.859,117.083c-4.626-.274-9.079-1.764-13.318-3.586-1.464-.629-6.604-4.306-8.113-2.905-.694.643-.845,1.691-.754,2.633.183,1.894,1.207,3.692,2.743,4.816.77.564,1.679.985,2.243,1.754.565.769.563,2.077-.299,2.485-1.24.61-2.663-.446-3.439-1.589-.776-1.141-1.413-2.537-2.694-3.051-.882-.355-1.881-.199-2.803.032-6.857,1.715-12.135,7.067-16.801,12.377-2.367,2.693-4.677,5.436-6.927,8.227-3.908,4.845-7.676,9.898-10.12,15.623-2.444,5.725-3.484,12.238-1.792,18.229.524,1.855,1.083,4.326-.573,5.313-.886.527-2.045.293-2.941-.216-2.277-1.295-3.348-4.107-3.266-6.725.082-2.618,1.119-5.102,2.19-7.492,4.015-8.957,8.747-17.594,14.134-25.799,1.915-2.916,14.373-17.237,10.102-20.295-1.308-.937-3.135-.715-4.613-.076,2.394-2.38,6.415-1.831,9.423-3.363,2.968-1.51,4.575-4.928,4.819-8.249.245-3.321-.648-6.608-1.531-9.819-1.958-7.109-4.182-13.838-3.754-21.309.108-1.899,2.281-8.366-.625-9.004-1.328-.292-2.642.584-3.532,1.612-.879,1.013-1.534,2.219-1.907,3.508-.277.956-.857,2.252-1.804,1.943-.593-.194-.783-.947-.736-1.57.136-1.798,1.416-3.317,2.866-4.389s3.114-1.83,4.547-2.924c1.79-1.366,3.152-3.204,4.488-5.015,3.222-4.365,6.143-8.488,10.153-12.056,4.007-3.564,8.275-6.99,11.811-11.038,4.169-4.773,7.189-11.071,8.911-17.165,1.614-5.714,2.674-12.198,7.22-16.444,1.1-1.027,2.632-1.914,4.05-1.408,1.376.491,2.035,2.194,1.727,3.623-.308,1.428-1.36,2.587-2.526,3.468-1.166.881-2.478,1.556-3.628,2.457-3.328,2.611-4.935,6.792-6.394,10.764-.764,2.08-1.528,4.16-2.292,6.24-.572,1.559-1.152,3.156-1.155,4.817-.004,1.66.686,3.422,2.125,4.251,6.444,3.716,12.904-9.264,19.422-9.178-2.19,1.267-4.526,2.7-5.463,5.049-2.096,5.253,4.17,5.661,7.36,6.838,2.694.994,5.28,2.281,7.702,3.823,2.049,1.304,3.349,2.389,5.932,1.791,4.188-.971,8.121-3.024,11.312-5.907-2.453,4.608-7.727,6.888-11.302,10.692-4.998,5.319-6.186,13.862-2.828,20.343.596,1.15,1.193,2.834.082,3.501-.612.367-1.449.103-1.929-.425-.48-.528-.677-1.25-.805-1.952-.623-3.401-.012-6.893-.015-10.35-.004-5.811-2.288-8.702-7.157-11.338-4.058-2.196-8.591-3.479-13.195-3.754-9.267-.553-18.48,3.05-24.884,9.776-12.06,12.667-11.566,32.784,1.1,44.844,5.422,5.162,12.516,8.248,19.976,8.691l-.526,8.871Z"/>
      <path d="M68.789,117.076c-9.461-.656-18.421-4.663-25.232-11.28-7.709-7.489-12.04-17.532-12.196-28.279-.155-10.747,3.884-20.91,11.373-28.619,7.489-7.709,17.532-12.04,28.279-12.195,10.789-.155,20.911,3.884,28.62,11.373l-6.136,6.316c-12.431-12.077-32.369-11.79-44.446.642-5.85,6.022-9.005,13.961-8.884,22.355.122,8.395,3.504,16.239,9.526,22.09,5.321,5.17,12.319,8.299,19.706,8.812l-.61,8.784Z" fill="#f99"/>
    </g>
  </g>
</svg>