<?xml version="1.0" encoding="UTF-8"?>
<svg id="Layer_2" data-name="Layer 2" xmlns="http://www.w3.org/2000/svg" viewBox="0 0 68.275 80.377">
  <g id="Layer_1-2" data-name="Layer 1">
    <g>
      <path d="M11.412,12.242C3.936,19.939-.099,30.087.056,40.818c.155,10.73,4.48,20.758,12.176,28.235,6.801,6.607,15.75,10.607,25.195,11.263l.609-8.771c-7.376-.512-14.364-3.637-19.677-8.798-6.012-5.841-9.391-13.674-9.511-22.056-.121-8.381,3.03-16.309,8.871-22.321,3.55-3.655,7.836-6.336,12.534-7.904.042-.014.085-.023.127-.037,16.237-5.034,12.563,9.179,1.222,10.409,0,0,0,0,0,0,0,0,0,0,0,0-5.683.627-10.363,5.051-11.925,10.928-.364,1.373-.559,2.824-.557,4.326.003,1.755.275,3.442.773,5.012,1.896,5.983,7.07,10.283,13.131,10.273,7.653-.013,13.868-6.89,13.854-15.331-.005-2.9-.744-5.613-2.023-7.925,0,0,0,0,0,0-4.318-7.505,2.865-19.938,12.492-14.173.495.324.991.645,1.469.998.003.003.006.004.01.007h0c1.142.843,2.234,1.769,3.269,2.776l6.128-6.306C60.527,3.944,50.39-.107,39.648.066c-10.732.155-20.758,4.479-28.236,12.176ZM45.283,36.049c.013,7.561-5.488,13.722-12.261,13.733-6.774.011-12.295-6.132-12.307-13.693-.012-7.561,5.488-13.722,12.261-13.733,6.773-.011,12.294,6.132,12.306,13.693Z"/>
      <path d="M37.432,80.377c-9.461-.656-18.421-4.663-25.232-11.28C4.491,61.608.16,51.565.004,40.818c-.155-10.747,3.884-20.91,11.373-28.619C18.866,4.49,28.909.159,39.656.004c10.789-.155,20.911,3.884,28.62,11.373l-6.136,6.316c-12.431-12.077-32.369-11.79-44.446.642-5.85,6.022-9.005,13.961-8.884,22.355.122,8.395,3.504,16.239,9.526,22.09,5.321,5.17,12.319,8.299,19.706,8.812l-.61,8.784Z" fill="#f99"/>
    </g>
  </g>
</svg>