<?xml version="1.0" encoding="UTF-8"?>
<svg id="Layer_1" data-name="Layer 1" xmlns="http://www.w3.org/2000/svg" viewBox="0 0 256 256">
  <g>
    <polygon points="168.686 229.733 123.145 100.342 131.671 97.338 177.244 226.719 168.686 229.733" fill="#ffce00"/>
    <path d="M86.112,30.787c8.415-4.372,18.15-5.625,27.413-3.529,10.483,2.372,19.415,8.684,25.15,17.773,5.735,9.09,7.588,19.868,5.216,30.351-2.372,10.483-8.684,19.415-17.773,25.15-9.125,5.757-19.869,7.588-30.352,5.216l1.943-8.589c16.905,3.825,33.769-6.815,37.592-23.72,1.853-8.189.406-16.609-4.074-23.708-4.48-7.1-11.457-12.031-19.646-13.883-7.236-1.637-14.839-.659-21.41,2.754l-4.059-7.814Z" fill="#f99"/>
  </g>
  <polygon points="78.756 42.79 78.79 179.481 87.798 179.481 87.798 42.79 78.756 42.79" fill="#c7a7f9"/>
</svg>