<?xml version="1.0" encoding="UTF-8"?>
<svg id="Layer_1" data-name="Layer 1" xmlns="http://www.w3.org/2000/svg" viewBox="0 0 256 256">
  <path d="M102.024,55.249c7.154-6.225,16.323-9.728,25.818-9.866,10.747-.155,20.91,3.884,28.62,11.372,7.709,7.489,12.04,17.532,12.195,28.278.155,10.747-3.884,20.91-11.373,28.619-7.519,7.738-17.533,12.04-28.279,12.195l-.127-8.805c17.33-.25,31.225-14.552,30.974-31.882-.121-8.395-3.504-16.24-9.526-22.089-6.022-5.85-13.961-9.005-22.356-8.884-7.418.107-14.579,2.843-20.165,7.703l-5.78-6.643Z" fill="#f99"/>
  <path d="M132.926,210.62c-10.526,0-20.456-4.027-28.023-11.378l6.136-6.316c6.022,5.852,13.971,9.053,22.356,8.885,8.394-.121,16.239-3.504,22.089-9.526s9.005-13.961,8.884-22.356c-.121-8.394-3.504-16.239-9.526-22.089-5.32-5.169-12.319-8.298-19.707-8.812l.611-8.784c9.461.657,18.421,4.664,25.232,11.281,7.709,7.488,12.04,17.532,12.195,28.278.155,10.747-3.884,20.911-11.373,28.619-7.488,7.709-17.532,12.039-28.278,12.194-.198.003-.397.005-.597.005Z" fill="#00ffb0"/>
  <polygon points="99.053 194.067 99.019 57.377 90.011 57.377 90.011 194.067 99.053 194.067" fill="#c7a7f9"/>
</svg>