<?xml version="1.0" encoding="UTF-8"?>
<svg id="Layer_1" data-name="Layer 1" xmlns="http://www.w3.org/2000/svg" viewBox="0 0 256 256">
  <path d="M104.965,59.289c8.948-3.141,18.763-3.007,27.636.375,10.043,3.828,17.995,11.337,22.39,21.145,4.395,9.808,4.708,20.74.88,30.783-3.828,10.043-11.337,17.995-21.145,22.389-9.847,4.411-20.741,4.707-30.784.88l3.136-8.229c16.196,6.172,34.393-1.981,40.564-18.177,2.99-7.845,2.746-16.385-.687-24.046-3.433-7.661-9.644-13.527-17.49-16.517-6.932-2.642-14.597-2.747-21.584-.295l-2.916-8.309Z" fill="#f99"/>
  <polygon points="97.469 62.283 97.503 198.973 106.511 198.973 106.511 62.283 97.469 62.283" fill="#c7a7f9"/>
</svg>