<?xml version="1.0" encoding="UTF-8"?>
<svg id="Layer_1" data-name="Layer 1" xmlns="http://www.w3.org/2000/svg" viewBox="0 0 256 256">
  <path d="M127.399,132.33c-9.396-1.287-18.068-5.884-24.422-12.941-7.191-7.988-10.841-18.297-10.278-29.03.563-10.733,5.272-20.604,13.26-27.795s18.297-10.841,29.03-10.278c10.775.566,20.605,5.273,27.796,13.26l-6.545,5.892c-11.596-12.881-31.509-13.927-44.389-2.33-6.24,5.617-9.918,13.328-10.358,21.712-.44,8.384,2.411,16.437,8.029,22.677,4.963,5.514,11.737,9.104,19.073,10.109l-1.196,8.724Z" fill="#f99"/>
  <path d="M120.418,203.679c-10.502-.703-20.14-5.385-27.198-13.225l6.544-5.891c5.617,6.241,13.333,9.966,21.711,10.359,8.383.44,16.436-2.411,22.675-8.028,6.24-5.617,9.917-13.328,10.357-21.713.44-8.383-2.411-16.437-8.028-22.677-4.962-5.513-11.736-9.103-19.073-10.11l1.196-8.724c9.395,1.288,18.067,5.884,24.42,12.942,7.19,7.987,10.841,18.297,10.277,29.03-.564,10.734-5.273,20.605-13.26,27.795-7.986,7.191-18.296,10.84-29.028,10.277-.198-.01-.397-.022-.596-.035Z" fill="#00ffb0"/>
</svg>