<?xml version="1.0" encoding="UTF-8"?>
<svg id="Layer_1" data-name="Layer 1" xmlns="http://www.w3.org/2000/svg" viewBox="0 0 256 256">
  <path d="M132.254,124.309c-8.779,3.587-18.588,3.946-27.62,1.015-10.223-3.318-18.542-10.418-23.425-19.992-4.882-9.575-5.744-20.477-2.426-30.7,3.318-10.223,10.418-18.542,19.993-23.424,9.612-4.901,20.478-5.744,30.701-2.427l-2.718,8.376c-16.486-5.35-34.249,3.707-39.599,20.193-2.592,7.986-1.919,16.502,1.895,23.981,3.814,7.479,10.312,13.025,18.298,15.617,7.056,2.29,14.717,2.009,21.572-.79l3.33,8.152Z" fill="#f99"/>
  <path d="M168.488,205.06c-9.445,4.646-20.134,5.415-30.167,2.159l2.719-8.375c7.986,2.593,16.532,1.957,23.982-1.895,7.479-3.814,13.025-10.312,15.617-18.297s1.918-16.502-1.896-23.982c-3.814-7.479-10.312-13.025-18.297-15.617-7.055-2.29-14.717-2.009-21.573.79l-3.329-8.152c8.779-3.586,18.588-3.946,27.621-1.014,10.222,3.317,18.542,10.417,23.424,19.992,4.883,9.576,5.744,20.478,2.426,30.701-3.317,10.222-10.418,18.541-19.992,23.423-.176.091-.355.18-.533.268Z" fill="#00ffb0"/>
  <path d="M135.543,124.309c8.779,3.587,18.588,3.946,27.62,1.015,10.223-3.318,18.542-10.418,23.425-19.992,4.882-9.575,5.744-20.477,2.426-30.7-3.318-10.223-10.418-18.542-19.993-23.424-9.612-4.901-20.478-5.744-30.701-2.427l2.718,8.376c16.486-5.35,34.249,3.707,39.599,20.193,2.592,7.986,1.919,16.502-1.895,23.981-3.814,7.479-10.312,13.025-18.298,15.617-7.056,2.29-14.717,2.009-21.572-.79l-3.33,8.152Z" fill="#f99"/>
  <path d="M99.309,205.06c9.445,4.646,20.134,5.415,30.167,2.159l-2.719-8.375c-7.986,2.593-16.532,1.957-23.982-1.895-7.479-3.814-13.025-10.312-15.617-18.297s-1.918-16.502,1.896-23.982c3.814-7.479,10.312-13.025,18.297-15.617,7.055-2.29,14.717-2.009,21.573.79l3.329-8.152c-8.779-3.586-18.588-3.946-27.621-1.014-10.222,3.317-18.542,10.417-23.424,19.992-4.883,9.576-5.744,20.478-2.426,30.701,3.317,10.222,10.418,18.541,19.992,23.423.176.091.355.18.533.268Z" fill="#00ffb0"/>
</svg>