<?xml version="1.0" encoding="UTF-8"?>
<svg id="Layer_1" data-name="Layer 1" xmlns="http://www.w3.org/2000/svg" viewBox="0 0 256 256">
  <path d="M108.947,215.029c-10.526,0-20.456-4.027-28.023-11.378l6.136-6.316c6.022,5.852,13.971,9.053,22.356,8.885,8.394-.121,16.239-3.504,22.089-9.526,5.85-6.022,9.005-13.961,8.884-22.356-.121-8.394-3.504-16.239-9.526-22.089-5.32-5.169-12.319-8.298-19.707-8.812l.611-8.784c9.461.657,18.421,4.664,25.232,11.281,7.709,7.488,12.04,17.532,12.195,28.278.155,10.747-3.884,20.911-11.373,28.619-7.488,7.709-17.532,12.039-28.278,12.194-.198.003-.397.005-.597.005Z" fill="#00ffb0"/>
  <polygon points="98.989 71.023 99.023 136.837 108.031 136.837 108.031 71.023 98.989 71.023" fill="#ff97eb"/>
  <polygon points="175.076 56.256 109.262 56.29 109.262 65.298 175.076 65.298 175.076 56.256" fill="#ff97eb"/>
</svg>