<?xml version="1.0" encoding="UTF-8"?>
<svg id="Layer_1" data-name="Layer 1" xmlns="http://www.w3.org/2000/svg" viewBox="0 0 256 256">
  <path d="M129.227,125.507c9.461-.656,18.421-4.663,25.232-11.28,7.709-7.489,12.04-17.532,12.196-28.279.155-10.747-3.884-20.91-11.373-28.619-7.489-7.709-17.532-12.04-28.279-12.195-10.789-.155-20.911,3.884-28.62,11.373l6.136,6.316c12.431-12.077,32.369-11.79,44.446.642,5.85,6.022,9.005,13.961,8.884,22.355-.122,8.395-3.504,16.239-9.526,22.09-5.321,5.17-12.319,8.299-19.706,8.812l.61,8.784Z" fill="#f99"/>
  <path d="M126.406,210.87c-10.526,0-20.456-4.027-28.023-11.378l6.136-6.316c6.022,5.852,13.971,9.053,22.356,8.885,8.394-.121,16.239-3.504,22.089-9.526s9.005-13.961,8.884-22.356c-.121-8.394-3.504-16.239-9.526-22.089-5.32-5.169-12.319-8.298-19.707-8.812l.611-8.784c9.461.657,18.421,4.664,25.232,11.281,7.709,7.488,12.04,17.532,12.195,28.278.155,10.747-3.884,20.911-11.373,28.619-7.488,7.709-17.532,12.039-28.278,12.194-.198.003-.397.005-.597.005Z" fill="#00ffb0"/>
</svg>