<?xml version="1.0" encoding="UTF-8"?>
<svg id="Layer_1" data-name="Layer 1" xmlns="http://www.w3.org/2000/svg" viewBox="0 0 256 256">
  <path d="M149.38,58.833c-8.415-4.372-18.15-5.625-27.413-3.529-10.483,2.372-19.415,8.684-25.15,17.773-5.735,9.09-7.588,19.868-5.216,30.351,2.372,10.483,8.684,19.415,17.773,25.15,9.125,5.757,19.869,7.588,30.352,5.216l-1.943-8.589c-16.905,3.825-33.769-6.815-37.592-23.72-1.853-8.189-.406-16.609,4.074-23.708,4.48-7.1,11.457-12.031,19.646-13.883,7.236-1.637,14.839-.659,21.41,2.754l4.059-7.814Z" fill="#f99"/>
  <polygon points="165.405 64.996 165.371 201.687 156.363 201.687 156.363 64.996 165.405 64.996" fill="#c7a7f9"/>
</svg>