<?xml version="1.0" encoding="UTF-8"?>
<svg id="Layer_1" data-name="Layer 1" xmlns="http://www.w3.org/2000/svg" viewBox="0 0 256 256">
  <path d="M124.283,213.031c-10.526,0-20.456-4.027-28.023-11.378l6.136-6.316c6.022,5.852,13.971,9.053,22.356,8.885,8.394-.121,16.239-3.504,22.089-9.526,5.85-6.022,9.005-13.961,8.884-22.356-.121-8.394-3.504-16.239-9.526-22.089-5.32-5.169-12.319-8.298-19.707-8.812l.611-8.784c9.461.657,18.421,4.664,25.232,11.281,7.709,7.488,12.04,17.532,12.195,28.278.155,10.747-3.884,20.911-11.373,28.619-7.488,7.709-17.532,12.039-28.278,12.194-.198.003-.397.005-.597.005Z" fill="#00ffb0"/>
  <polygon points="163.305 58.212 97.491 58.246 97.491 67.254 163.305 67.254 163.305 58.212" fill="#ff97eb"/>
  <polygon points="100.507 198.602 100.472 61.912 91.465 61.912 91.465 198.602 100.507 198.602" fill="#c7a7f9"/>
</svg>