<?xml version="1.0" encoding="UTF-8"?>
<svg id="Layer_2" data-name="Layer 2" xmlns="http://www.w3.org/2000/svg" viewBox="0 0 171.603 309.481">
  <g id="Layer_1-2" data-name="Layer 1">
    <g>
      <path d="M124.335,0h-8.999v136.287c-.168,30.839-13.368,47.818-37.227,47.818-17.744,0-31.488-13.769-35.809-34.263,0-.002,0-.004,0-.006-1.539-9.659,18.445,9.681,18.445,9.681l-19.871-23.818h0c-4.456,0,8.245-47.778,8.245-47.778,0,0-15.557,38.488-17.271,47.778h0s0,0,0,0L0,309.481s26.288-128.608,37.437-145.139c1.978,4.57,4.432,8.714,7.314,12.334h0s0,0,0,0c2.895,3.533,11.437,36.183,11.437,36.183,0,0-6.716-29.982-2.788-27.822.172.127.335.268.509.393,6.915,4.94,15.137,7.701,24.199,7.701,13.829,0,45.891-6.424,46.26-57.432l-.025-97.671c0-26.196,47.259,105.924,47.259,105.924L124.335,0Z"/>
      <path d="M124.799,135.818l-.034-135.818h-9.008v136.406c-.167,30.865-13.38,47.86-37.259,47.86-21.594,0-37.268-20.375-37.268-48.448h-9.034c0,33.307,19.473,57.482,46.302,57.482,13.841,0,45.931-6.43,46.301-57.482h0Z" fill="#9500ff"/>
    </g>
  </g>
</svg>