<?xml version="1.0" encoding="UTF-8"?>
<svg id="Layer_2" data-name="Layer 2" xmlns="http://www.w3.org/2000/svg" viewBox="0 0 92.78 463.8">
  <defs>
    <style>
      .cls-1 {
        fill: #9500ff;
      }
    </style>
  </defs>
  <g id="Layer_1-2" data-name="Layer 1">
    <g>
      <g>
        <path d="M77.14,314.47c.33-2.77.3-5.53.3-8.39v-8.39c-.17,0-.33,0-.5,0,.06,3.46.11,6.92.16,10.37.03,2.13.04,4.26.04,6.39Z"/>
        <path d="M73.94,319.6c0,2.51.99,4.91,1.33,7.39.25,1.84.15,3.71.05,5.57-.25,4.55-.86,9.62.47,14.03.72-.42.82-1.41.83-2.24.17-9.98.51-19.92.52-29.88-.15,1.2-.35,2.41-.67,3.63-.94,3.56-2.53-2.26-2.52,1.51Z"/>
        <path d="M87.67,285.42v-35.77c-.76.27-1.17-.98-1.09-1.78.23-2.48.37-21.53.6-24.01v-1.73c-1.17-.49-1.24-1.87-1.08-3.12,1.13-9,1.27-18.11.59-27.16v-2.98c.03-6.19-.03-12.38,0-18.57v-2.18c3.65-8,5.99-18.43,6.09-32.03l-.03-136.08h-9.02v136.67c-.17,30.93-13.41,47.95-37.33,47.95-21.64,0-37.08-20.76-37.08-48.89l-9.31-.1c0,1.6.06,3.61.15,5.16v18.3c.56,0,.72.45.78,1,.64,5.77,1.19,11.63.93,17.43v22.74c-.08,3.02-.16,6.08-.86,9.01v24.03c2.36,28.01,4.72,56.03,6.01,84.11v31.33c-.88,3.54,0,80.09,1.98,83.15.71-.26.67-1.26.5-1.99-.45-1.98-.74-4.01-1.19-5.99v-88.48c-.32-1.99-.62-3.99-.43-6v-11.17c.93-3.71-.06-7.42-.54-11.21-.37-2.96-.5-6.04.11-8.95v-18.03c-.59-4.29-1.13-8.58-1.72-12.87v-23.6c-.17-2.99.17-6.02,0-9.01v-39.07c-1,.06-1.25-1.13-1.29-2.13-.1-2.99-.33-6.01-.43-9v-6.49c-.96-.36-1.5-1.72-.86-2.52v-13.79c.39,0,.79.05,1.17.03,1.13,3.05,2.46,5.93,3.98,8.62,0,2.81,0,5.62.01,8.43v17.11c-.46,6.71.1,13.45,1.47,20.04v23.95c.6,2.2.66,4.42.55,6.7-.23,4.77-.14,9.65.91,14.31v9.3c.52.73,1.42,32.65,1.44,31.76.07-4.56-.11-42.44-.95-46.92v-10.26c-.21-2.76-.27-5.54-.49-8.31v-15.15c.31-4.14.05-8.36-1.47-12.22v-10.28c-.17-3.76-.34-7.56.49-11.23v-13.98c3.48,5.27,7.74,9.65,12.62,12.98-.03,1.75.03,3.48.55,5.17.32,1.03.37,2.12.42,3.2.38,8.26.55,16.44.55,24.71,1.42,8.17,1.96,23.65,1.37,31.91.79-1.43,1.15-3.08,1.07-4.72v-20.36c-.86-1.98-1.19-4.2-.98-6.35v-10.75c-.28-1.85-.82-3.74-.78-5.61.05-2.41.11-4.82.16-7.22.03-1.51.4-2.92.5-4.4.05-.79.11-1.55-.05-2.33-.11-.56-.8-1.46-.8-1.94v-.03c2.36,1.43,4.85,2.62,7.47,3.55.15,2.01.33,4.01.44,6.02v17.45c.34,4.87.16,9.77.48,14.64.01.2.02.41.02.62v24.49s.01.06.02.09c0,.11-.01.2-.02.32v56.44c-.02,1.83.08,3.66.1,5.49.08,6.2.66,2.98,1.72,9.09.51.19.8-.58.79-1.12-.06-5.96-.06-2.51-.12-8.48v-9.98c-.52-10.29-1.11-20.58-1-30.89,0-6.61.27-5.98.54-12.58.26-6.53.53,10.66.79,4.13.17-4.07-.25-7.86-.28-11.88-.04-7.63.37-15.33-1-22.88-.02-.09-.03-.17-.05-.26.28-4.42.17-8.85,0-13.27v-16.95c0-2.38.46-6.5,1.27-9.39.33.08.66.16.99.24l2.77,271.15v-188.98c-.81-5.56-.65-11.26.69-16.72-.47-.09-.94-.22-1.42-.22v-63.41c-.02-.48-.06-.96-.12-1.44,2.33.41,4.73.62,7.2.63v2.37c.4,2.63.63,5.28.66,7.94v13.77c-.27.05-.45.45-.26.66v.66c-.04.62.21,1.21.35,1.82.14.6.17,1.23.19,1.85.07,2.12.05,4.26.12,6.39v64.63c.58,0,.89.68.95,1.26s.04,1.24.45,1.66c.13.03.22-.14.18-.27-.04-.13-.14-.22-.21-.33-.12-.19-.14-.42-.16-.65-.06-.87-.23-1.74-.29-2.61v-2.44c-.2.06-.43.03-.62-.07.71-2.11-.45-50.03.49-52.05v-2.96c.16,0,.32-.06.48-.09.68-3.66.8-7.41.44-11.11v-7.99c-.34.06-.7,0-1.01-.14.06-2.56.12-5.11.18-7.67.03-1.39.14-2.81-.09-4.18v-5.16c-.15-.11-.19-.26-.2-.44-.08-1.62-.17-3.23-.25-4.85,3.15-.08,7.05-.5,11.24-1.62.24,12.35.49,24.7.73,37.04.17-1.95.18-3.92.35-5.87v-4.84c.11-1.28,0-2.56-.2-3.83v-1.21c.09-1.21.11-2.42.2-3.63v-4.39s.16-.09.15-.22c-.16-2.03-.39-4.05-.55-6.08v-3.03c-.09-1.36-.21-2.72-.21-4.08.6-.17,1.21-.35,1.82-.55v3.62c.34,2.86,1.18,5.65.6,8.47v1.01c.24,2.35.22,4.7.2,7.06v4.84c.16-.88.37-1.73.46-2.62.09-.91.1-1.82.11-2.73.02-1.64,0-3.29.03-4.93v-5.24c-.17-2.69-.4-5.4-.81-8.06l-.34-1.49c1.13-.37,2.28-.81,3.43-1.3.08.75.22,1.5.44,2.24.32,1.03.37,2.12.42,3.2.38,8.26.55,16.44.55,24.71,1.42,8.17,1.96,23.65,1.37,31.91.79-1.43,1.15-3.08,1.07-4.72v-20.36c-.86-1.98-1.19-4.2-.98-6.35v-10.75c-.28-1.85-.82-3.74-.78-5.61.05-2.41.11-4.81.16-7.22.03-1.51.4-2.92.5-4.4.05-.79.11-1.55-.05-2.33-.07-.36-.38-.86-.59-1.29,1.37-.68,2.74-1.45,4.1-2.32,1.36,2.41,2.11,5.12,2.84,7.79.66,2.43,1.1,5-.11,7.22v22.42c.67,15.83.97,7.95,1.64,23.78.18,4.33.49,9.04-1.64,12.81v17.13c.69,11.16,1.11,12.29,1.33,11.14-.07,1.79-.15,4.46-.25,8.35.61.39,1.35.38,2.09.37-.12-7.67-.23-15.35-.23-23.02v-52.38c.62-13.35.49-26.67-.05-39.99.91-.85,1.81-1.76,2.68-2.74v2.08c1.42,4.4,2.12,9.09,1.47,13.67v15.16c1.42,8.17,1.96,40.21,1.37,48.48.79-1.43,1.15-3.08,1.07-4.72v-36.93c-.86-1.98-1.19-4.2-.98-6.35v-10.75c-.3-1.96-.68-3.91-.98-5.87v-8.37c1.01-2.33,1.44-5.18,0-7.27v-1.5c1.41-1.84,2.73-3.88,3.95-6.14v2.66c-.04,7,.53,14.01.49,21.01v48.44c-.32.74-.47,1.48-.44,2.29.49,11.14.98,42.04,1.47,53.18,1.44-3.27-.69-7.46,1.17-10.51-.11-.9-.14-1.81-.25-2.71ZM33.88,257.16c.2.5.34.3.44-.16,0,.16-.01.31-.02.49-.13,3.05-.27,1.66-.42-.33Z"/>
        <path d="M11.74,175.69v4.36c.08,0,.16,0,.21.05-.21.45-.15.98-.13,1.48.03.63.03,1.27-.08,1.89v5.5c-.13,1.04-.19,2.09-.08,3.13.04,1.1.04,2.19.08,3.29v2.1c.13,0,.27-.03.38-.1,0-.6-.02-1.19-.02-1.79v-2c.06-.68.03-1.37-.02-2.06-.02-.31-.05-.63-.04-.94,0-.22.03-.43.05-.65.16-1.68.28-3.38.44-5.06v-4.16c.33,0,.65.06.97.02-.03-.74-.06-1.49-.09-2.23l-1.67-2.84Z"/>
      </g>
      <path class="cls-1" d="M92.78,135.82l-.03-135.82h-9.01v136.41c-.17,30.87-13.38,47.86-37.26,47.86-21.59,0-37.27-20.37-37.27-48.45H.18c0,33.31,19.47,57.48,46.3,57.48,13.84,0,45.93-6.43,46.3-57.48h0Z"/>
    </g>
  </g>
</svg>