<?xml version="1.0" encoding="UTF-8"?>
<svg id="Layer_2" data-name="Layer 2" xmlns="http://www.w3.org/2000/svg" viewBox="0 0 242.327 534.958">
  <g id="Layer_1-2" data-name="Layer 1">
    <g>
      <path d="M239.03,365.379c-.134.002-.268.003-.376.031h-.053l-.832.257-9.847,2.805c-.057-.249-.195-.466-.385-.628l7.448-7.764.293-.333c.078-.138.159-.248.238-.386.897-1.601.335-3.624-1.236-4.51-1.572-.887-3.557-.34-4.455,1.261-.079.138-.131.275-.184.411l-.206.825-2.097,8.414C226.204,125.613,201.3,0,177.161,0h-.014c-20.361.039-34.041,86.092-34.041,214.13h-7.662c0-55.392-5.26-88.748-14.071-89.225-5.768-.315-11.158,14.287-13.77,37.363l-.218-.013c-.146,2.705-.351,6.171-2.07,8.353-1.773,2.235-5.649,3.918-8.481,4.084l-.991,18.293c4.699-.171,9.319-2.789,11.217-7.35,1.553,4.809,5.557,7.641,10.357,8.562l.991-18.293c-2.694-.424-5.859-2.067-7.447-4.22-2.094-2.722-1.872-6.074-1.696-9.323l-.316-.018c2.105-18.3,6.857-36.074,12.22-36.074.044,0,.087,0,.132.004,5.903.32,12.795,23.522,12.795,87.857h.674v138.927c-.167,31.436-13.38,48.744-37.26,48.744-21.595,0-37.269-20.751-37.269-49.343h-8.361c0-50.623-7.691-90.285-17.51-90.294h-.003c-12.87,0-26.733,69.132-27.195,262.8l-.729-2.841-.014-.028v-.041s-.117-.454-.117-.454v-.013c-.027-.069-.053-.138-.092-.206-.438-.799-1.432-1.069-2.216-.622-.785.446-1.061,1.458-.623,2.256.039.069.078.124.12.193l3.667,3.794c0,.187-.002.369-.002.557l-4.78-1.33-.026-.014-.026-.015-.029-.014-.496-.141h-.014c-.336-.031-.66.036-.971.212-.785.446-1.061,1.456-.61,2.255.331.606.976.913,1.607.836l.406-.106,4.978-1.303c.026.124.092.234.186.318l-3.976,3.982c-.205.273-.329.615-.332.984-.007.918.712,1.664,1.614,1.672.674.005,1.257-.4,1.517-1.001l.097-.342v-.054l1.387-5.047c.067.014.121.029.187.03.068,0,.122-.014.188-.027l1.279,5.041.104.411v.015c.133.329.372.605.694.801.777.472,1.774.206,2.225-.585.355-.614.28-1.369-.147-1.892l-.2-.208-3.645-3.772c.094-.083.163-.192.191-.314l4.929,1.371.08.028.282.084.027.015h.027c.067.015.134.015.214.016.903.008,1.635-.74,1.643-1.645.007-.918-.714-1.678-1.617-1.685-.067-.001-.133-.001-.187.012h-.027l-.418.119-4.95,1.304c-.013-.063-.036-.122-.068-.176,0-.088,0-.173,0-.26l3.68-3.688.15-.163c.041-.068.082-.123.123-.191.464-.791.203-1.808-.574-2.266-.778-.46-1.775-.207-2.24.585-.041.068-.067.137-.095.205l-.111.409-.928,3.439c.199-88.668,3.178-157.227,8.86-203.778,6.405-52.482,14.014-58.15,16.99-58.15h.002c3.955.004,8.118,9.344,11.137,24.985,3.242,16.803,5.028,39.509,5.028,63.938h.672c0,33.922,19.474,58.545,46.303,58.545,13.842,0,45.933-6.549,46.302-58.545l-.033-138.327h.672c0-65.839,3.47-120.907,10.033-159.254C162.45,8.345,172.104,1.38,177.15,1.37h.012c11.608,0,23.351,32.821,32.217,90.052,7.248,46.786,15.994,132.504,16.621,275.479l-2.565-9.233-.026-.053v-.083s-.253-.902-.253-.902v-.027c-.057-.136-.114-.272-.194-.407-.907-1.579-2.905-2.077-4.456-1.154-1.551.924-2.064,2.959-1.157,4.538.08.136.16.244.245.38l7.954,7.911c-.188.165-.319.415-.371.662l-9.694-2.489-.053-.027-.053-.029-.058-.027-.997-.261h-.026c-.674-.048-1.318.098-1.934.462-1.551.923-2.064,2.956-1.131,4.535.686,1.199,1.987,1.786,3.247,1.608l.807-.229,9.902-2.806c.058.246.194.463.385.628l-7.795,8.124c-.398.553-.632,1.242-.624,1.98.021,1.837,1.488,3.299,3.293,3.279,1.345-.017,2.498-.852,2.994-2.063l.181-.688v-.11s2.574-10.147,2.574-10.147c.134.026.242.053.376.052.137-.002.243-.032.377-.061l2.754,10.028.225.819v.03c.277.652.767,1.196,1.418,1.573,1.572.913,3.557.34,4.427-1.261.685-1.242.507-2.747-.368-3.779l-.408-.407-7.434-7.394c.186-.168.319-.389.37-.636l9.908,2.543.162.051.566.157.054.029h.054c.134.025.269.023.43.021,1.805-.022,3.241-1.546,3.22-3.356-.021-1.836-1.493-3.326-3.296-3.304Z"/>
      <path d="M143.803,352.486l-.034-135.818h-9.008v136.406c-.167,30.865-13.38,47.86-37.259,47.86-21.594,0-37.268-20.375-37.268-48.448h-9.034c0,33.307,19.473,57.482,46.302,57.482,13.841,0,45.931-6.43,46.301-57.482h0Z" fill="#9500ff"/>
    </g>
  </g>
</svg>