<?xml version="1.0" encoding="UTF-8"?>
<svg id="Layer_2" data-name="Layer 2" xmlns="http://www.w3.org/2000/svg" viewBox="0 0 123.641 295.811">
  <g id="Layer_1-2" data-name="Layer 1">
    <g>
      <path d="M36.305,152.936c-5.653-17.338-1.416-44.217-1.42-62.326,0-2.549.028-5.099.079-7.647.005-.328-.419.466-.401.433-9.633,17.323-23.082,43.771-28.368,62.906C.923,165.381-1.261,185.579.725,205.314c1.811,17.995,7.623,35.723,18.755,50.15,10.605,13.744,25.751,23.661,43.137,25.953,8.653,1.141,17.601.393,25.825-2.603,1.015-.37,2.021-.774,3.01-1.212.496-.22.988-.447,1.476-.684.403-.195,1.258-.775,1.511-.581.454.349.546,2.022.622,2.597.118.91.141,1.833.077,2.749-.129,1.87-.354,2.751-1.285,4.131-.99,1.467-2.251,2.768-3.685,3.806-1.478,1.07-3.142,1.804-4.918,2.212-.44.1-.855,1.542-1.003,1.908-.07.175-.601,2.069-.604,2.07,7.393-1.698,11.827-9.354,12.971-16.41.281-1.731.294-3.496-.06-5.219-.062-.296-.133-.592-.215-.884-.057-.204-.091-.437-.188-.626-.175-.342-.006-.368-.343-.372-.336-.003-1.146.58-1.458.73-.551.263-1.105.516-1.665.758-4.093,1.767-8.423,2.959-12.833,3.597-17.548,2.537-35.394-3.553-48.64-15.101-13.382-11.666-22.073-27.977-26.203-45.101-4.726-19.591-4.233-40.656-.478-60.373,3.737-19.625,16.426-46.446,25.703-64.078,1.001-1.902,2.027-3.79,3.066-5.671-.357,18.931-5.024,46.505-.078,64.884.309,1.148.648,2.295,1.001,3.44.933-.136,1.868-.252,2.807-.334-.25-.703-.497-1.408-.727-2.115Z"/>
      <path d="M57.614,187.923c6.827,3.765,14.604,5.353,22.351,5.469,1.621.024,3.236-.045,4.835-.212l.283-.027c38.555-3.675,38.557-49.137,38.557-65.007l-.04-128.146h-10.482v128.146c0,12.439,1.452,60.573-32.6,60.573-6.422,0-12.68-.728-18.502-3.372-12.66-5.749-20.454-17.578-24.984-30.296-.939.082-1.875.198-2.807.334,4.036,13.073,11.07,25.743,23.389,32.537Z" fill="#9500ff"/>
    </g>
  </g>
</svg>