<?xml version="1.0" encoding="UTF-8"?>
<svg id="Layer_2" data-name="Layer 2" xmlns="http://www.w3.org/2000/svg" viewBox="0 0 145.535 266.383">
  <g id="Layer_1-2" data-name="Layer 1">
    <g>
      <path d="M95.069,190.71c-1.653-6.155-2.172-12.505-2.44-19.301-.205-5.192-1.169-10.475.112-15.597.27-1.075.643-2.18,1.448-2.94.776-.733,1.843-1.046,2.809-1.501.966-.454,1.935-1.185,2.106-2.239-1.468,1.035-3.644.495-4.868-.82-1.225-1.314-1.661-3.185-1.747-4.979-.11-2.286-.128-4.636-.128-6.92-.004-14.446-.007-28.892-.011-43.338-.001-3.193-.559-6.619.03-9.758.163-.869.532-1.758,1.268-2.247,2.277-1.512,3.346,2.402,3.528,3.915.291,2.409-.275,4.84-.213,7.266.021.8.131,1.651.646,2.263.514.613,1.558.833,2.112.255.32-.333.396-.825.436-1.285.675-7.833-4.985-14.841-5.94-22.645-.256-2.09-.167-4.211.08-6.303.767-6.466,3.094-12.161,6.647-17.561.214-.325.432-.648.652-.97,7.133-10.4,16.417-18.104,29.292-19.842,4.506-.609,9.366-.524,13.159-3.031.742-.49,1.484-1.191,1.489-2.08.009-1.504-2.109-2.141-3.465-1.493-1.356.648-2.224,1.991-3.376,2.957-1.704,1.428-4.1,1.988-6.261,1.464-.421-.102-.846-.251-1.167-.543-.754-.688-.656-1.967-.064-2.799,1.549-2.18,4.172-3.688,5.787-5.979,1.893-2.683,3.138-5.952,2.778-9.276-.198-1.826-.952-3.7-2.473-4.729-1.521-1.029-3.893-.873-4.909.657-.891,1.343-.505,3.11-.366,4.714.414,4.79-1.769,9.545-5.04,13.067-3.271,3.523-7.544,5.957-11.918,7.951-3.694,1.684-8.103,3.071-11.678,1.147-2.434-1.309-3.927-3.945-4.508-6.647-.582-2.701-.374-5.502-.163-8.258-2.166,4.187-3.037,9.033-2.465,13.712.549,4.488,2.379,8.776,2.613,13.291.234,4.516-1.825,9.716-6.189,10.897-2.704.732-5.529-.255-8.281-.778-3.448-.655-7.138-.546-10.311.953-3.174,1.498-5.728,4.551-6.034,8.047-.191,2.191,1.366,4.968,3.49,4.395,2.283-.616,2.011-3.847,2.26-6.198.217-2.05,1.316-4.055,3.097-5.092,1.782-1.038,4.24-.936,5.758.458,2.19,2.013.706,8.777.706,11.988v127.15c-.167,30.787-13.346,47.739-37.164,47.739-21.539,0-37.173-20.323-37.173-48.325H.007C.007,224.747,19.43,248.86,46.191,248.86c4.573,0,9.2-.622,13.577-1.964,2.425-.743,7.299-4.51,9.655-1.857,1.056,1.189,1.189,2.912,1.249,4.501.113,2.999.141,6.074-.845,8.909-.714,2.054-1.966,4.077-1.646,6.228.068.462.221.932.547,1.267.843.862,2.431.354,3.067-.67.636-1.024.599-2.313.535-3.517-.374-7.116-.799-14.676,2.641-20.917,3.273-5.94,8.103-10.581,11.055-16.814,1.814-3.83,3.83-23.531,9.298-22.753,1.775.253,3.067,1.776,4.091,3.248,1.947,2.797,3.635,6.02,3.44,9.422-.203,3.537-2.426,6.915-1.767,10.395.066.349.169.706.409.966.623.672,1.774.335,2.468-.263,2.091-1.799,2.151-4.983,1.818-7.721-.349-2.863-.952-5.721-2.135-8.351-.967-2.149-2.304-4.108-3.503-6.136-2.369-4.004-3.974-8.02-5.075-12.123"/>
      <path d="M92.603,191.599l-.034-135.818-8.52.488-.488,135.919c-.167,30.865-13.38,47.86-37.259,47.86-21.594,0-37.268-20.375-37.268-48.448H0c0,33.307,19.473,57.482,46.302,57.482,13.841,0,45.931-6.43,46.301-57.482h0Z" fill="#9500ff"/>
    </g>
  </g>
</svg>