<?xml version="1.0" encoding="UTF-8"?>
<svg id="Layer_2" data-name="Layer 2" xmlns="http://www.w3.org/2000/svg" viewBox="0 0 109.145 202.157">
  <g id="Layer_1-2" data-name="Layer 1">
    <g>
      <path d="M54.398,202.157c.351,0,.702-.003,1.051-.011,2.647-.056,5.249-.322,7.791-.784,14.076-2.557,26.341-11.123,34.591-23.22,3.891-5.194,7.118-11.935,9.118-20.65.66-2.731,1.146-5.539,1.453-8.407.45-3.703.71-7.692.741-12.004l-.033-132.535c0-2.511-2.036-4.546-4.546-4.546s-4.546,2.036-4.546,4.546v86.389c-.009,5.489-12.745.504-25.736-5.009h0c-6.162-2.687-12.871-4.164-19.885-4.164-2.812,0-5.575.237-8.273.695C20.042,86.881,0,111.879,0,141.96c0,33.193,24.403,60.197,54.398,60.197ZM54.398,84.385c12.491,0,23.962,4.943,32.914,13.163.047.043.091.09.137.133,9.57,9.181,12.567,30.905,12.569,39.987v.007c-.169,31.152-13.504,48.305-37.605,48.305-20.667,0-35.961-18.491-37.489-44.564-.142-2.424-2.109-4.335-4.537-4.335h-.027c-2.592,0-4.693,2.169-4.546,4.757,1.634,28.862,18.123,49.979,41.06,52.911,0,0,.002,0,.002,0,5.143.752.028,4.897-6.202,4.625-.298-.024-.598-.037-.895-.066-.004,0-.009,0-.013-.001t0,0c-26.388-2.613-47.143-27.336-47.143-57.347,0-31.747,23.225-57.575,51.775-57.575Z"/>
      <path d="M109.108,138.043l-.034-132.453-9.008-.057v133.099c-.167,30.865-12.767,47.86-36.646,47.86-21.594,0-37.393-17.428-38.539-45.574l-9.05.257c2.016,31.489,20.147,53.731,46.976,53.731,13.841,0,45.931-5.809,46.301-56.862h0Z" fill="#9500ff"/>
    </g>
  </g>
</svg>