<?xml version="1.0" encoding="UTF-8"?>
<svg id="Layer_2" data-name="Layer 2" xmlns="http://www.w3.org/2000/svg" viewBox="0 0 87.169 312.421">
  <g id="Layer_1-2" data-name="Layer 1">
    <g>
      <g>
        <path d="M38.448,217.731l-.004-16.2-.004-14.078.004,14.078c0-7.715,24.426,18.321,24.426,18.321,0,0-24.43-27.578-24.43-32.399h0s-.018-72.127-.018-72.127h0s0,0,0,0C38.423,106.358,73.284,0,73.284,0c0,0-32.206,96.292-34.866,96.292-5.313,0-15.417-18.506-19.76-26.968,3.596,7.31,10.617,22.19,10.617,26.968h0s0,0,0,0v118.451c.118,4.874-23.791,28.644-28.476,33.254,4.673-4.564,28.472-27.535,28.476-21.975h0v9.018h9.178l48.717,77.381s-48.721-83.312-48.721-94.691Z"/>
        <path d="M.798,247.997c-.508.497-.798.783-.798.783,0,0,.29-.282.798-.783Z"/>
      </g>
      <polygon points="38.411 233.471 38.376 96.78 29.368 96.78 29.368 233.471 38.411 233.471" fill="#c7a7f9"/>
    </g>
  </g>
</svg>