<?xml version="1.0" encoding="UTF-8"?>
<svg id="Layer_2" data-name="Layer 2" xmlns="http://www.w3.org/2000/svg" viewBox="0 0 266.487 98.541">
  <g id="Layer_1-2" data-name="Layer 1">
    <g>
      <path d="M219.528,67.139c0-3.853,28.488-42.367,46.959-67.139-20.407,25.915-56.486,67.139-79.505,67.139h-88.747c-15.82,0-33.57-11.86-33.57-11.86l16.061,11.859c0,5.806-62.49,19.815-80.726,23.779,16.499-3.523,69.276-14.598,80.726-14.598h0s10.704-.003,10.704-.003c4.133.014,36.843,15.663,36.843,15.663,0,0-29.132-15.667-21.801-15.667h-3.996s3.996,0,3.996,0l7.776-.002,14.084-.004,72.155-.018c17.33,0,37.462,22.25,37.462,22.25,0,0-18.421-20.785-18.421-22.255v-9.147Z"/>
      <polygon points="81.844 76.204 218.535 76.17 218.535 67.162 81.844 67.162 81.844 76.204" fill="#c7a7f9"/>
    </g>
  </g>
</svg>