<?xml version="1.0" encoding="UTF-8"?>
<svg id="Layer_2" data-name="Layer 2" xmlns="http://www.w3.org/2000/svg" viewBox="0 0 10.87 353.77">
  <defs>
    <style>
      .cls-1 {
        fill: #c7a7f9;
      }
    </style>
  </defs>
  <g id="Layer_1-2" data-name="Layer 1">
    <g>
      <path d="M.06,348.17c.21.6.88.86,1.39,1.22,1.37.98,1.32,2.88,1.58,4.38.88-.26,1-1.45.93-2.36-.32-4.2-1.03-8.33-1.94-12.44-.51-2.33,0-5.35,0-7.72v-19.05c0-8.07-.13-16.15,0-24.22.13-8.33,1.26-16.58,1.04-24.95-.15-5.68-2.12-12.63-1.04-18.17,1.35-6.96.36-14.69.36-21.79v-7.51c0-13.22.11-26.43.21-39.65.05-6.84.1-13.67.13-20.51,0-1.6-1.39-6.6.09-7.61.52,1.4.72,2.94.48,4.41v14.58c.3,0,.64,0,.84.22-.04,2.69.83,5.35.59,8.03-.17,1.91-.9,3.8-.59,5.69.18,1.14.69,2.31.29,3.4v18.22c-.53-.22-.86.57-.89,1.14-.08,1.33-.09,2.85.87,3.76.76-3.17,1.04-6.42,1.14-9.68v-19.6c1.46-7.27-1.57-14.43-1.12-21.84v-3.64c0-1.61.31-3.22.91-4.72.48-1.19,1.28,1.63,1.26,1.56.15.54-.21,1.91-.21,2.59.59,0,1.18-.05,1.74.11.62,6.34,1.06,12.7,1.29,19.07v56.25c-.31-.22-.55.33-.55.7,0,4.85,0,9.7,0,14.55,0,.63,0,1.29.3,1.84.3.55.98.95,1.56.71.08-2.46-.19-4.93-.76-7.33v-31.16c.83-7.59,1.05-15.25.83-22.89v-17.39c-.28.11-.64,0-.84-.23,0-4.05,0-8.11.01-12.16v-6.09c-.47.06-.99-.42-1.13-.87-.14-.45-.07-.93.01-1.39.3-1.83.54-3.67.74-5.52,1.43-13.5.37-27.52.37-41.02,0-23.33-.01-46.66-.02-69.99,0-15.11,0-13.18-.01-28.29,0-.46,0-.37,0-.83H.54v99.45c0,13.5-1.26,27.83.06,41.15.41,4.1.65,8.22.7,12.34v176.38c0,5.39.94,12.33-1,17.34-.19.48-.4,1.01-.23,1.5Z"/>
      <polygon class="cls-1" points=".63 .14 .66 136.83 9.67 136.83 9.67 .14 .63 .14"/>
    </g>
  </g>
</svg>