<?xml version="1.0" encoding="UTF-8"?>
<svg id="Layer_2" data-name="Layer 2" xmlns="http://www.w3.org/2000/svg" viewBox="0 0 140.64 446.62">
  <defs>
    <style>
      .cls-1 {
        fill: #c7a7f9;
      }
    </style>
  </defs>
  <g id="Layer_1-2" data-name="Layer 1">
    <g>
      <g>
        <path d="M103.06,104.04c-1.36,5.64-1.52,11.53-.7,17.28v54.49c.58,0,1.17-.07,1.67-.37-.33-2.8-.59-5.61-.92-8.41v-40.75c.14-3.68.18-7.37,0-11.05v-4.21c1.09-1.83,1.7-4.02,1.13-6.08v-1.94c-.68.07-1.24-1-.75-1.49h-.38c-.02-.49-.04-.99-.06-1.48-.17-.07-.33-.02-.46.1.2-2.07.26-4.16.15-6.24v-25.16c-.46.29-.96-.09-1.12-.61,0-.01,0-.03,0-.04v35.74c.49,0,.97.13,1.45.23Z"/>
        <path d="M138.86,174.15v-25.78c.74-3.13-1.56-6.45-.65-9.54.11-.37.26-.72.35-1.09.13-.55.11-1.13.09-1.7-.32-9.23-.03-18.52.21-27.75V23.65c.47-7.24,1.79-16.36,1.79-23.61,0,2.02-137.89-.01-139.35-.04-.17,3.13-.32,8.43-.45,11.56-.59,14.14-.75,28.27-.1,42.45v95.79c-.52,33.6-.32,67.21-.4,100.82.8.02,1.62.05,2.29-.38-.73-29.93-.7-59.92,1.11-89.79v-25.09c-2.17-3.9-1.86-8.77-1.67-13.24.68-16.36.99-32.74,1.67-49.1v-40.3c-1.23-2.29-.79-4.94-.11-7.46.81-3.03,1.65-6.11,3.3-8.76.76-1.23,3.43-4.74,5.12-2.78.59.68.66,1.66.71,2.56.14,2.77.44,5.53.58,8.3v18.04c.35,5.14.15,10.31.51,15.45v42.76c1.37,9.13,1.38,18.36.99,27.59-.3,7.29-.69,14.58-.99,21.87v41.22c-.02,1.89.08,3.79.11,5.68.08,6.41.67,12.81,1.75,19.13.52.2.81-.6.81-1.16-.06-6.17-.07-12.33-.13-18.5v-10.32c-.53-10.64-1.13-21.28-1.01-31.93,0-6.83.27-13.56.55-20.38.27-6.75.54-13.5.81-20.25.17-4.2-.26-8.13-.28-12.28-.04-7.89.38-15.85-1.02-23.65-.92-5.16-.4-11.89-.06-17.2.3-4.63.19-9.28,0-13.91v-17.52c1.31-3.41,1.44-7.27.51-10.81-2.69-10.27,14.66-11.16,11.21,1.65v16.57c-.38,7.3.15,14.66.96,21.92v16.09c.04,1.29.02,2.46.07,3.75.18,5.24.24,10.49.41,15.73v5.85c-.28.47.39,1.16.86.9.61-4.32.75-8.76.1-13.08v-9.76c-.07-2.6.06-5.24-.48-7.78v-13.65c-.1-4.55.19-9.14-.48-13.63v-10.28c1.16,0,1.06-1.53.79-2.67-.84-3.55-1.1-7.36-.31-10.93,0,0,0-5.87,0-5.87,1.46-1.7,7.81-4.45,7.81.39v20.42c.57,0,.73.46.8,1.04.66,5.96,1.21,12.02.95,18.02v23.51c-.08,3.12-.16,6.28-.87,9.31v24.84c2.4,28.95,4.8,57.91,6.11,86.94v32.38c-.89,3.66,0,82.78,2.01,85.95.72-.27.68-1.3.51-2.06-.46-2.04-.76-4.15-1.21-6.19v-91.46c-.32-2.06-.63-4.13-.44-6.2v-11.54c.95-3.83-.06-7.66-.55-11.59-.38-3.06-.51-6.24.11-9.25v-18.63c-.6-4.43-1.15-8.87-1.75-13.3v-24.4c-.17-3.09.17-6.22,0-9.31v-40.39c-1.02.06-1.28-1.17-1.31-2.2-.1-3.09-.33-6.21-.44-9.31v-6.71c-.97-.38-1.52-1.78-.87-2.6v-14.26c.59,0,1.19.13,1.75-.08v-4.3c0-4.72-2.86-20.02,3.99-20,.01,5.05.01,10.11.02,15.16v17.68c-.47,6.94.1,13.91,1.49,20.71v24.76c.61,2.28.67,4.57.56,6.93-.23,4.93-.14,9.98.93,14.79v9.61c.53.75,1.45,33.75,1.46,32.82.07-4.71-.11-43.87-.97-48.5v-10.61c-.22-2.86-.28-5.73-.5-8.59v-15.66c.32-4.28.05-8.64-1.49-12.63v-10.62c-.17-3.88-.35-7.82.5-11.61v-15.69c0-1.8-.01-3.67.39-5.44.15-.65,1.08-3.48,2.14-2.41v4.51c.08,0,.16,0,.22.05-.21.47-.15,1.01-.13,1.53.03.65.03,1.31-.09,1.95v5.68c-.13,1.08-.19,2.16-.08,3.24.04,1.13.04,2.27.08,3.4v2.17c.13,0,.27-.03.39-.1,0-.62-.02-1.23-.02-1.85v-2.07c.06-.71.03-1.42-.02-2.13-.02-.32-.05-.65-.04-.97,0-.22.03-.45.05-.67.16-1.74.28-3.49.45-5.23v-4.3c.33,0,.66.07.99.02-.03-.77-.06-1.54-.09-2.3,0-.24-.02-.49-.03-.73,0-.2-.02-.4,0-.59.06-1.4.39-2.71,1.94-2.85.98-.09,6.81-.76,6.67.71v6.57c.41,2.72.64,5.46.67,8.21v14.23c-.28.05-.45.47-.27.68v.68c-.05.65.21,1.25.36,1.88.15.62.17,1.27.19,1.91.07,2.2.05,4.41.13,6.6v66.8c.59,0,.9.7.97,1.3.06.6.04,1.28.45,1.72.13.03.22-.15.18-.28-.04-.13-.14-.22-.22-.34-.13-.19-.14-.44-.16-.67-.06-.9-.23-1.8-.29-2.7v-2.52c-.21.06-.44.03-.63-.07.72-2.19-.46-51.71.49-53.8v-3.06c.17,0,.33-.06.49-.09.7-3.78.81-7.66.45-11.49v-8.26c-.34.06-.71,0-1.03-.15.06-2.64.12-5.28.18-7.92.03-1.44.14-2.9-.1-4.32v-5.34c-.15-.11-.19-.26-.2-.46-.11-2.22-.22-4.44-.34-6.65v-1.92c.64-2.36,4.2-1.85,6.07-1.7,2.35.19,4.76.91,6.14,2.99v7.59c1.44,4.55,2.16,9.39,1.49,14.13v15.67c1.44,8.44,1.99,41.56,1.4,50.11.81-1.48,1.17-3.19,1.09-4.87v-38.17c-.88-2.05-1.21-4.34-.99-6.57v-11.11c-.3-2.03-.69-4.04-.99-6.06v-8.65c1.03-2.41,1.46-5.35,0-7.52v-5.06c0-2.34,3.03-2.46,3.08.2.26,13.18.51,26.37.77,39.55.17-2.02.18-4.05.35-6.07v-5c.12-1.32,0-2.65-.2-3.96v-1.25c.09-1.25.12-2.5.2-3.75v-4.54s.16-.1.15-.23c-.17-2.09-.4-4.19-.56-6.28v-3.13c-.1-1.6-.26-3.19-.21-4.78.08-2.3,1.9-5.1,1.85-1.25v5c.35,2.95,1.2,5.84.62,8.75v1.04c.24,2.42.22,4.86.21,7.29v5c.16-.91.38-1.79.47-2.71.09-.94.1-1.88.12-2.82.02-1.7,0-3.4.03-5.1v-5.42c-.18-2.79-.4-5.58-.82-8.34v-5.07c0-.13,5.32-.19,5.72.98.59,1.73.83,3.59.66,5.41v15.16c-.04,7.24.54,14.48.5,21.72v67.19c-.33.77-.48,1.53-.45,2.37.5,11.51.99,23.02,1.49,34.53,1.46-3.38-.71-7.71,1.19-10.86-.11-.93-.14-1.87-.25-2.8v-9.15c-.78.28-1.19-1.01-1.11-1.84.24-2.56.38-5.13.61-7.7v-26.29c-1.19-.5-1.26-1.93-1.1-3.23,1.15-9.31,1.29-18.72.6-28.08v-20.21c.03-6.4-.03-12.8,0-19.2v-15.16c1.04-1.06,1.7-1.64,1.74-3.15,2.11.04,6.68.3,7.85,2.53,1.29,2.47,2.02,5.23,2.13,8.03v45.97c.04-.21.09-.41.15-.61,1.45-5.31,1.64-11.01.6-16.42v-8.77c.66-2.1,1.17-4.3.75-6.47v-3.05c-.14-1.4-.23-2.8-.37-4.19v-11.81c-.2.08-.22-.21-.17-.43.32-1.23,3.87-5.04,4.17-2.35.39,3.54.62,7.15.4,10.71v11.9c-.13,5.28.26,10.57.77,15.82.08-.12.18-.24.29-.33-.2-1.97-.34-3.96-.18-5.94v-2.7c-.05-2.52-.12-5.05-.18-7.57v-6.67c-.09-2.94-.24-5.89-.18-8.83v-5.05c0-.94.17-2.02,1.05-2.28.14.15.18.34.19.56,0,.82,0,1.64.01,2.46v8.83c-.05,1.51-.07,3.05.14,4.55.1.76.24,1.51.32,2.27.11,1.06.1,2.13.09,3.19-.02,1.6-.17,3.18-.18,4.78v35.33c.2,0,.42,0,.58.14-.03,1.68-.07,3.35-.1,5.03-.06,2.84-.28,5.74.23,8.53v10.11c.19,0,.38-.01.57-.02-.03-2.4-.19-4.8-.22-7.2v-2.53c.11-1.44.25-2.88.18-4.32v-7.05c-.22.06-.47-.02-.64-.16.5-1.7.4-3.57-.24-5.22v-10.82c.21-2.1.36-4.2.35-6.31v-13.18c-.19-.02-.37-.04-.56-.06.51-3.49.7-7.03.56-10.56v-15.5c0-1.28.15-3.25,1.53-3.77,1.94-.72,3.85,1.64,3.73,3.4v16.44c.52,0,1.08.01,1.47.36-.53,3.38-.74,6.8-.6,10.22v14.2c.63,0,.91-.62.91-1.26-.02-2.54-.02-5.09-.04-7.63v-5.32c.52-3.66.67-7.38.44-11.07v-1.4c-.93-1.45-1.6-3.1-1.31-4.8,0-2.73-.89-7.11,0-9.64.43-1.22,1.31-2.11,2.44-2.67.84-.42,2.92-1.27,3.73-.6.08-.08.17-.16.25-.23.64.39,1.01,1.2,1.06,1.96v2.55c.19.21.23.43.23.72.02,2.18.23,4.36.48,6.53v10.28c.17,0,.26.2.26.37-.08,2.65-.16,5.3-.24,7.94.18.06.37.11.56.14-.05-.32-.06-.64.01-.96v-5.32c.01-1.09-.01-2.18,0-3.26v-2.67c0-.51-.07-1.03-.07-1.54,0-2.1.11-4.23-.17-6.31v-3.63c-.21-2-.28-4,.6-5.81v-.65c.97-.01,2.39-.48,2.45.92.03.8.04,1.6-.07,2.39v2.91c.13,2.36.13,4.72.26,7.09.02.43.17.82.22,1.26v-2.42c.19-.15.13-.48.11-.72-.08-1.21-.28-2.42-.35-3.64v-2.55c.13.09.22-.12.23-.28.07-1.02.15-2.04.22-3.06.05-.63.55-2.24,1.29-1.03.19.3.22.68.25,1.03.06.71.11,1.43.16,2.14v4.36c.03.77-.08,1.54,0,2.31.14,1.4.21,2.82.35,4.22v4.6c-.06,1.09-.18,2.17-.24,3.26v7.29c.22,0,.45-.01.66.06-.02-.19-.03-.39-.06-.58v-3.15c-.1.11-.24-.12-.24-.28,0-1.56.11-3.12.12-4.67v-2.3c.09-2.34.15-4.68.24-7.01v-4.13c-.12-.01-.25-.02-.37-.03.06-2.12.06-4.24.01-6.36v-.97c0-.93,3.75-.82,4.48-.8,1.39.03,2.08.55,2.68,1.86,1.48,3.28,0,10.81,0,14.41v9.94c-.31,4.76-.09,9.55-.4,14.31v43.35c-1.07,6.43-1.66,12.94-1.21,19.45.27.06.54.08.81.14v20.48c.03,6.69-.76,13.38-1.74,20,.31.01.62,0,.94.02v43.78c-.05,4.13-.06,8.26-.11,12.39,0,.57.49,1.46.91,1.09v17.6c-.33,3.67.07,7.41,1.04,10.96.14-.35.03-.8.17-1.14v-23.31c.15-6.45.42-12.9.57-19.34.09-3.87.18-7.74.27-11.61.07-3.04.14-6.08.52-9.09.13-1.05.25-1.8-.56-2.47Z"/>
        <path d="M130.93,41.7s-.1-.05-.15-.07c.01.13.03.25.04.38.03-.1.06-.21.11-.31Z"/>
        <path d="M130.85,43.31c.02-.44.01-.87-.02-1.31-.12.43-.12.89.02,1.31Z"/>
        <path d="M0,259.28c0,2.83-.03,5.57.27,8.31.04-5.66.06-11.32.08-16.98-.12,0-.23,0-.34,0v8.67Z"/>
        <path d="M101.61,68.08v-.96c-.06.32-.09.65,0,.96Z"/>
        <path d="M0,338.59v75.82C0,418.71,0,423,0,427.3c0,2.4.04,4.69.23,7.05.29,3.73-.77,8.74,1.66,11.91.19.25.56.49.78.27.13-.13.11-.34.08-.51-.24-1.52-.75-3.01-1.49-4.35.38.05.72-.43.55-.78.44.2.85.26,1.29.04.86-4.57-1.41-9.47-1.59-14.08-.11-2.67-.21-5.33-.27-8-.3-12.71.93-25.32.68-37.97-.25-12.95-.38-25.92-.03-38.87.41-15.23,1.1-30.4.27-45.62-.1-1.92-.21-3.85.05-5.76.35-2.57,1.35-5.05,1.35-7.64,0-3.89-1.61-7.61-2.57-11.29-.36-1.38-.58-2.74-.73-4.1-.06,8.63-.13,17.27-.27,25.9v45.09Z"/>
      </g>
      <polygon class="cls-1" points="2.63 10.11 139.32 10.07 139.32 1.06 2.63 1.06 2.63 10.11"/>
    </g>
  </g>
</svg>