<?xml version="1.0" encoding="UTF-8"?>
<svg id="Layer_2" data-name="Layer 2" xmlns="http://www.w3.org/2000/svg" viewBox="0 0 137.28 190.72">
  <defs>
    <style>
      .cls-1 {
        fill: #c7a7f9;
      }
    </style>
  </defs>
  <g id="Layer_1-2" data-name="Layer 1">
    <g>
      <g>
        <path d="M119.04,9.26c.25,12.75.5,25.51.76,38.26.17-1.95.18-3.92.35-5.87v-4.84c.17-1.92-.12-3.94-.27-5.85-.17-2.1.07-4.2.28-6.29.24-2.44-.21-4.77-.41-7.21v-3.03c-.1-1.54-.26-3.08-.2-4.63l-.5-.54Z"/>
        <path d="M136.3,53.92v-10.75c-.28-1.85-.82-3.74-.78-5.61.05-2.41.7-19.5.76-21.91.03-1.51.4-2.92.5-4.4.05-.74.09-1.46-.03-2.2h.19V.03H0v9.06h1.86c.2,2.54.47,5.08.65,7.62l-.18,13.85c.12,5.12.81,10.23.93,15.35l-.09,6.74c.24,2.61.47,5.23.27,7.85l-.26,20.2c0,.62-.02,1.25-.02,1.87l-.05,4.11c.04,3.02.39,6.04.43,9.07.02,1.75.05,3.51.07,5.26.08,6.22.17,12.44.58,18.65.31,4.6.77,9.2.57,13.81l-.39,30.3c-.56,2.69-.54,5.51-.11,8.23l-.03,2.65c.33,0,.45.51.33.81-.12.3-.4.51-.6.77-.47.62-.45,1.46-.42,2.23.2,4.1.53,8.19,1,12.27,1.97-1.56,1.58-4.65,1.07-7.11l.02-1.91c-.12-.11-.25-.23-.37-.34l.1-7.48c.05-4.24.11-8.48.16-12.72l.41-31.8c-.4-.91-.68-1.91-.72-2.91-.05-1.14.15-2.28.26-3.42.23-2.25.25-4.54-.13-6.77l.12-9.01c-1.24-2.43-1.62-5.45-.27-7.83l.02-1.54c.64-1.47.67-3.33.06-4.82l.05-4.18c-.74-1.09-1.19-2.46-.7-3.68l.05-4.13c-.72-.65-1.09-1.72-.71-2.61l.02-1.87c.01-.75.02-1.5.03-2.24l.2-15.71c.65-3.2.63-6.5.12-9.73l.2-15.34c.04-3.49.09-6.98.13-10.47l.03-2.72c-.41.19-.63-.45-.64-.9-.08-3.46-.15-6.92-.23-10.38h9.42c-.01.11-.01.23-.03.34v5.5c-.13,1.04-.19,2.09-.08,3.13.04,1.1.04,2.19.08,3.29v2.1c.13,0,.26-.03.38-.09,0-.6-.02-1.19-.02-1.79v-2c.06-.68.03-1.37-.02-2.06-.02-.31-.05-.63-.04-.94,0-.22.03-.43.05-.65.16-1.68.28-3.37.44-5.06v-1.77h4.07c.1,1,.19,2,.32,3v6.49c-.01,2.16,0,4.32,0,6.48v2.83c-.37,2.24-.09,4.58.56,6.76v29.05c.55,1.31.59,2.83.54,4.25-.04,1.26-.32,2.52-.15,3.77.11.79.4,1.56.43,2.35.02.53-.08,1.07-.16,1.59-.3,1.96-.34,3.95-.14,5.92.24,2.3,1,4.98-.24,6.94v3.99c.29.22.76-.02.95-.34.19-.31.2-.7.2-1.07-.01-2.36-.01-4.73-.02-7.09v-14.11c.46,0,.56-.6.58-1.06.12-2.65-.01-5.35-.58-7.95v-2.54c-.38-2.62-.93-5.25-.85-7.9v-12.69c.27-2.73.31-5.5-.28-8.18v-2.55c.09-2.91-.09-5.82,0-8.73v-9.2h5.5s0,2.23,0,2.23c.4,2.63.63,5.28.66,7.94v13.76c-.27.05-.45.45-.26.66v.66c-.04.62.21,1.21.35,1.82.14.6.17,1.23.19,1.85.07,2.12.05,4.26.12,6.39v16.32c.58,0,.89.68.95,1.26.06.58.04,1.24.45,1.66.13.03.22-.14.18-.27-.04-.13-.14-.22-.21-.33-.12-.19-.14-.42-.16-.65-.04-.62-.14-7.57-.21-11.86.09-.02.19-.04.28-.06.68-3.66.8-7.41.44-11.11v-7.99c-.34.06-.7,0-1.01-.14.06-2.55.12-5.11.18-7.66.03-1.39.14-2.81-.09-4.18v-5.16c-.15-.11-.19-.26-.2-.44-.08-1.57-.16-3.13-.24-4.7h10.6c.08,1.72.08,3.45-.03,5.17v11.51c-.13,5.11.25,10.22.76,15.3.08-.12.18-.23.29-.32-.2-1.9-.33-3.83-.17-5.74v-2.61c-.05-2.44-.12-4.88-.17-7.32v-6.45c-.09-2.85-.23-5.69-.17-8.54v-.98h1.22s0,5.34,0,5.34c-.05,1.46-.07,2.95.13,4.4.1.73.24,1.46.31,2.19.11,1.02.1,2.06.09,3.09-.02,1.54-.17,3.08-.18,4.62v17.62c.12,0,.24.01.35.04v3.44c.08-.78.15-1.57.2-2.35-.03,1.29-.05,2.58-.08,3.87-.06,2.75-.27,5.55.23,8.25v9.78c.19,0,.38-.01.56-.02-.03-2.32-.18-4.64-.22-6.96v-2.45c.11-1.39.24-2.78.17-4.18v-6.82c-.21.06-.46-.02-.63-.16.38-1.29.4-2.67.09-3.98,0-.36.02-.71.02-1.07v-12.75c-.18-.02-.37-.04-.55-.06.5-3.38.68-6.8.55-10.21v-11.33l-.09-.29h5.25s0,12.18,0,12.18c.51,0,1.06.01,1.45.35-.52,3.27-.72,6.58-.59,9.89v13.74c.62,0,.9-.6.89-1.22-.02-2.46-.02-4.92-.04-7.38v-5.14c.51-3.54.66-7.14.43-10.71v-1.36c-.91-1.4-1.57-3-1.29-4.64,0-1.57-.31-3.71-.37-5.7h20.87c.06,1.06.2,2.12.52,3.17.32,1.03.37,2.12.42,3.2.38,8.26.55,16.44.55,24.71,1.42,8.16,1.96,23.64,1.37,31.91.79-1.43,1.15-3.08,1.07-4.72v-20.36c-.86-1.98-1.19-4.2-.98-6.35v-10.75c-.28-1.85-.82-3.74-.78-5.61.05-2.41.11-4.81.16-7.22.03-1.51.4-2.92.5-4.4.05-.79.11-1.55-.05-2.33-.07-.35-.37-.83-.58-1.26h10.41s0,2.67,0,2.67c.4,2.63.63,5.28.66,7.94v13.76c-.27.05-.45.45-.26.66v.66c-.04.62.21,1.21.35,1.82.14.6.17,1.23.19,1.85.07,2.12.05,4.26.12,6.39v16.32c.58,0,.89.68.95,1.26.06.58.04,1.24.45,1.66.13.03.22-.14.18-.27-.04-.13-.14-.22-.21-.33-.12-.19-.14-.42-.16-.65-.04-.62-.14-7.57-.21-11.86.09-.02.19-.04.28-.06.68-3.66.8-7.41.44-11.11v-7.99c-.34.06-.7,0-1.01-.14.06-2.55.12-5.11.18-7.66.03-1.39.14-2.81-.09-4.18v-5.16c-.15-.11-.19-.26-.2-.44-.09-1.71-.18-3.43-.26-5.14h10.9c.09.6.2,1.19.39,1.78.32,1.03.37,2.12.42,3.2.38,8.26.55,16.44.55,24.71,1.42,8.16,1.96,23.64,1.37,31.91.79-1.43,1.15-3.08,1.07-4.72v-20.36c-.86-1.98-1.19-4.2-.98-6.35v-10.75c-.28-1.85-.82-3.74-.78-5.61.05-2.41.11-4.81.16-7.22.03-1.51.4-2.92.5-4.4.05-.75.09-1.46-.03-2.2h3.39c.24,12.02.47,24.04.71,36.06.17-1.95.18-3.92.35-5.87v-4.84c.17-1.92-.12-3.94-.27-5.85-.17-2.1.07-4.2.28-6.29.24-2.44-.21-4.77-.41-7.21v-3.03c-.06-.99-.15-1.98-.19-2.97h2.34s-.54,1.97-.54,1.97c.34,2.86,1.17,5.65.6,8.47v1.01c.24,2.34.22,4.7.2,7.05v4.84c.16-.88.37-1.73.46-2.62.09-.91.1-1.82.11-2.73.02-1.64,0-3.29.03-4.93v-5.24c-.17-2.61-.39-5.23-.77-7.81h6.98s-.75,1.03-.75,1.03v14.67c-.04,7,.53,14,.49,21v48.43c-.32.74-.47,1.48-.44,2.29.49,11.13.98,42.03,1.47,53.17,1.44-3.27-.69-7.46,1.17-10.51-.11-.9-.13-1.81-.25-2.71v-35.76c-.76.27-1.17-.98-1.09-1.78.23-2.48.37-21.53.61-24.01v-1.73c-1.17-.49-1.24-1.87-1.08-3.12,1.13-9,1.27-18.11.59-27.16v-2.98c.03-6.19-.03-12.38,0-18.57v-8.31c.17-.93.25-2.48.48-3.97h3.14s0,1.61,0,1.61c.14-.15.31.15.31.35-.03,2.32.03,4.64,0,6.95v2.84c.22.56.22,1.19.15,1.79v1.35c-.05,1.44-.12,2.88-.06,4.32.02.46.04.92.06,1.38.03.64.05,1.28.19,1.9.32-.48.32-1.1.31-1.67-.02-1.23-.02-2.47-.05-3.7v-11.95c.41-.41.27-1.2.21-1.78-.12-1.14-.26-2.27-.39-3.4h14.24s0,5.95,0,5.95c-.05,1.46-.07,2.95.13,4.4.1.73.24,1.46.31,2.19.11,1.02.1,2.06.09,3.09-.01,1.54-.17,3.08-.18,4.62v17.62c.12,0,.24.01.35.04v3.44c.08-.78.15-1.57.2-2.35-.03,1.29-.05,2.58-.08,3.87-.06,2.75-.27,5.55.23,8.25v9.78c.19,0,.38-.01.56-.02-.03-2.32-.18-4.64-.22-6.96v-2.45c.11-1.39.24-2.78.17-4.18v-6.82c-.21.06-.46-.02-.63-.16.38-1.29.4-2.68.09-3.98,0-.36.02-.71.02-1.07v-12.75c-.18-.02-.37-.04-.55-.06.5-3.38.68-6.8.55-10.21v-11.33l-.27-.89h2.51c.12,2.05.16,4.11.04,6.15v11.51c-.13,5.1.25,10.22.76,15.3.08-.12.18-.23.29-.32-.2-1.9-.33-3.83-.17-5.74v-2.61c-.05-2.44-.12-4.88-.17-7.32v-6.45c-.09-2.85-.23-5.69-.17-8.54v-1.96h4.03c.09.6.2,1.19.39,1.78.32,1.03.37,2.12.42,3.2.38,8.26-.04,31.13-.04,39.4,1.42,8.16,1.96,23.64,1.37,31.91.79-1.43,1.15-3.08,1.07-4.72v-20.36c-.86-1.98-1.19-4.2-.98-6.35ZM26.39,54.28c.11-.62.19-1.63.19-2.26v-1.46s.09-.01.13-.02v6.8c-.2.06-.43.03-.62-.07.65-1.94-.27.14.29-2.99ZM80.31,54.71c.11-.62.19-1.63.19-2.26v-1.46s.09-.01.13-.02v6.8c-.2.06-.43.03-.62-.07.65-1.94-.27.14.29-2.99Z"/>
      </g>
      <polygon class="cls-1" points="136.69 0 0 .03 0 9.04 136.69 9.04 136.69 0"/>
    </g>
  </g>
</svg>