<?xml version="1.0" encoding="UTF-8"?>
<svg id="Layer_2" data-name="Layer 2" xmlns="http://www.w3.org/2000/svg" viewBox="0 0 301.347 153.84">
  <g id="Layer_1-2" data-name="Layer 1">
    <g>
      <g>
        <path d="M164.659,58.451c-31.7,0-62.734,8.725-87.387,24.57-21.127,13.579-35.576,31.17-41.605,50.355-.284-.048-.57-.092-.862-.116-5.57-.459-10.452,3.769-10.903,9.442-.451,5.673,3.701,10.646,9.271,11.104,5.57.459,10.451-3.769,10.902-9.442.39-4.903-2.663-9.278-7.096-10.672,5.951-18.838,20.193-36.132,41.012-49.511,24.439-15.707,55.219-24.357,86.667-24.357v-.686l136.688-.032v-9.24h-136.69l.002,8.587Z"/>
        <path d="M164.657,49.179c-13.977,0-60.132-2.94-83.918-39.536l3.05-1.626-4.121-8.017-7.871,4.198,4.121,8.016,3.644-1.943c4.032,6.082,11.065,14.712,22.193,22.43,12.05,8.358,26.143,13.793,42.058,16.278-89.483-1.756-121.922-14.757-133.518-22.948l2.159-1.678-5.388-7.195L0,22.645l5.387,7.195,3.79-2.943c12.399,8.917,49.02,23.654,155.48,23.654v-1.372Z"/>
      </g>
      <polygon points="164.657 58.943 301.347 58.909 301.347 49.901 164.657 49.901 164.657 58.943" fill="#c7a7f9"/>
    </g>
  </g>
</svg>