<?xml version="1.0" encoding="UTF-8"?>
<svg id="Layer_2" data-name="Layer 2" xmlns="http://www.w3.org/2000/svg" viewBox="0 0 356.458 499.456">
  <g id="Layer_1-2" data-name="Layer 1">
    <g>
      <path d="M9.828,258.123c5.586.164,10.247-4.316,10.407-10.005.15-5.294-3.65-9.767-8.679-10.496,4.5-45.004,22.563-85.932,38.947-85.932.083,0,.169.001.252.003,10.232.264,32.809,17.791,36.798,163.695-.006,28.154.598,46.957.61,47.298h.007l.033,136.77h9.072v-136.761h.008c0-98.627,6.844-178.729,20.341-238.083,7.79-34.257,17.798-61.47,29.923-81.529,2.557-.491,5.172-.646,7.847-.446,27.145,2.019,53.995,38.587,66.068,57.377-.161,1.269-.48,3.465-1.005,5.763-1.28,5.597,1.3,7.96,1.3,7.96,2.117,2.705,4.871,2.596,6.863.979,1.831-1.486,1.434-4.662,1.358-5.166.014-.017.03-.032.044-.05.417.189,3.291,1.406,5.136-.091,1.992-1.617,2.711-4.327.594-7.032,0,0-1.685-3.09-7.328-3.067-2.491.01-4.821-.192-6.01-.315-12.274-19.043-39.331-55.673-66.923-57.725-2.381-.177-4.714-.078-7.002.267,11.369-18.295,24.567-30.407,39.529-36.188,39.444-15.242,91.701,13.291,155.376,84.804-2.733,2.898-2.845,7.495-.16,10.524,2.81,3.168,7.61,3.417,10.72.557,3.111-2.862,3.355-7.75.547-10.918-2.628-2.964-6.998-3.372-10.098-1.071C280.31,17.266,227.557-11.392,187.541,4.067c-15.512,5.994-29.137,18.645-40.814,37.783-8.077,1.707-15.545,6.714-22.279,14.978-18.533,22.747-30.272,81.142-34.892,173.564-.982,19.649-1.518,38.817-1.783,56.192-1.868-36.837-5.239-66.711-10.09-89.241-6.563-30.477-15.863-46.736-26.895-47.02-9.191-.214-19.082,11.009-27.19,30.85-6.658,16.295-11.379,36.35-13.376,56.348-5.501-.057-10.059,4.377-10.218,10.002-.161,5.689,4.238,10.435,9.824,10.599ZM125.484,57.704c6.164-7.567,12.942-12.312,20.234-14.206-11.905,20.088-21.734,47.07-29.406,80.804-13.519,59.446-20.375,139.638-20.376,238.349h-6.429c0-16.104-.192-31.355-.576-45.739.017-74.995,4.379-219.721,36.552-259.209Z"/>
      <polygon points="97.27 499.456 97.236 362.766 88.228 362.766 88.228 499.456 97.27 499.456" fill="#c7a7f9"/>
    </g>
  </g>
</svg>