<?xml version="1.0" encoding="UTF-8"?>
<svg id="Layer_2" data-name="Layer 2" xmlns="http://www.w3.org/2000/svg" viewBox="0 0 552.245 159.994">
  <g id="Layer_1-2" data-name="Layer 1">
    <g>
      <path d="M10.46,98.996l8.474-5.208,244.846.023,136.697-.033h0c53.658.001,103.71,2.044,126.883,26.069l-.129.047-3.884,20.072,7.14,20.027,6.93-15.1,14.828,7.054-7.14-20.027-15.626-12.856-.747.276c-23.351-24.815-73.947-26.931-128.206-26.932v-7.869h-136.748v.003c-5.966.002-3.903.043-10.122.086-38.329.258-81.769.554-115.788-8.678-38.788-10.527-59.3-31.861-62.707-65.215l5.475-10.734-13.397.792,6.582,9.9-.02.002c3.417,34.09,24.26,55.869,63.721,66.58,34.195,9.28,77.733,8.983,116.144,8.725,6.216-.042,4.15-.084,10.115-.086v6.528s-244.842-.023-244.842-.023l-8.475-5.209H0s5.785,5.892,5.785,5.892l-5.786,5.893h10.46Z"/>
      <polygon points="263.778 93.61 400.469 93.575 400.469 84.568 263.778 84.568 263.778 93.61" fill="#c7a7f9"/>
    </g>
  </g>
</svg>