<?xml version="1.0" encoding="UTF-8"?>
<svg id="Layer_2" data-name="Layer 2" xmlns="http://www.w3.org/2000/svg" viewBox="0 0 207.458 587.905">
  <g id="Layer_1-2" data-name="Layer 1">
    <g>
      <path d="M5.132,386.312c2.552-.037,4.614-1.999,4.926-4.505,59.577-1.308,97.957-14.527,117.225-40.354,17.524-23.491,17.469-47.269,17.415-76.767l-.006-4.66h6.349l.693,318.821-3.769.009.019,9.048,8.884-.02-.019-9.048-3.769.008-.692-318.818h.037V122.361h-.007c0-28.448.004-114.922,19.577-120.678,5.861-1.725,13.268,3.877,22.057,16.662l-4.925,3.077,6.97,11.569,11.36-7.097-6.969-11.569-5.284,3.301C185.931,4.096,178.185-1.56,171.623.366c-8.466,2.49-14.157,17.551-17.399,46.045-2.823,24.824-3.152,55.231-3.152,75.95l-7.751.002.032,137.469h-.008l.007,4.857c.053,29.269.109,52.812-17.141,75.935-19.003,25.472-57.035,38.513-116.164,39.812-.353-2.53-2.483-4.468-5.058-4.43-2.794.041-5.028,2.381-4.988,5.226.04,2.846,2.337,5.12,5.132,5.08Z"/>
      <polygon points="143.384 122.398 143.418 259.088 152.426 259.088 152.426 122.398 143.384 122.398" fill="#c7a7f9"/>
    </g>
  </g>
</svg>