<?xml version="1.0" encoding="UTF-8"?>
<svg id="Layer_2" data-name="Layer 2" xmlns="http://www.w3.org/2000/svg" viewBox="0 0 256.813 789.031">
  <g id="Layer_1-2" data-name="Layer 1">
    <g>
      <path d="M223.449,153.431c8.431-14.864,18.386-28.951,25.277-44.603,5.745-13.047,10.253-27.529,6.988-41.773-3.085-13.465-14.666-25.256-29.661-19.966-4.787,1.689-8.936,4.717-11.72,8.791.199-15.824-1.917-32.799-12.345-44.718C194.822,2.97,184.014-.943,173.054.193c-12.375,1.283-23.346,7.964-31.616,16.742-8.821,9.363-14.954,20.769-20.836,31.998-6.319,12.061-12.307,24.287-17.975,36.649-11.136,24.292-21.062,49.108-29.848,74.291-17.762,50.908-30.9,103.247-40.58,156.148-1.201,6.56-2.348,13.129-3.446,19.705l.003-.028-.028.17c-1.729,10.355-3.335,20.728-4.831,31.116C2.695,510.311,0,573.597,0,673.038l.036,115.993h9.356v-115.993c0-41.385,6.328-217.206,9.583-251.808.127-1.209.261-2.418.39-3.625l2.704-23.588c2.244-18.404,4.803-36.771,7.741-55.087,8.357-52.095,19.733-103.812,35.571-154.267,7.972-25.397,17.058-50.466,27.451-75.026,5.222-12.346,10.764-24.566,16.642-36.631,5.75-11.8,11.548-23.737,18.479-34.933,6.736-10.882,15.332-21.27,27.225-27.079,10.624-5.188,23.446-6.719,34.312-1.32,18.556,9.219,22.001,32.18,22.207,50.373.003.281.003.562.004.842-1.922,4.553-2.854,9.32-.45,13.992l1.383-2.601c.452-1.094,1.036-2.332,1.119-3.523.211-3.02.394-6.164.498-9.374,1.169-1.273,2.465-2.41,3.998-3.409,4.974-3.238,11.444-4.885,17.357-3.54,13.761,3.132,18.785,19.272,18.655,31.269-.191,17.468-10.036,32.827-18.957,47.371-9.127,14.881-17.653,30.012-24.927,45.843-14.223,30.952-24.55,63.643-30.214,97.099-5.208,30.762-8.034,63.566-.426,94.188,3.836,15.444,10.646,30.389,21.748,42.227,4.511,4.81,9.622,10,16.974,7.89,2.497-.717,3.411-2.132,4.376-4.385.967-2.259,2.102-4.579.47-6.748-.057-.075-1.455,2.766-1.552,3.014-.121.306-.506,1.062-.765,1.784-.426.139-.86.259-1.328.332-2.732.43-5.868.067-8.264-1.344-2.827-1.663-5.237-4.451-7.451-6.809-2.623-2.794-5.026-5.781-7.205-8.912-8.658-12.432-13.64-26.94-16.299-41.636-5.852-32.349-1.911-66.605,4.747-98.535,7.411-35.54,20.238-69.884,38.261-101.652"/>
      <polygon points=".141 652.341 .175 789.031 9.183 789.031 9.183 652.341 .141 652.341" fill="#c7a7f9"/>
    </g>
  </g>
</svg>