<?xml version="1.0" encoding="UTF-8"?>
<svg id="Layer_2" data-name="Layer 2" xmlns="http://www.w3.org/2000/svg" viewBox="0 0 477.984 130.675">
  <g id="Layer_1-2" data-name="Layer 1">
    <g>
      <path d="M.005,8.413c16.776-2.2,33.821,5.331,44.639,18.027-6.504-.731-12.49,2.821-16.274,8.152-4.412,6.214-7.717,14.89-7.561,22.587.176,8.777,4.291,16.993,9.498,23.86,21.183,27.937,57.729,38.118,90.599,44.223,1.05.194,2.145.385,3.278.572l5.384.938c21.222,3.698,54.35,3.903,80.2,3.903l268.217-.045v-9.002H210.15c-16.114,0-64.033-.868-87.28-4.599-12.152-2.254-24.218-5.112-35.909-9.053-14.554-4.908-28.706-11.674-40.543-21.589-11.5-9.633-24.466-24.741-22.011-40.916.078-.519.173-1.033.29-1.544.03-.125.123-.383.204-.606l.229-.378c.358-.572.745-1.125,1.163-1.655,1.148-1.459,2.499-2.781,4.007-3.866,3.158-2.271,6.969-3.406,10.85-2.989,5.126.551,10.174,3.553,12.623,8.013.637,1.907,1.153,3.862,1.532,5.861.106.567,1.522-2.366,1.625-2.604.635-1.451,1.723-3.412,1.716-5.052-.008-2.272-.613-4.372-1.646-6.228C49.594,12.662,26.369-2.648,3.249.383c-.829.109-1.757,3.193-2.024,3.854C1.097,4.552-.082,8.424.005,8.413"/>
      <polygon points="477.952 121.601 341.261 121.635 341.261 130.643 477.952 130.643 477.952 121.601" fill="#c7a7f9"/>
    </g>
  </g>
</svg>