<?xml version="1.0" encoding="UTF-8"?>
<svg id="Layer_2" data-name="Layer 2" xmlns="http://www.w3.org/2000/svg" viewBox="0 0 683.408 314.558">
  <g id="Layer_1-2" data-name="Layer 1">
    <g>
      <path d="M662.574,54.223c-14.078-18.198-34.04-30.915-55.335-39.091C580.729,4.953,551.535.518,523.239.038c-30.729-.521-61.425,4.306-90.552,14.092-49.669,16.686-94.06,45.576-139.202,71.51-43.413,24.943-77.31,52.935-158.765,53.16h-.134s-134.587.406-134.587.406l.025,9.066,129.748.371v-.014c1.235.005,2.557.007,3.978.003,55.289-.152,100.784-25.59,137.22-45.522,44.76-24.487,87.402-53.215,134.465-73.294,25.809-11.011,52.828-18.79,80.759-21.927,30.517-3.429,61.558-1.541,91.472,5.374,21.971,5.08,43.415,13.179,61.581,26.81,19.032,14.28,33.19,34.426,38.781,57.685,5.736,23.865,3.671,52.34-10.436,73.021-13.542,19.851-38.035,30.517-61.553,23.634-1.355-.397-2.69-.85-4.005-1.353-.712-.536-1.438-1.055-2.182-1.549-2.945-1.957-6.121-3.488-9.492-4.554-.431-.137-3.024,5.851-2.49,6.211,3.619,2.433,7.432,4.385,11.364,5.866,8.494,6.274,14.774,15.7,18.661,25.36,6.09,15.137,7.573,34.436-.138,49.312-6.551,12.64-18.656,23.324-33.415,23.841-15.465.542-29.2-8.852-40.752-18.097-12.719-10.178-24.279-21.931-38.028-30.771-11.287-7.255-23.814-12.541-36.926-15.413-25.57-5.601-52.512-1.751-75.947,9.712-25.158,12.307-45.544,32.807-59.212,57.119-1.803,3.206-3.488,6.472-5.088,9.784-.569,1.176-1.623,2.963-1.591,4.293.026,1.122.67-.527.872-.944,12.874-26.631,33.978-49.415,60.395-62.971,23.929-12.277,51.717-16.552,78.081-10.781,13.462,2.947,26.309,8.443,37.826,15.999,13.96,9.157,25.688,21.241,38.795,31.506,11.995,9.392,26.5,18.576,42.435,16.505,14.145-1.839,24.94-13.102,31.235-25.211,7.587-14.597,10.945-31.119,7.724-47.386-2.02-10.211-6.357-20.516-12.971-28.836,15.03,2.025,30.606-2.266,42.85-12.61,9.06-7.655,15.403-17.868,20.035-28.68,4.897-11.434,8.025-23.571,9.002-35.98,1.98-25.162-5.007-50.528-20.504-70.56"/>
      <polygon points="136.719 139.183 .028 139.217 .028 148.225 136.719 148.225 136.719 139.183" fill="#c7a7f9"/>
    </g>
  </g>
</svg>