<?xml version="1.0" encoding="UTF-8"?>
<svg id="Layer_2" data-name="Layer 2" xmlns="http://www.w3.org/2000/svg" viewBox="0 0 59.7 175.479">
  <g id="Layer_1-2" data-name="Layer 1">
    <g>
      <path d="M29.822,175.233v-.134c0-4.068.222-8.206,0-12.266-.153-2.793.167-5.611,3.253-6.765,2.126-.794,4.965-.388,6.232-2.271.844-1.255.495-2.977-.228-4.305-.21-.385-.57-.81-.996-.706-.488.119-.552.771-.582,1.273-.115,1.925-1.482,3.812-3.375,4.188-1.892.378-4.038-1.117-4.047-3.046-.011-2.38,2.635-3.747,4.871-4.561-.702.437-1.672.165-2.264-.413-.592-.577-.888-1.387-1.138-2.175-1.524-4.81-1.472-9.608-1.721-14.544-.27-5.327-.02-10.733-.02-16.068l-.011-45.295c-.002-6.142-.003-12.283-.005-18.425,0-2.392,0-4.785-.002-7.177,0-1.568-.193-4.365.686-5.718.379-.585,1.278-.886,1.789-.412,1.079.999-1.057,3.152.049,4.12.532.466,1.438.109,1.771-.514s.259-1.377.155-2.077c-.445-3.004-1.262-5.985-1.145-9.019.072-1.858.53-3.689,1.259-5.396.352-.827.743-1.748,1.289-2.467.396-.52.779-1.182,1.497-1.257.592-.061,1.211.335,1.362.91.107.408-.01.837-.064,1.255-.055.418-.022.9.297,1.176.36.312.928.215,1.334-.034.128-.079.25-.172.335-.297.272-.4.074-.935-.085-1.393-.693-2.002-.418-4.17-.025-6.203.393-2.036,1.118-3.982,2.021-5.846,1.236-2.551,3.058-4.883,5.494-6.331,2.437-1.447,5.533-1.918,8.162-.856.702.284,1.388.676,2.145.709,1.388.061,2.291-1.403.871-2.174-1.604-.872-3.551-.828-5.348-.501-5.703,1.034-10.75,4.701-14.056,9.462-2.669,3.843-4.264,8.313-6.471,12.438-2.496,4.663-6.894,10.411-12.726,10.394-.027,1.27-.002,2.558.008,3.834.005.696.161,1.59.017,2.27-.187.881-1.12,1.318-1.62.287-.415-.856-.149-1.968-.711-2.734-.196-.268-.542-.476-.854-.363-.243.088-.39.348-.416.605-.027.257.046.512.124.759.802,2.526,1.673,4.729,2.024,7.371.301,2.27.314,4.676-.689,6.735-.696,1.43-1.833,2.589-2.766,3.877-1.462,2.015-2.329,4.495-2.309,6.996.005.554.061,1.129.347,1.602.287.473.86.812,1.395.668.161-.569.355-1.137.386-1.727.068-1.296-.651-2.62-.234-3.848.909-2.683,4.024-1.133,4.898.674,1.024,2.115.539,4.77.409,7.022-.213,3.704.443,7.506-.46,11.146-.121.489-.29,1.007-.696,1.305-.58.426-1.456.209-1.947-.316-.369-.394-.572-.938-.551-1.478.024-.596.304-1.152.407-1.74.112-.643.002-1.324-.307-1.899-.173-.321-.52-.644-.857-.505-.36.149-.347.677-.162,1.02.894,1.662-.377,3.261.503,5.102.444.93,1.189,1.677,1.805,2.504,1.069,1.434,1.763,3.143,1.997,4.916.093.706-.489,1.456-1.255,1.384.54.752.975,1.711.668,2.585-.089.253-.234.479-.37.71-1.452,2.457-1.874,5.501-1.146,8.262.07.265.162.545.378.711s.596.144.704-.108c.059-.137.023-.296-.027-.436-.252-.713-.827-1.306-.934-2.054-.116-.803.331-1.568.761-2.256.161-.257.356-.539.656-.589.341-.057.661.237.759.568.388,1.315.065,3.189.065,4.558v63.142c0,2.716.88,7.568-2.109,9.104-.95.488-2.057.539-3.124.576-2.801.096-5.728.131-8.247-1.095-2.521-1.226-4.459-4.126-3.646-6.808.137-.449.346-.897.306-1.365-.084-.965-1.315-1.535-2.209-1.161-.894.373-1.375,1.409-1.349,2.376.027.969.466,1.877.974,2.702,1.743,2.833,4.414,5.086,7.501,6.326,6.366,2.558,14.549,1.583,21.346,1.506"/>
      <polygon points="29.85 175.096 29.816 38.406 20.808 38.406 20.808 175.096 29.85 175.096" fill="#c7a7f9"/>
    </g>
  </g>
</svg>