<?xml version="1.0" encoding="UTF-8"?>
<svg id="Layer_2" data-name="Layer 2" xmlns="http://www.w3.org/2000/svg" viewBox="0 0 57.692 405.699">
  <g id="Layer_1-2" data-name="Layer 1">
    <g>
      <path d="M43.767,186.571c-.066,0-.131,0-.197-.003-2.2-.092-3.784-2.153-4.658-4.173-2.418-5.586-1.865-12.011-.493-17.94,1.372-5.93,3.519-11.705,4.197-17.754,1.263-11.269-.257-22.985-.267-34.326-.02-22.125.048-90.25.043-112.374h-9.343c0,4.748.854,55.552.009,60.275-.237,1.324-1.064,5.17-2.461,5.781-2.037.89-4.524-2.389-5.049-3.91-.747-2.172-.445-4.567.146-6.787.179-.671.385-1.364.272-2.05-.112-.686-.659-1.359-1.354-1.351-.767.009-1.287.788-1.526,1.517-.432,1.318-.414,2.746-.21,4.118.5,3.366,2.125,6.556,4.555,8.94,1.239,1.215,2.753,2.296,3.217,4.05.518,1.961-.231,4.142-1.169,5.855-.488.892-1.049,1.744-1.674,2.547-1.863,2.39-4.351,4.42-5.349,7.281.454-.702.931-1.426,1.636-1.877.705-.45,1.709-.547,2.34.003,1.096.955.191,2.94-.066,4.117-.493,2.252-1.074,4.469-1.436,6.751-.706,4.448-.181,8.454-.089,12.867-.149-7.132,1.277-14.292,4.147-20.822.371-.842.976-1.809,1.894-1.756,1.119.064,1.499,1.505,1.575,2.623.552,8.152.592,16.239.592,24.435,0,113.694,3.817,74.771-9.2,110.387-10.45,28.595-20.793,58.725-23.296,89.601-1.257,15.501-.446,31.181,3.196,46.329,3.132,13.025,7.812,29.975,17.374,39.689,3.455,3.51,7.72,6.63,12.628,7.046,10.193.865,15.326-12.344,4.719-16.331-3.175-1.193-6.672-1.242-9.909-2.254-9.741-3.045-14.731-13.698-17.579-23.498-6.493-22.339-13.669-60.638,3.346-79.972,9.963-11.32,44.483-13.792,40.325-34.671-.338-1.702-1.235-3.476-2.866-4.066-2.145-.777-4.495.905-5.505,2.951-1.01,2.046-1.132,4.402-1.732,6.602-1.658,6.084-6.782,10.527-11.872,14.249-3.458,2.528-7.184,4.972-11.425,5.594-7.063,1.034-7.728-4.002-7.803-9.458-.057-4.2-.096-8.512,1.367-12.448,1.464-3.937,4.789-7.471,8.965-7.916,4.176-.444,8.656,3.299,7.939,7.437.876-3.305-.9-6.649-2.22-9.803-5.793-13.842-1.8-31.608,8.011-42.752,3.947-4.482,8.671-8.271,12.283-13.026,3.191-4.201,5.431-9.056,7.164-14.04.435-1.248.845-2.554.705-3.869-.139-1.315-.97-2.646-2.254-2.962-1.867-.46-3.553,1.358-4.166,3.18-1.725,5.131.199,10.159-3.053,14.986-1.033,1.534-2.595,2.953-4.424,2.978"/>
      <polygon points="33.195 .059 33.229 136.749 42.237 136.749 42.237 .059 33.195 .059" fill="#c7a7f9"/>
    </g>
  </g>
</svg>