<?xml version="1.0" encoding="UTF-8"?>
<svg id="Layer_2" data-name="Layer 2" xmlns="http://www.w3.org/2000/svg" viewBox="0 0 356.125 105.767">
  <g id="Layer_1-2" data-name="Layer 1">
    <g>
      <path d="M354.399,4.879c-1.726-2.037-4.305-3.153-6.884-3.843-13.711-3.667-27.929,3.018-40.056,10.392-3.336,2.028-25.2,19.064-21.841,4.344.695-3.051,3.009-5.416,4.93-7.886.377-.486.758-1.025.768-1.64.021-1.35-1.851-2.043-3.049-1.424-1.199.62-1.802,1.972-2.257,3.244-1.819,5.095-2.667,10.505-4.637,15.543-5.754,14.717-27.972,25.125-40.763,33.084-15.5,9.645-31.954,18.003-49.691,22.641-2.66.695-5.364,1.433-8.07,2.007-6.37,1.352-13.274.578-19.803.578H44.637c-.94,0-5.841.615-4.396-1.79.46-.765,1.417-1.076,2.308-1.145s1.798.042,2.67-.153c.524-.118,1.12-.52.998-1.043-.127-.549-.881-.618-1.433-.51-2.294.452-4.311,1.838-5.975,3.48-.785.774-1.518,1.619-2.447,2.212-.929.592-2.123.901-3.143.487-1.07-.434-1.709-1.554-2.005-2.67-.662-2.5.122-5.777,2.217-7.436,2.082-1.65,4.968-2.001,6.925-3.907-3.78,1.979-8.521,1.242-12.257-.819-3.735-2.062-6.677-5.277-9.547-8.434-5.232-5.758-10.684-11.946-12.064-19.602-1.007-5.588.292-11.296.703-16.959.117-1.607-.026-3.566-1.452-4.318-1.837-.968-3.886,1.003-4.671,2.925-2.472,6.055-.232,12.948,2.49,18.895,3.354,7.327,7.448,14.315,12.199,20.823,4.982,6.824,15.617,16.947,13.519,26.339-.457,2.043-1.587,3.858-2.474,5.753-1.078,2.304-1.813,4.804-1.833,7.348-.013,1.582.395,3.381,1.776,4.154.479.268,1.162.344,1.515-.077.266-.317.235-.784.141-1.187-.337-1.447-1.279-2.68-1.748-4.089-.797-2.396.075-5.176,1.879-6.888,2.554-2.424,6.357-1.619,9.592-1.62,10.861-.002,21.722-.005,32.583-.008,14.922-.004,29.845-.008,44.767-.012,13.695-.003,27.391-.006,41.086-.01,4.735,0,9.47-.002,14.205-.003,1.55,0,3.1,0,4.65-.002,2.629,0,3.672-.436,5.283-2.851.511-.764,1.197-1.394,1.908-1.976,2.109-1.728,4.639-3.575,7.452-3.695,6.022-.258,6.445,4.996,5.435,9.649-.629,2.9-1.337,5.783-2.12,8.645,3.942-7.137,8.02-14.441,14.246-19.705,3.304-2.795,7.111-4.92,10.891-7.028,7.881-4.394,38.421-27.797,43.785-15.909,5.226,11.579.237,26.757-10.84,32.978-1.676.941-3.528,1.753-4.664,3.304s-1.115,4.156.596,5.033c3.169,1.52,7.123.331,9.723-2.032,2.601-2.364,4.106-5.682,5.351-8.968,2.905-7.671,5.391-15.815,6.427-23.949,1.646-12.92,2.626-23.239,12.491-32.925,8.806-8.647,22.018-16.925,33.693-21.057,8.935-3.162,18.8-.599,27.78,2.43,4.297,1.45,10.067,2.538,12.491-1.296,1.426-2.257.784-5.385-.942-7.422"/>
      <polygon points="37.837 91.272 174.528 91.238 174.528 82.23 37.837 82.23 37.837 91.272" fill="#c7a7f9"/>
    </g>
  </g>
</svg>