<?xml version="1.0" encoding="UTF-8"?>
<svg id="Layer_2" data-name="Layer 2" xmlns="http://www.w3.org/2000/svg" viewBox="0 0 150.522 213.362">
  <g id="Layer_1-2" data-name="Layer 1">
    <g>
      <path d="M39.546,213.357c-.002-5.666-.003-11.332-.005-16.999,0-4.776-.812-9.365.476-14.014.1-.36.217-.736.486-.994.443-.426,1.148-.403,1.744-.256,2.352.579,4.206,2.785,4.369,5.202.096,1.412-.329,2.823-.22,4.234.024.308.08.63.272.872.464.585,1.492.341,1.895-.288.404-.629.345-1.443.196-2.175-1.137-5.618-6.406-9.534-8.26-14.958-1.675-4.898-.967-10.928-.968-16.039-.005-18.667-.01-37.334-.014-56.001-.002-10.258-1.908-20.717,4.524-29.542,4.697-6.445,11.9-11.654,18.829-15.469,1.594-.878,3.403-1.699,5.174-1.283,2.024.475,3.385,2.498,3.731,4.547.316,1.877-.278,3.583-.35,5.402,1.824-1.776,2.901-5.171,3.517-7.589.37-1.449.595-2.932.937-4.388,1.937-8.259,7.861-14.475,14.028-19.929,2.326-2.057,6.233-3.894,8.136-1.44,1.22,1.575.554,3.892-.498,5.583-1.052,1.692-2.479,3.275-2.737,5.25-.259,1.976,1.543,4.324,3.403,3.608.952-.366,1.497-1.368,1.802-2.342,1.037-3.307.213-6.874.235-10.34.064-10.339,6.635-18.264,14.077-24.633,2.883-2.468,5.83-4.975,9.336-6.43,4.061-1.685,8.907-1.283,12.909.388,3.827,1.597,6.177,5.947,10.517,6.475.996.121,2.108-.04,2.795-.771.745-.793.78-2.05.41-3.074-1.105-3.06-4.804-4.138-7.996-4.767-3.478-.686-7.003-1.339-10.544-1.169-13.517.649-21.731,11.535-30.329,20.434-2.967,3.07-6.062,6.007-9.057,9.046-1.515,1.537-5.724,4.345-5.734-.231-.003-1.005.404-1.961.821-2.875.809-1.773,1.734-3.573,3.262-4.782.507-.4,1.093-.753,1.386-1.329s.085-1.462-.552-1.571c-2.861,1.023-4.04,4.35-4.892,7.267-1.084,3.713-2.229,7.443-4.097,10.829-3.41,6.183-10.211,10.543-15.659,14.83-6.362,5.008-12.902,9.79-19.604,14.334-7.978,5.41-16.552,6.69-21.269-3.627-2.232-4.883-1.924-10.498-4.019-15.368-2.263-5.263-5.001-10.292-8.643-14.744-2.183-2.668-4.958-5.282-8.4-5.518-1.669-.114-3.73.812-3.265,2.792.379,1.608,2.157,1.647,3.444,2.228,3.437,1.547,8.091,3.004,10.788,5.712,1.395,1.4,2.263,3.23,3.059,5.039,2.107,4.782,2.506,8.865,3.026,13.938.377,3.689.212,8.831,2.939,11.693-.354-.887.46-2.008,1.412-1.946.41.027.787.228,1.126.459,3.397,2.299,3.204,7.458,2.103,10.964-.221.703-.714,1.5-1.447,1.437-.997-.086-.885-1.176-.974-1.885-.181-1.441-.485-3.08-1.729-3.827-.307-.185-.687-.3-1.025-.177-.435.158-.656.671-.625,1.134.031.462.257.886.479,1.293,1.28,2.357,3.018,4.716,3.829,7.285,1.51,4.786-.699,9.869-2.825,14.415-2.127,4.546-4.258,9.689-2.605,14.428.158.453.379.928.806,1.148.85.438,1.861-.501,1.943-1.454.081-.953-.399-1.849-.711-2.753-.886-2.568-.426-5.413.417-7.996.334-1.022.752-2.066,1.55-2.788,3.608-3.26,3.485,2.53,3.422,4.515-.09,2.866,0,5.75,0,8.617v94.599c0,1.427.548,3.979.083,5.305-.273.779-2.547,2.099-2.612.585-.024-.539-.046-1.076-.07-1.615-.252,1.465-2.587,1.556-3.516.395-.929-1.161-.841-2.806-.707-4.287.095-1.044.19-2.089.284-3.133-.583-.297-1.23.421-1.239,1.076-.009.654.328,1.266.395,1.917.127,1.244-.79,2.416-1.925,2.939s-2.439.522-3.685.41c-3.758-.34-7.534-1.685-10.203-4.353-2.668-2.668-4.033-6.784-2.852-10.368.37-1.125.973-2.179,1.176-3.346.202-1.167-.13-2.554-1.179-3.102-1.012-.529-2.33-.045-3.044.846-.715.89-.938,2.078-.995,3.218-.272,5.401,2.76,10.596,6.984,13.971,4.225,3.375,9.512,5.151,14.807,6.246,5.818,1.204,11.826,1.062,17.738,1.062"/>
      <polygon points="30.255 76.672 30.75 213.236 39.297 213.362 39.004 76.672 30.255 76.672" fill="#c7a7f9"/>
    </g>
  </g>
</svg>