<?xml version="1.0" encoding="UTF-8"?>
<svg id="Layer_2" data-name="Layer 2" xmlns="http://www.w3.org/2000/svg" viewBox="0 0 238.625 121.93">
  <g id="Layer_1-2" data-name="Layer 1">
    <g>
      <path d="M234.018,97.399l-103.482.026h-.014c-18.891-.003-22.564-5.453-20.533-31.314h0c.129-1.697.194-3.414.194-5.147,0-26.627-15.506-49.322-37.051-57.608-5.655-2.175-11.726-3.357-18.041-3.357-2.848,0-5.646.24-8.379.704C20.298,5.183,0,30.5,0,60.965c0,28.612,17.903,52.682,41.964,59.216,4.209,1.143,8.605,1.749,13.128,1.749,3.048,0,6.04-.276,8.956-.805,5.416-.984,10.569-2.845,15.335-5.447h0c10.139-5.518,18.78-9.034,55.382-9.037h99.254c2.544,0,4.606-2.062,4.606-4.605v-.031c0-2.544-2.063-4.606-4.607-4.605ZM107.069,100.25c-.265-.057-.514-.11-.765-.163l.822.036c-.019.042-.04.084-.058.127ZM81.629,103.711c-9.061,0-16.432-8.229-16.432-18.344s7.371-18.344,16.432-18.344,16.432,8.229,16.432,18.344-7.371,18.344-16.432,18.344ZM55.092,119.274c-28.913,0-52.435-26.158-52.435-58.31S26.179,2.655,55.092,2.655s52.435,26.158,52.435,58.31c0,6.538-.973,12.828-2.765,18.701h0s0,0,0,0c-.913,3.055-4.318,3.607-5.205.37,0,0,0,0,0,0,0,0,0,0,0,0-.113-.465-.242-.924-.384-1.375-2.524-8.008-9.435-13.771-17.544-13.771-10.237,0-18.566,9.186-18.566,20.478,0,4.234,1.171,8.172,3.175,11.441,2.597,4.237,6.593,7.349,11.251,8.523,1.332.336,2.717.513,4.139.513,0,0,.001,0,.002,0,4.13.001-2.28,7.118-7.397,9.407-.008.003-.015.007-.023.011-5.926,2.589-12.375,4.011-19.118,4.011Z"/>
      <polygon points="97.497 106.501 234.188 106.466 234.188 97.459 97.498 97.459 97.497 106.501" fill="#c7a7f9"/>
    </g>
  </g>
</svg>