<?xml version="1.0" encoding="UTF-8"?>
<svg id="Layer_2" data-name="Layer 2" xmlns="http://www.w3.org/2000/svg" viewBox="0 0 80.174 251.318">
  <g id="Layer_1-2" data-name="Layer 1">
    <g>
      <path d="M43.994,251.318c19.95,0,36.18-17.901,36.18-39.905,0-21.465-15.448-39.017-34.724-39.864-.422-.024-.888-.041-1.455-.041-14.703,0-34.74-4.71-34.74-31.615l-.034-135.285c-.001-2.545-2.065-4.609-4.61-4.609S0,2.064,0,4.61v135.284c0,33.127,7.814,29.628,7.814,71.519,0,22.004,16.23,39.905,36.179,39.905ZM43.994,175.666c17.656,0,32.022,16.036,32.022,35.747s-14.365,35.747-32.022,35.747-32.021-16.036-32.021-35.747,14.365-35.747,32.021-35.747Z"/>
      <polygon points="9.125 140.81 9.091 4.12 .083 4.12 .083 140.81 9.125 140.81" fill="#c7a7f9"/>
    </g>
  </g>
</svg>