<?xml version="1.0" encoding="UTF-8"?>
<svg id="Layer_2" data-name="Layer 2" xmlns="http://www.w3.org/2000/svg" viewBox="0 0 146.037 50.074">
  <g id="Layer_1-2" data-name="Layer 1">
    <g>
      <path d="M102.133,9.276c.008,0,.014,0,.022,0l39.249-.009c2.559,0,4.633-2.075,4.633-4.633s-2.075-4.634-4.634-4.634H4.634C2.074,0,0,2.074,0,4.634v.033c0,2.56,2.075,4.634,4.635,4.634l54.5-.014h.006c4.747.002,2.28,2.364.73,3.629,0,0,0,0,0,0s0,0,0,0c-3.218,2.637-5.643,6.387-6.804,10.728-.494,1.847-.759,3.802-.759,5.823,0,2.363.362,4.634,1.029,6.749,2.539,8.059,9.495,13.859,17.656,13.859,10.302,0,18.684-9.245,18.684-20.608v-.002c0-12.678-2.006-20.188,12.457-20.188ZM70.992,47.928c-9.119,0-16.537-8.282-16.537-18.461s7.418-18.461,16.537-18.461,16.537,8.281,16.537,18.461-7.419,18.461-16.537,18.461Z"/>
      <polygon points="4.713 9.138 141.403 9.103 141.403 .096 4.713 .096 4.713 9.138" fill="#c7a7f9"/>
    </g>
  </g>
</svg>