<?xml version="1.0" encoding="UTF-8"?>
<svg id="Layer_2" data-name="Layer 2" xmlns="http://www.w3.org/2000/svg" viewBox="0 0 214.428 291.366">
  <g id="Layer_1-2" data-name="Layer 1">
    <g>
      <path d="M214.36,86.948c0-31.02-14.818-58.296-37.057-73.667C165.201,4.915,150.901.075,135.596.075c-30.7,0-57.351,19.475-70.339,47.811-.028.061-.056.116-.085.18C60.555,58.068,0,36.807,0,36.807c0,0,60.988,21.684,58.398,32.862h0c-1.026,5.586-1.565,11.364-1.565,17.279,0,47.902,35.333,86.873,78.762,86.873,27.387,0,51.554-15.496,65.671-38.957h0s0,0,0,0c8.403-14.321,13.092,156.502,13.092,156.502V86.948h0ZM135.596,164.77c-38.438,0-69.71-34.911-69.71-77.822,0-5.694.551-11.247,1.596-16.597,0,0,0-.001,0-.002,1.058-5.253,61.98,19.42,61.98,19.42,0,0-61.296-24.86-56.565-36.822,0,0,0-.001,0-.002,11.325-25.919,35.174-43.818,62.697-43.818,38.44,0,69.711,34.91,69.711,77.821s-31.271,77.822-69.711,77.822Z"/>
      <path d="M135.596,173.897c-43.467,0-78.831-39.005-78.831-86.948S92.129,0,135.596,0s78.832,39.005,78.832,86.948-35.364,86.948-78.832,86.948ZM135.596,9.059c-38.472,0-69.771,34.941-69.771,77.889s31.299,77.889,69.771,77.889,69.772-34.941,69.772-77.889S174.069,9.059,135.596,9.059Z" fill="#edff00"/>
    </g>
  </g>
</svg>