<?xml version="1.0" encoding="UTF-8"?>
<svg id="Layer_2" data-name="Layer 2" xmlns="http://www.w3.org/2000/svg" viewBox="0 0 158.17 401.44">
  <defs>
    <style>
      .cls-1 {
        fill: #edff00;
      }
    </style>
  </defs>
  <g id="Layer_1-2" data-name="Layer 1">
    <g>
      <g>
        <path d="M93.39,291.11c0,2.85-.03,5.6.3,8.36,0-2.12,0-4.25.04-6.38.05-3.45.11-6.9.16-10.35-.17,0-.34,0-.5,0v8.36Z"/>
        <path d="M95.04,331.52c1.33-4.4.71-9.45.47-14-.1-1.85-.2-3.72.05-5.55.34-2.48,1.32-4.87,1.33-7.38,0-3.76-1.58,2.05-2.52-1.5-.32-1.21-.53-2.42-.67-3.62.01,9.94.35,19.85.52,29.81.01.83.11,1.82.83,2.24Z"/>
        <path d="M154.83,159.41l-.28-7.32c.12,4.4.25,8.79.28,7.32Z"/>
        <path d="M157.34,259.9c.54,1.87.47.86,0,0h0Z"/>
        <path d="M157.37,80.76C154.51,35.7,120.35,0,78.78,0S0,38.98,0,86.89c0,4.88.37,9.66,1.07,14.31,0,2.29,0,4.59.01,6.88v17.06c-.43,6.33.04,12.69,1.25,18.92.14.71.21,1.43.21,2.15v6.28c.6,2.2.66,4.41.55,6.68-.23,4.76-.14,9.63.91,14.27v26.53c.52.73,1.42-15.47,1.43-16.37.07-4.54-.11-11.54-.95-16.01v-10.24c-.21-2.76-.27-5.53-.49-8.29,0-7.44-1.3-14.88-1.34-22.37-.03-5.46.13-10.91.25-16.37,3.2,12.59,8.92,24.03,16.51,33.62l-.04.07c-.21.45-.15.98-.13,1.47.03.63.03,1.27-.08,1.89v5.48c-.13,1.04-.19,2.09-.08,3.13.04,1.09.04,2.19.08,3.28v2.1c.13,0,.26-.03.38-.09,0-.6-.02-1.19-.02-1.79v-1.99c.06-.68.03-1.37-.02-2.05-.02-.31-.05-.63-.04-.94,0-.22.03-.43.05-.65.16-1.68.28-3.37.44-5.05v-4.15s.03,0,.04,0c1.51,1.87,3.09,3.66,4.74,5.38.05.49.1.99.16,1.48v6.48c0,2.16,0,4.31,0,6.47v2.83c-.37,2.23-.09,4.57.56,6.74v28.98c.55,1.31.59,2.82.54,4.24-.04,1.26-.32,2.51-.15,3.76.11.79.4,1.55.43,2.35.02.53-.08,1.06-.16,1.59-.3,1.95-.34,3.94-.14,5.91.24,2.29.99,4.97-.24,6.92v3.98c.29.22.76-.02.95-.34.19-.31.2-.7.2-1.07-.01-2.36-.01-4.72-.02-7.08v-14.08c.46,0,.56-.6.58-1.06.12-2.65-.01-5.34-.58-7.93v-2.53c-.38-2.61-.93-5.24-.84-7.88v-12.66c.27-2.72.31-5.48-.28-8.16v-2.55c.09-2.9-.09-5.81,0-8.71v-6.65c1.01,1.01,2.04,2,3.09,2.95.25,12.71.5,25.42.75,38.14.17-1.95.18-3.91.35-5.86v-4.83c.17-1.92-.12-3.93-.27-5.83-.17-2.09.07-4.19.28-6.27.24-2.43-.21-4.76-.4-7.2v-3.02c-.1-1.54-.26-3.08-.2-4.62l-.34-.37c1.38,1.24,2.8,2.44,4.25,3.58-.33,9.34-1.76,18.69,0,27.97,0,21.07-.48,41.94-1.38,62.87-.27,6.15-.53,12.3-.29,18.45.11,2.89.43,12.49,1.67,14.58v96.49c-.62.19-.75.68-.87,1.32-1.26,7.18-1.06,14.62.59,21.73.58.09,1.17.18,1.75.27-.28-2.58-.62-5.15-.9-7.72v-20.83c.43.58,1.13-.57,1.09-1.29-.23-3.41-.28-6.83-.51-10.23v-36.41c.84.62,1.88-1.11,1.82-2.15-.34-6.2-.33-12.42-.67-18.63v-32.35c-.24-2.69-.33-5.4-.58-8.09v-5.89c-.4.59-1.24-.5-1.23-1.21.02-3.22.14-6.47.66-9.65v-69.91c.12-6,.41-12,.55-18.01,12.54,9.3,27.62,14.73,43.84,14.73.35,0,.69,0,1.04-.01.23,2.36.5,4.71.69,7.07v13.81c.18,5.11.94,10.19,1.12,15.3v6.73c.27,2.6.54,5.21.37,7.83v26.13c.08,3.01.46,6.02.54,9.04.05,1.75.09,3.5.14,5.25.16,6.2.32,12.41.82,18.59.37,4.59.89,9.17.74,13.77v30.23c-.53,2.69-.46,5.51,0,8.21v2.64c.33,0,.46.5.34.8-.12.3-.39.51-.59.78-.46.62-.43,1.46-.39,2.23.25,4.09.64,8.17,1.15,12.23,1.94-1.58,1.52-4.66.98-7.11v-1.9c-.12-.11-.25-.22-.37-.34v-51.88c-.41-.91-.7-1.9-.75-2.89-.06-1.14.12-2.28.22-3.42.2-2.25.19-4.53-.21-6.75v-8.99c-1.27-2.41-1.69-5.42-.37-7.81v-1.54c.62-1.48.62-3.33,0-4.81v-4.17c-.75-1.08-1.22-2.44-.75-3.66v-4.12c-.73-.64-1.11-1.7-.75-2.6v-19.78c.61-3.2.54-6.5,0-9.7v-28.47c-.41.19-.64-.44-.65-.89-.11-3.29-.23-6.57-.34-9.86.65-.03,1.3-.06,1.95-.11-.06,2.19-.12,4.32.52,6.43.32,1.03.37,2.12.42,3.19.38,8.24.55,16.4.55,24.65,1.41,8.15,1.96,23.59,1.37,31.83.79-1.43,1.14-3.07,1.07-4.7v-20.31c-.86-1.98-1.18-4.19-.98-6.34v-10.72c-.28-1.85-.82-3.73-.78-5.59.05-2.4.11-4.8.16-7.2.03-1.5.4-2.91.5-4.39.05-.79.11-1.54-.05-2.32-.11-.56-.8-1.45-.8-1.94v-2.74c.93-.09,1.86-.19,2.78-.32v2.14c.33,0,.46.5.34.8-.12.3-.39.51-.59.78-.46.62-.44,1.46-.39,2.23.25,4.09.64,8.17,1.15,12.23,1.94-1.58,1.52-4.66.98-7.11v-1.9c-.12-.11-.25-.22-.37-.34v-9c1.49-.23,2.96-.5,4.42-.81-.39,11.79-.44,23.58.11,35.4v52.25c0,7.65-.11,15.31-.23,22.96.73.02,1.47.02,2.08-.37-.1-3.89-.18-6.55-.25-8.33.22,1.14.65.01,1.33-11.11v-17.08c-2.13-3.76-1.82-8.46-1.64-12.78.67-15.79.97-7.92,1.64-23.72v-22.37c-1.2-2.21-.77-4.77-.11-7.2.8-2.92,1.62-5.89,3.23-8.46l-.74-.59c3.33-1,6.57-2.23,9.7-3.68.12,1.2.25,2.4.34,3.61v13.81c.18,5.11.94,10.19,1.12,15.3v6.73c.27,2.6.54,5.21.37,7.83v26.13c.08,3.01.46,6.03.54,9.04.05,1.75.09,3.5.14,5.25.16,6.2.32,12.41.82,18.59.37,4.59.89,9.17.74,13.77v30.23c-.53,2.69-.46,5.51,0,8.21v2.64c.33,0,.46.5.34.8-.12.3-.39.51-.59.78-.46.62-.44,1.46-.39,2.23.25,4.09.64,8.17,1.15,12.23,1.94-1.58,1.52-4.66.98-7.11v-1.9c-.12-.11-.25-.22-.37-.34v-51.88c-.41-.91-.7-1.9-.75-2.89-.06-1.14.12-2.28.22-3.42.2-2.25.19-4.53-.21-6.75v-8.99c-1.27-2.41-1.69-5.42-.37-7.81v-1.54c.62-1.48.62-3.33,0-4.81v-4.17c-.75-1.08-1.22-2.44-.75-3.67v-4.12c-.73-.64-1.11-1.7-.75-2.6v-19.78c.61-3.2.54-6.5,0-9.7v-28.47c-.41.19-.64-.44-.65-.89-.08-2.38-.16-4.76-.25-7.14,4.5-2.22,8.77-4.89,12.78-7.95-.05,1.97-.05,3.9.54,5.8.32,1.03.37,2.12.42,3.19.38,8.24.55,16.4.55,24.65,1.41,8.15,1.96,23.59,1.37,31.83.79-1.43,1.14-3.07,1.07-4.7v-20.31c-.86-1.98-1.18-4.19-.98-6.34v-10.72c-.28-1.85-.82-3.73-.78-5.59.05-2.4.11-4.8.16-7.2.03-1.5.4-2.91.5-4.39.05-.79.11-1.54-.05-2.32-.11-.56-.8-1.45-.8-1.94v-3.52c1.37-1.12,2.7-2.28,3.99-3.49l-.08.14c-.21.45-.15.98-.13,1.47.03.63.03,1.27-.08,1.89v5.48c-.13,1.04-.19,2.09-.08,3.13.04,1.09.04,2.19.08,3.28v2.1c.13,0,.26-.03.38-.09,0-.6-.02-1.19-.02-1.79v-1.99c.06-.68.03-1.37-.02-2.05-.02-.31-.05-.63-.04-.94,0-.22.03-.43.05-.65.16-1.68.28-3.37.44-5.05v-4.15c.32,0,.63.06.94.02.19,9.6.38,19.2.57,28.81.17-1.95.18-3.91.35-5.86v-4.83c.17-1.92-.12-3.93-.27-5.83-.17-2.09.07-4.19.28-6.27.24-2.43-.21-4.76-.4-7.2v-1.49c1.25-1.24,2.45-2.53,3.62-3.85.13,1.31.25,2.61.42,3.92v6.48c0,2.16.01,4.31,0,6.47v2.83c-.37,2.23-.09,4.57.56,6.74v28.98c.55,1.31.59,2.82.54,4.24-.04,1.26-.32,2.51-.15,3.76.11.79.4,1.55.43,2.35.02.53-.08,1.06-.16,1.59-.3,1.95-.34,3.94-.14,5.91.23,2.29.99,4.97-.24,6.92v3.98c.29.22.76-.02.95-.34s.2-.7.19-1.07c0-2.36,0-4.72-.02-7.08v-14.08c.46,0,.56-.6.58-1.06.12-2.65-.01-5.34-.58-7.93v-2.53c-.38-2.61-.93-5.24-.84-7.88v-12.66c.27-2.72.31-5.48-.28-8.16v-2.55c.09-2.9-.09-5.81,0-8.71v-11.56c9.13-10.81,15.79-24.17,19-39l.37,9.73c.33.39.38.92.22,1.41-.5,1.56-.91,3.14-.84,4.77l.11,2.83c.01,2.99-.72-10.51-.71-7.52,0,.44-.04.93-.17,1.32-.53,1.57-.94,3.18-.88,4.83l.77,20.29s0,0,0,0l.28,7.35s0-.02,0-.03l.28,7.35s0,0,0,0l.33,8.85c-.42,4.3-1.07,1.47-1.49,5.77l1.69,44.79c.72,2.88.71,5.96.45,8.92-.33,3.8-1.18,7.53-.11,11.19l.37,9.82c-.14-1.45-.38-3.18-.51-2.08l.2,5.31c-.37,1.99-.59,4.03-.96,6.01-.14.74-.14,1.73.58,1.97.86-1.45,1.56-.82,1.97-.07,0,0,0,0,0,0l-.82-21.84c.26-32.24-.02-67.28.87-99.5.34-12.41-.87-24.71.04-37.08.04-.56.19-1.01.74-1.03l-.74-19.69h-.06ZM140,94.63c.11-.61.19-1.63.19-2.25v-1.46s.09-.01.13-.02v6.78c-.2.06-.43.03-.62-.07.64-1.93-.27.14.29-2.98ZM9.06,86.89c0-15.66,4.17-30.26,11.33-42.48.09.59.2,1.19.38,1.78.32,1.03.37,2.12.42,3.19.38,8.24.55,16.4.55,24.65,1.41,8.15,1.96,23.59,1.37,31.83.79-1.43,1.14-3.07,1.07-4.7v-20.31c-.86-1.98-1.18-4.19-.98-6.34v-10.72c-.28-1.85-.82-3.73-.78-5.59.05-2.4.11-4.8.16-7.2.03-1.5.4-2.91.5-4.39.05-.79.11-1.54-.05-2.32-.11-.56-.8-1.45-.8-1.94v-.92c2.13-3.3,4.49-6.4,7.05-9.29,2.2,2.51-.37,6.01,1.65,8.6v20.23c-.06,6.55.04,13.18,1.16,19.63v6.93c.54,10.01.62,20.04,1.16,30.04v5.78c-.26,4.62-.32,9.25-.58,13.87v8.01c-14.47-14.27-23.61-35.13-23.61-58.33ZM34.97,147.4v-44.29c-.4-1.76-1.37-3.3-1.77-5.06-.66-2.92-1.28-6.11.04-8.8v-31.77c.34-3.12-.19-6.26-1.16-9.24v-12.71c-.3-2.09-.45-4.26.35-6.22l-2.13,1.7c1.98-2.14,4.07-4.15,6.26-6.01l-.54.94c-.21.45-.15.98-.13,1.47.03.63.03,1.27-.08,1.89v5.48c-.13,1.04-.19,2.09-.08,3.13.04,1.09.04,2.19.08,3.28v2.1c.13,0,.26-.03.38-.09,0-.6-.02-1.19-.02-1.79v-1.99c.06-.68.03-1.37-.02-2.05-.02-.31-.05-.63-.04-.94,0-.22.03-.43.05-.65.16-1.68.28-3.37.44-5.05v-4.15c.32,0,.65.06.97.02-.07,0,.23-1.5.5-2.85,2.02-1.63,4.13-3.14,6.3-4.53.08,1.02.16,2.05.21,3.07v17.41c.34,4.85.16,9.74.48,14.6.01.2.02.41.02.61v24.43s0,.06.02.09c0,.11-.01.2-.02.32v56.29c-.02,1.82.08,3.65.1,5.48.08,6.19.66,2.97,1.72,9.07.51.19.8-.58.79-1.12-.06-5.95-.06-2.51-.12-8.46v-9.96c-.52-10.27-1.11-20.53-.99-30.81,0-6.59.27-5.96.54-12.55.26-6.51.53,10.64.79,4.12.16-4.06-.25-7.84-.28-11.85-.04-7.61.37-15.29-1-22.83-.02-.09-.03-.17-.05-.26.28-4.41.17-8.83,0-13.24v-16.9c0-2.45.49-6.76,1.35-9.66,3.47-1.92,7.11-3.53,10.88-4.79v14.82c.51,0,1.06.01,1.44.34-.52,3.26-.72,6.57-.59,9.86v13.7c.62,0,.9-.6.89-1.22-.02-2.45-.02-4.91-.04-7.36v-5.13c.51-3.53.66-7.12.43-10.69v-1.35c-.91-1.4-1.57-2.99-1.28-4.63,0-2.39-.71-6.09-.18-8.58,3.33-1.07,6.75-1.87,10.26-2.39l-.93,1.63c-.21.45-.15.98-.13,1.47.03.63.03,1.27-.08,1.89v5.48c-.13,1.04-.19,2.09-.08,3.13.04,1.09.04,2.19.08,3.28v2.1c.13,0,.26-.03.38-.09,0-.6-.02-1.19-.02-1.79v-1.99c.06-.68.03-1.37-.02-2.05-.02-.31-.05-.63-.04-.94,0-.22.03-.43.05-.65.16-1.68.28-3.37.44-5.05v-4.15c.32,0,.65.06.97.02-.07,0,.17-1.2.42-2.42.37-.05.75-.1,1.12-.14.14,1.37.26,2.74.44,4.11v6.48c0,2.16,0,4.31,0,6.47v2.83c-.37,2.23-.09,4.57.56,6.74v28.98c.55,1.31.59,2.82.54,4.24-.04,1.26-.32,2.51-.15,3.76.11.79.4,1.55.43,2.35.02.53-.08,1.06-.16,1.59-.3,1.95-.34,3.94-.14,5.91.24,2.29.99,4.97-.24,6.92v3.98c.29.22.76-.02.95-.34.19-.31.2-.7.2-1.07-.01-2.36-.01-4.72-.02-7.08v-14.08c.46,0,.56-.6.58-1.06.12-2.65-.01-5.34-.58-7.93v-2.53c-.38-2.61-.93-5.24-.84-7.88v-12.66c.27-2.72.31-5.48-.28-8.16v-2.55c.09-2.9-.09-5.81,0-8.71v-10.42c1.81-.16,3.64-.25,5.49-.25v3.72c.4,2.62.63,5.27.66,7.92v13.73c-.27.05-.45.45-.26.66v.66c-.04.62.21,1.21.35,1.82.14.6.17,1.22.19,1.84.07,2.12.05,4.25.12,6.37v16.28c.58,0,.89.68.95,1.26.06.58.04,1.23.45,1.66.13.03.22-.14.18-.27-.04-.13-.14-.22-.21-.33-.12-.19-.14-.42-.16-.65-.04-.62-.14-7.55-.21-11.83.09-.02.18-.04.28-.06.68-3.65.79-7.39.44-11.09v-7.97c-.34.06-.7,0-1.01-.14.06-2.55.12-5.1.18-7.65.03-1.39.14-2.8-.09-4.17v-5.15c-.15-.11-.19-.26-.2-.44-.1-2.05-.21-4.11-.32-6.16,1.32.03,2.64.09,3.94.19.24,2.83.59,5.66.82,8.49v13.81c.18,5.11.94,10.19,1.12,15.3v6.73c.27,2.61.54,5.21.37,7.83v26.13c.08,3.01.46,6.02.54,9.04.05,1.75.09,3.5.14,5.25.16,6.2.32,12.41.82,18.59.37,4.59.89,9.17.74,13.77v29.78c-3.17.49-6.4.76-9.69.76-16.58,0-31.83-6.5-43.81-17.33ZM46.07,81.81c0,.16-.01.31-.02.49-.13,3.05-.27,1.66-.42-.33.2.5.34.3.44-.16ZM80.3,55.64c.11-.61.19-1.63.19-2.25v-1.46s.09-.01.13-.02v6.78c-.2.06-.43.03-.62-.07.64-1.93-.27.14.29-2.98ZM89.6,163.8v-33.71c-.41-.91-.7-1.9-.75-2.89-.06-1.14.12-2.28.22-3.42.2-2.25.19-4.53-.21-6.75v-8.99c-1.27-2.41-1.69-5.42-.37-7.81v-1.54c.62-1.48.62-3.33,0-4.81v-4.17c-.75-1.08-1.22-2.44-.75-3.66v-4.12c-.73-.64-1.11-1.7-.75-2.6v-19.78c.61-3.2.54-6.5,0-9.7v-28.47c-.41.19-.64-.44-.65-.89-.12-3.45-.24-6.9-.36-10.35l-1.46-.82c2.5.23,4.96.61,7.38,1.12-.05,2.04-.07,4.04.53,6.01.32,1.03.37,2.12.42,3.19.38,8.24.55,16.4.55,24.65,1.41,8.15,1.96,23.59,1.37,31.83.79-1.43,1.14-3.07,1.07-4.7v-20.31c-.86-1.98-1.18-4.19-.98-6.34v-10.72c-.28-1.85-.82-3.73-.78-5.59.05-2.4.11-4.8.16-7.2.03-1.5.4-2.91.5-4.39.05-.79.11-1.54-.05-2.32-.11-.56-.8-1.45-.8-1.94v-1.7c.79.2,1.57.4,2.35.63.07.67.13,1.33.21,2v6.48c0,2.16,0,4.31,0,6.47v2.83c-.37,2.23-.09,4.57.56,6.74v28.98c.55,1.31.59,2.82.54,4.24-.04,1.26-.32,2.51-.15,3.76.11.79.4,1.55.43,2.35.02.53-.08,1.06-.16,1.59-.3,1.95-.34,3.94-.14,5.91.24,2.29.99,4.97-.24,6.92v3.98c.29.22.76-.02.95-.34.19-.31.2-.7.19-1.07,0-2.36,0-4.72-.02-7.08v-14.08c.46,0,.56-.6.58-1.06.12-2.65-.01-5.34-.58-7.93v-2.53c-.38-2.61-.93-5.24-.84-7.88v-12.66c.27-2.72.31-5.48-.28-8.16v-2.55c.09-2.9-.09-5.81,0-8.71v-7.87c1.15.35,2.29.74,3.42,1.16,0,4.17,0,8.34.02,12.51v17.06c-.43,6.33.04,12.69,1.25,18.92.14.71.21,1.43.21,2.15v6.28c.6,2.2.66,4.41.55,6.69-.23,4.76-.14,9.63.91,14.27v26.53c.52.73,1.42-15.47,1.43-16.37.07-4.54-.11-11.54-.95-16.01v-10.24c-.21-2.76-.27-5.53-.49-8.29,0-7.44-1.3-14.88-1.34-22.37-.05-8.33.36-16.66.36-25,0-1.72-.01-3.52.38-5.21,10.49,4.36,19.79,11.46,27.2,20.52v2.21c.34,2.85,1.17,5.63.6,8.45v1.01c.24,2.34.22,4.69.2,7.04v4.83c.16-.88.37-1.72.46-2.61.09-.91.1-1.82.11-2.73.02-1.64,0-3.28.03-4.92v-5.23c-.15-2.38-.35-4.77-.68-7.13.49.62.98,1.25,1.45,1.88.1,1.02.2,2.04.32,3.05v6.48c-.01,2.16,0,4.31,0,6.47v2.83c-.37,2.23-.09,4.57.56,6.74v28.98c.55,1.31.59,2.82.54,4.24-.04,1.26-.32,2.51-.15,3.76.11.79.4,1.55.43,2.35.02.53-.08,1.06-.16,1.59-.3,1.95-.34,3.94-.14,5.91.24,2.29.99,4.97-.24,6.92v3.98c.29.22.76-.02.95-.34.19-.31.2-.7.2-1.07-.01-2.36-.01-4.72-.02-7.08v-14.08c.46,0,.56-.6.58-1.06.12-2.65-.01-5.34-.58-7.93v-2.53c-.38-2.61-.93-5.24-.84-7.88v-12.66c.27-2.72.31-5.48-.28-8.16v-2.55c.09-2.9-.09-5.81,0-8.71v-7.63c1.71,2.42,3.29,4.97,4.74,7.61v5.31c.4,2.62.63,5.27.66,7.92v13.73c-.27.05-.45.45-.26.66v.66c-.04.62.21,1.21.35,1.82.14.6.17,1.22.19,1.84.07,2.12.05,4.25.12,6.37v16.28c.58,0,.89.68.95,1.26.06.58.04,1.23.45,1.66.13.03.22-.14.18-.27-.04-.13-.14-.22-.21-.33-.12-.19-.14-.42-.16-.65-.04-.62-.14-7.55-.21-11.83.09-.02.19-.04.28-.06.68-3.65.79-7.39.44-11.09v-7.97c-.34.06-.7,0-1.01-.14.06-2.55.12-5.1.18-7.65.03-1.39.14-2.8-.09-4.17v-5.15c-.15-.11-.19-.26-.2-.44-.09-1.7-.17-3.41-.26-5.11,5.59,11.2,8.78,24.08,8.78,37.78,0,38.82-25.58,71.09-58.91,76.9Z"/>
      </g>
      <path class="cls-1" d="M79.08,173.9C35.62,173.9.25,134.89.25,86.95S35.62,0,79.08,0s78.83,39,78.83,86.95-35.36,86.95-78.83,86.95ZM79.08,9.06C40.61,9.06,9.31,44,9.31,86.95s31.3,77.89,69.77,77.89,69.77-34.94,69.77-77.89S117.56,9.06,79.08,9.06Z"/>
    </g>
  </g>
</svg>