<?xml version="1.0" encoding="UTF-8"?>
<svg id="Layer_2" data-name="Layer 2" xmlns="http://www.w3.org/2000/svg" viewBox="0 0 572.002 358.585">
  <g id="Layer_1-2" data-name="Layer 1">
    <g>
      <path d="M22.87,358.585l1.707-21.052-8.852-18.169-.435-.036c5.496-31.41,18.211-58.164,37.856-79.529,16.174-17.59,37.048-31.604,62.041-41.654,39.513-15.887,77.075-16.734,82.643-16.769h.716l.004-.679c43.094-.003,78.151-39.385,78.151-87.793,0-44.232-29.273-80.922-67.198-86.926,18.413.578,57.415,2.894,96.649,12.117,31.528,7.411,57.029,17.764,75.793,30.771,20.762,14.391,33.265,32.091,37.274,52.699-3.486.823-6.001,4.088-5.81,7.853.215,4.226,3.754,7.476,7.904,7.257,4.15-.219,7.34-3.822,7.126-8.049-.215-4.224-3.75-7.472-7.897-7.257-4.06-20.998-16.758-39.012-37.854-53.633-18.905-13.102-44.562-23.522-76.257-30.971-27.294-6.414-54.469-9.496-74.72-10.975h330.327c.329,2.497,2.407,4.429,4.949,4.429,2.77,0,5.017-2.288,5.017-5.109s-2.246-5.109-5.017-5.109c-2.541,0-4.62,1.934-4.949,4.43H199.793c-.751-.003-1.179-.001-1.248,0h-.006l.003.68c-43.093.001-78.151,39.384-78.151,87.792,0,44.709,29.905,81.717,68.425,87.113H31.684c-2.253,0-4.578.022-6.378-1.584-1.432-1.227-2.449-3.57-2.639-5.527h-12.739c.453,3.493,2.263,6.487,5.541,7.792-3.24,1.189-5.238,4.414-5.541,7.791h12.739c.226-2.033,1.546-4.759,3.167-5.948,1.581-1.153,3.996-1.165,5.879-1.165h145.794c-15.899,1.791-38.985,5.932-62.77,15.489-25.187,10.123-46.231,24.249-62.548,41.987-19.861,21.593-32.702,48.628-38.234,80.364l-.59-.05-11.657,16.443-1.708,21.052,12.379-10.682,10.491,12.605ZM129.374,92.903c0-43.366,31.03-78.646,69.172-78.646s69.173,35.281,69.173,78.646-31.03,78.646-69.173,78.646-69.172-35.281-69.172-78.646Z"/>
      <path d="M198.545,179.851c-43.467,0-78.831-39.005-78.831-86.948S155.078,5.954,198.545,5.954s78.832,39.005,78.832,86.948-35.364,86.948-78.832,86.948ZM198.545,15.013c-38.472,0-69.771,34.941-69.771,77.889s31.299,77.889,69.771,77.889,69.772-34.941,69.772-77.889S237.019,15.013,198.545,15.013Z" fill="#edff00"/>
    </g>
  </g>
</svg>