<?xml version="1.0" encoding="UTF-8"?>
<svg id="Layer_2" data-name="Layer 2" xmlns="http://www.w3.org/2000/svg" viewBox="0 0 251.697 484.387">
  <g id="Layer_1-2" data-name="Layer 1">
    <g>
      <path d="M80.46,316.147c39.266,0,71.213,35.663,71.213,79.497,0,20.444-6.952,39.11-18.352,53.21,8.766-16.192,12.099-35.421,10.041-53.588-.561-4.957-1.521-9.848-2.809-14.665.053.197-1.433,2.636-1.597,3.04-.344.849-1.217,2.348-.964,3.296,5.206,19.471,5.494,43.161-5.411,60.81-2.56,4.144-5.666,7.933-9.19,11.28-9.18,7.769-20.091,13.114-31.964,15.171-1.827.206-3.669.318-5.522.323-9.228.026-18.194-2.755-25.701-8.136-8.68-6.223-15.222-15.106-20.37-24.356-10.525-18.91-14.963-40.668-15.137-62.177-.106-13.085,1.365-26.104,4.101-38.865,12.986-15.289,31.343-24.84,51.662-24.84M9.247,395.644c0-20.092,6.715-38.463,17.765-52.473-3.004,12.916-4.807,26.113-4.948,39.625-.226,21.616,3.746,43.611,13.777,62.907,4.443,8.549,10.025,16.835,17.234,23.322-25.713-12.003-43.828-40.374-43.828-73.381M249.339,47.928c-1.599-.798-3.216.221-4.061,1.548-1.092,1.718-2.792,5.032-2.317,7.14.101.451,1.2-1.866,1.284-2.055l.165-.35c1.07-.45,2.465-.093,3.231.769,1.439,1.62,1.306,4.16,1.191,6.18-.225,3.969-.909,8.084-2.333,11.808-2.617,6.843-8.279,13.292-14.804,16.638-16.204,8.303-32.182-4.343-40.769-17.523-10.142-15.565-14.613-34.267-28.726-47.157-12.848-11.734-29.879-17.519-46.558-21.288-15.192-3.433-37.412-8.394-48.311,6.473-.395.539-3.112,5.876-2.429,6.257,33.759,18.829,42.322,62.678,41.361,98.193-.652,24.123-4.76,48.251-11.806,71.318-3.53,11.554-7.89,22.847-13.073,33.761-5.116,10.774-10.937,21.222-16.509,31.764-12.424,23.505-24.556,47.834-32.715,73.241-3.069,2.552-5.998,5.36-8.757,8.421-15.091,16.738-23.402,38.962-23.402,62.578s8.311,45.838,23.402,62.578c15.211,16.873,35.475,26.165,57.058,26.165s41.846-9.292,57.058-26.165c15.091-16.74,23.401-38.964,23.401-62.578s-8.31-45.839-23.401-62.578c-15.211-16.874-35.475-26.166-57.058-26.166-17.186,0-33.531,5.897-47.16,16.817,1.059-3.451,2.203-6.876,3.429-10.27,7.836-21.701,18.7-42.145,29.486-62.486,5.428-10.234,11.004-20.415,15.846-30.945,4.932-10.724,9.27-21.728,12.924-32.954,7.18-22.061,11.753-44.95,13.386-68.098,1.337-18.922.452-38.082-4.394-56.491-4.447-16.881-12.431-33.441-25.844-45.01-2.591-2.234-5.36-4.238-8.273-6.024,11.884-8.728,30.718-4.338,43.925-1.306,18.13,4.163,36.749,10.86,49.638,24.897,14.011,15.259,17.503,37.19,31.855,52.176,6.28,6.557,14.676,11.804,24.062,11.371,8.01-.369,15.003-4.975,19.898-11.114,5.985-7.504,9.968-17.381,11.581-26.804.538-3.143,2.297-10.849-1.478-12.732"/>
      <path d="M80.482,484.387C36.13,484.387.047,444.481.047,395.43s36.083-88.957,80.435-88.957,80.436,39.906,80.436,88.957-36.083,88.957-80.436,88.957ZM80.482,315.742c-39.255,0-71.19,35.748-71.19,79.688s31.936,79.688,71.19,79.688,71.191-35.748,71.191-79.688-31.936-79.688-71.191-79.688Z" fill="#edff00"/>
    </g>
  </g>
</svg>