<?xml version="1.0" encoding="UTF-8"?>
<svg id="Layer_2" data-name="Layer 2" xmlns="http://www.w3.org/2000/svg" viewBox="0 0 171.261 242.167">
  <g id="Layer_1-2" data-name="Layer 1">
    <g>
      <path d="M80.375,31.133c-.012.015-.023.029-.035.044-1.399,1.753-1.262,4.302-.527,6.421.736,2.119,1.98,4.039,2.648,6.18.081.259.154.533.099.798-.164.795-1.378.909-1.974.357s-.735-1.425-.864-2.227c-.419-2.604-1.127-5.233-2.667-7.374-.968-1.346-2.472-2.541-4.118-2.341-1.721.209-2.885,1.815-3.758,3.313-8.708,14.936-8.6,31.876-8.086,48.631.049,1.582-.225,3.55-1.719,4.076-1.675.591-3.234-1.243-3.685-2.961-1.101-4.202.796-8.519,1.95-12.707,2.411-8.745,1.589-18.013.748-27.046-.296-3.183-.845-6.807-3.523-8.553-3.082-2.011-7.19-.396-10.33,1.523C21.025,53.637,9.298,80.075,9.298,107.142c0,42.978,31.321,77.944,69.82,77.944s69.821-34.966,69.821-77.944c0-21.378-8.016-42.764-23.21-57.986-7.139-7.152-15.766-12.831-25.294-16.245-4.658-1.669-16.038-6.704-20.06-1.778M79.117,194.151c-10.056,0-20.056-2.137-29.252-6.201-4.414-1.95-8.631-4.333-12.599-7.079-.913-.632-8.431-8.042-9.802-5.878-3.039,4.795.305,12.451-4.056,16.086,1.24-5.199.41-10.862-2.269-15.486-.624-1.077-1.43-2.166-2.618-2.538-1.565-.49-3.295.491-4.165,1.881-.869,1.39-1.064,3.089-1.163,4.726-1.237,20.64,10.587,41.494,28.932,51.031,2.848,1.481,6.287,3.365,6.343,6.575.055,3.126-3.577,5.297-6.669,4.838-3.093-.459-5.594-2.703-7.717-4.998-9.506-10.274-15.359-23.381-19.944-36.606C3.405,169.541-1.229,136.483.539,103.762,2.842,61.137,33.393,20.132,79.117,20.132c8.537,0,17.056,1.53,25.059,4.498,1.733.643,3.28,1.107,4.938,1.98.361.19.723.38,1.101.537,1.785.739,3.897.645,5.61-.25,1.713-.894,2.997-2.573,3.412-4.461.082.954-.056,1.916-.011,2.872.044.957.31,1.967,1.03,2.599,1.362,1.195,3.929-.199,5.239-.885,7.093-3.715,10.98-12.202,12.963-19.552.713-2.643,1.695-5.406,3.867-7.072.309-.237.683-.458,1.066-.383.543.106.798.732.89,1.278.621,3.718-1.364,6.778-3.569,9.499-4.293,5.297-7.943,11.115-10.845,17.285-1.186,2.521-2.17,5.744-.388,7.885,1.785,2.146,5.093,1.756,7.841,2.253,2.59.467,4.99,1.923,6.602,4.003.537.694,1.008,1.523.926,2.397-.081.874-.942,1.705-1.783,1.455-.566-.168-.908-.721-1.234-1.213-2.28-3.438-6.262-5.685-10.384-5.859-2.323-.098,2.533,5.701,2.855,6.021,2.195,2.177,4.129,4.73,5.964,7.21,3.783,5.115,6.999,10.645,9.603,16.448,2.45,5.46,4.554,23.595,14.256,19.327,3.321-1.462,5.335-4.812,7.135-7.964-5.803,14.892-14.018,30.263-10.876,45.934,1.503,7.499,5.547,14.318,6.921,21.842.504,2.761-.243,6.645-3.049,6.709-1.555.035-2.85-1.337-3.287-2.829-.438-1.492-.227-3.087-.07-4.634.542-5.352.387-10.773-.459-16.085-.199-1.25-.468-2.562-1.308-3.511-3.732-4.212-5.144,7.197-5.834,9.293-1.54,4.677-3.455,9.232-5.731,13.6-4.536,8.703-10.508,16.669-17.704,23.351-13.768,12.784-31.878,20.442-50.748,20.442"/>
      <path d="M78.831,193.644C35.364,193.644,0,154.639,0,106.696S35.364,19.747,78.831,19.747s78.832,39.005,78.832,86.948-35.364,86.948-78.832,86.948ZM78.831,28.806C40.359,28.806,9.06,63.748,9.06,106.696s31.299,77.889,69.771,77.889,69.772-34.941,69.772-77.889S117.304,28.806,78.831,28.806Z" fill="#edff00"/>
    </g>
  </g>
</svg>