<?xml version="1.0" encoding="UTF-8"?>
<svg id="Layer_2" data-name="Layer 2" xmlns="http://www.w3.org/2000/svg" viewBox="0 0 157.663 173.897">
  <g id="Layer_1-2" data-name="Layer 1">
    <g>
      <path d="M157.543,86.948C157.543,39.078,122.233.133,78.833.133S.121,39.078.121,86.948s35.31,86.816,78.712,86.816,78.71-38.945,78.71-86.816ZM35.906,35.376c8.851,0,16.051,8.038,16.051,17.919s-7.2,17.919-16.051,17.919-16.051-8.038-16.051-17.919,7.2-17.919,16.051-17.919ZM95.425,38.451c28.244,0,51.219,25.551,51.219,56.958s-22.976,56.958-51.219,56.958-51.219-25.551-51.219-56.958,22.976-56.958,51.219-56.958ZM148.383,84.824l.067.069c.003.128.006.256.009.384-.024-.152-.051-.302-.076-.453ZM78.833,9.178h0c29.973,0,42.051,31.87,29.417,28.388,0,0,0,0,0,0,0,0,0,0,0,0-4.111-1.117-8.406-1.709-12.824-1.709-2.978,0-5.9.269-8.748.786-5.29.961-10.324,2.779-14.98,5.32h0c-15.756,7.557-40.797-13.816-29.121-21.403t0,0c9.612-6.566,20.753-10.605,32.676-11.281,1.185-.067,2.379-.102,3.579-.102ZM9.167,86.948c0-10.404,1.84-20.337,5.175-29.416.261-.711.541-1.41.82-2.11,1.44-3.295,1.867-1.22,3.607,4.423,0,0,0,0,0,.001,2.465,7.822,9.216,13.452,17.137,13.452h0c7.197,0,5.705,15.356,5.705,22.105,0,.002,0,.004,0,.006,0,26.01,15.146,48.178,36.192,56.272h0s0,0,0,0c17.821,6.878-6.399,13.849-20.529,9.21-.462-.168-.927-.327-1.385-.505-.001,0-.003,0-.004-.001h0c-27.174-10.613-46.717-39.524-46.717-73.436Z"/>
      <path d="M78.831,173.897C35.364,173.897,0,134.892,0,86.948S35.364,0,78.831,0s78.832,39.005,78.832,86.948-35.364,86.948-78.832,86.948ZM78.831,9.059C40.359,9.059,9.06,44,9.06,86.948s31.299,77.889,69.771,77.889,69.772-34.941,69.772-77.889S117.304,9.059,78.831,9.059Z" fill="#edff00"/>
    </g>
  </g>
</svg>