<?xml version="1.0" encoding="UTF-8"?>
<svg id="Layer_2" data-name="Layer 2" xmlns="http://www.w3.org/2000/svg" viewBox="0 0 104.089 68.148">
  <g id="Layer_1-2" data-name="Layer 1">
    <g>
      <path d="M104.089,0s-.395,23.407-10.515,23.424h-2.478s-4.044.002-4.044.002l-8.295.002-7.651.002-13.857.004-20.389.018C19.809,23.451,0,1.558,0,1.558c0,0,18.125,20.452,18.125,21.898v9h7.967c4.841,0,14.427,11.685,14.427,11.685,0,0-8.163-11.685-3.417-11.685h58.112c8.353,0,8.875,35.692,8.875,35.692v-35.692h0v-9.034h0V0Z"/>
      <polygon points="28.723 32.475 94.537 32.441 94.537 23.433 28.723 23.433 28.723 32.475" fill="#ff97eb"/>
    </g>
  </g>
</svg>