<?xml version="1.0" encoding="UTF-8"?>
<svg id="Layer_2" data-name="Layer 2" xmlns="http://www.w3.org/2000/svg" viewBox="0 0 185.518 43.031">
  <g id="Layer_1-2" data-name="Layer 1">
    <g>
      <path d="M92.089,22.105h-4.088s-8.386.003-8.386.003l-7.734.002-14.008.004-20.611.018C20.025,22.132,0,0,0,0c0,0,18.322,20.675,18.322,22.136v9.098h69.486c15.736,0,33.391,11.796,33.391,11.796l-15.975-11.796h0s0,0,0,0h0c.009-5.777,62.157-19.709,80.294-23.652-16.411,3.504-68.905,14.519-80.294,14.52h0s-13.136.003-13.136.003ZM105.224,31.235h0s0,0,0,0Z"/>
      <polygon points="24.089 31.198 89.903 31.164 89.903 22.156 24.089 22.156 24.089 31.198" fill="#ff97eb"/>
    </g>
  </g>
</svg>