<?xml version="1.0" encoding="UTF-8"?>
<svg id="Layer_2" data-name="Layer 2" xmlns="http://www.w3.org/2000/svg" viewBox="0 0 67.05 155.27">
  <defs>
    <style>
      .cls-1 {
        fill: #ff97eb;
      }
    </style>
  </defs>
  <g id="Layer_1-2" data-name="Layer 1">
    <g>
      <g>
        <path d="M1.22,0v16.01c.03,6.2-.03,12.39,0,18.59v2.99c-.68,9.06-.54,18.17.59,27.18.16,1.25.09,2.64-1.08,3.12v1.73c.23,2.48.37,21.55.61,24.03.08.81-.33,2.06-1.09,1.79v35.79c-.11.9-.13,1.81-.25,2.71,1.87,3.05-.26,7.24,1.18,10.52.49-11.14.98-42.07,1.47-53.22.04-.81-.11-1.55-.44-2.29v-48.48c-.04-7.01.53-14.02.49-21.02v-10.41h10.31c.19,5.52.64,17.43.68,19.41.04,1.87-.5,3.76-.78,5.61v10.76c.21,2.16-.12,4.37-.98,6.36v20.38c-.07,1.63.28,3.29,1.07,4.72-.59-8.27-.04-23.77,1.37-31.94,0-7.14-.32-25.18-.16-35.3h1.89c-.04,1.73-.11,3.47-.16,5.2v6.46c-.05,2.44-.12,4.89-.18,7.33v2.62c.16,1.91.02,3.84-.17,5.75.11.1.21.2.29.32.51-5.09.88-10.21.76-15.32v-11.52l-.1-.84h2.39v6.92c-.13,3.41.05,6.84.55,10.22-.18.02-.37.04-.55.06v12.76c0,.36,0,.71.02,1.07-.31,1.31-.29,2.7.09,3.99-.17.14-.42.21-.63.16v6.83c-.07,1.4.07,2.79.17,4.18v2.45c-.03,2.32-.18,4.65-.22,6.97.19.01.38.02.57.02v-9.79c.5-2.7.29-5.51.23-8.26-.03-1.29-.05-2.58-.08-3.87.06.78.12,1.57.2,2.35v-3.44c.11-.03.23-.04.35-.04v-17.63c-.02-1.54-.17-3.08-.18-4.63-.01-1.03-.02-2.06.09-3.09.08-.73.21-1.46.31-2.19.2-1.45.18-2.94.13-4.4l-.13-.64h6.85s-.26,3.09-.26,3.09c-.2,2.45-.64,4.78-.41,7.22.2,2.09.45,4.2.28,6.29-.16,1.91-.45,3.93-.28,5.85v4.84c.17,1.95.18,3.92.35,5.88.22-11.06.44-22.12.66-33.18h7.45v8.6c-.03,1.23-.02,2.47-.05,3.7-.01.58-.01,1.2.31,1.68.14-.62.17-1.27.19-1.9.02-.46.04-.92.06-1.38.06-1.45-.01-2.88-.06-4.33v-1.35c-.07-.6-.08-1.23.15-1.79v-2.84l-.1-.37h3.59v6.96c.03,6.2-.03,12.39,0,18.59v2.99c-.68,9.06-.54,18.17.59,27.18.16,1.25.09,2.64-1.08,3.12v1.73c.23,2.48.37,21.55.6,24.03.08.81-.33,2.06-1.09,1.79v35.79c-.11.9-.14,1.81-.25,2.71,1.87,3.05-.26,7.24,1.18,10.52.49-11.14.98-42.07,1.47-53.22.03-.81-.11-1.55-.44-2.29v-48.48c-.04-7.01.53-14.02.49-21.02v-10.39h5.3v5.11c.02,1.65,0,3.29.03,4.93.01.91.03,1.83.11,2.73.09.89.3,1.74.46,2.62v-4.84c-.02-2.36-.04-4.72.2-7.06v-1.01c-.17-.83-.21-1.66-.18-2.48h2.73s-.33,3.85-.33,3.85c-.2,2.45-.64,4.78-.41,7.22.2,2.09.45,4.2.28,6.3-.16,1.91-.45,3.93-.28,5.85v4.84c.17,1.95.18,3.92.35,5.88.22-11.31.45-22.63.67-33.94h.81v1.63c-.02,2.46-.02,4.92-.04,7.38,0,.62.28,1.22.9,1.22v-10.23h2.26c.04,1.96.09,3.92.13,5.87.04,1.87-.5,3.76-.78,5.61v10.76c.21,2.15-.12,4.37-.98,6.36v20.38c-.07,1.63.28,3.29,1.07,4.72-.59-8.27-.05-23.77,1.37-31.94,0-7.28.14-14.5.43-21.76h2.52v11.49c0,2.04.14,4.08.35,6.11v10.47c-.64,1.6-.73,3.41-.24,5.06-.17.14-.42.21-.63.16v6.83c-.07,1.4.07,2.79.18,4.18v2.45c-.03,2.32-.18,4.65-.22,6.97.19.01.38.02.56.02v-9.79c.5-2.71.29-5.51.23-8.26-.03-1.62-.07-3.24-.1-4.87.16-.13.37-.14.57-.14V9.06h1.76s-.54,5.73-.54,5.73c.16,1.91.02,3.84-.17,5.75.11.1.21.2.29.32.39-3.92.7-7.86.76-11.8h5.3s-.6,16.01-.6,16.01v8.49c-1.02,5.24-.83,10.75.59,15.89.05.19.1.39.14.59V9.06h2.13s0-9.06,0-9.06H1.22Z"/>
        <path d="M64.91,50.04v.93c.09-.3.06-.61,0-.93Z"/>
        <path d="M63.81,51.6v24.36c-.12,2.01-.05,4.03.14,6.04-.13-.11-.29-.17-.45-.09-.02.48-.04.95-.06,1.43h-.37c.48.47-.07,1.51-.74,1.44v1.88c-.57,1.99.04,4.11,1.11,5.88v4.07c-.17,3.56-.14,7.13,0,10.69v39.46c-.32,2.71-.58,5.43-.9,8.14.49.29,1.07.36,1.64.36v-52.75c.81-5.57.65-11.27-.69-16.73.47-.09.94-.22,1.43-.22v-34.6s0,.03,0,.04c-.16.5-.65.87-1.1.59Z"/>
      </g>
      <polygon class="cls-1" points="1.22 9.04 67.04 9.01 67.04 0 1.22 0 1.22 9.04"/>
    </g>
  </g>
</svg>