<?xml version="1.0" encoding="UTF-8"?>
<svg id="Layer_2" data-name="Layer 2" xmlns="http://www.w3.org/2000/svg" viewBox="0 0 86.512 262.46">
  <g id="Layer_1-2" data-name="Layer 1">
    <g>
      <path d="M9.136,0H0s.035,5.259.035,36.657C.035,63.782-.187,103.449,4.545,134.917c.627,4.753,1.476,9.498,2.621,14.165l.003.013h.001c2.096,8.535,5.192,16.8,9.782,24.34,7.233,11.883,18.37,22.165,32.273,25.224,11.474,2.524,24.845.385,33.3-7.933-.4,13.562-4.568,26.923-11.965,38.33-8.369,12.907-20.794,22.761-35.153,28.235-8.441,3.217-17.591,5.043-26.644,4.712-.45-.017-2.119-.268-2.432.109-.179.216,1.267.288,1.375.291,16.028.588,31.897-3.234,45.44-11.975,13.61-8.782,23.866-22.042,29.209-37.315,3.063-8.754,4.462-18.021,4.102-27.288-.011-.292-3.701-.468-3.951-.068-3.299,5.304-8.346,9.169-14.165,11.368-6.736,2.545-13.455,2.48-20.219.076-12.84-4.561-22.701-15.146-29.065-26.908-1.839-3.401-3.4-6.898-4.736-10.467-8.45-24.839-5.185-99.915-5.185-123.166V0Z"/>
      <polygon points="0 0 .136 65.814 8.702 65.814 9.042 0 0 0" fill="#ff97eb"/>
    </g>
  </g>
</svg>