<?xml version="1.0" encoding="UTF-8"?>
<svg id="Layer_2" data-name="Layer 2" xmlns="http://www.w3.org/2000/svg" viewBox="0 0 344.24 262.976">
  <g id="Layer_1-2" data-name="Layer 1">
    <g>
      <path d="M81.986,62.944c-3.063-8.386-3.617-17.814-2.378-26.524,1.641-11.528,6.965-22.433,15.896-30.023,1.508,4.37,1.916,9.311,1.895,13.81-.026,5.872-1.007,11.72-2.675,17.341-2.721,9.165-7.328,17.563-12.737,25.396M.002,207.351c.065,8.829,1.944,17.491,5.215,25.674,3.269,8.177,7.712,16.089,14.199,22.153,3.075,2.874,6.766,5.74,10.752,7.205,3.95,1.452,9.712.367,9.868-4.768.037-1.215-.953-2.807-1.452-3.851-.087-.182-1.309-2.376-1.321-1.966-.076,2.483-2.066,4.354-4.379,4.971-2.662.711-5.464-.326-7.786-1.584-4.249-2.301-8.044-5.543-11.224-9.161-6.383-7.264-9.504-15.916-10.636-25.44-2.389-20.13,4.913-39.91,14.117-57.462,10.051-19.169,22.203-37.37,35.453-54.467,10.149-13.098,21.94-25.201,31.409-38.859.77,1.507,1.586,2.991,2.445,4.447,6.996,11.869,17.22,21.386,29.007,28.413,6.035,3.599,15.468,7.601,20.022,9.237,23.423,8.42,53.362,11.286,84.773,11.286h123.775v-9.051l-123.775-.035c-18.882,0-59.057.012-80.752-6.192-21.813-6.327-42.8-18.321-54.533-38.169-.142-.24-.279-.484-.416-.726,2.223-3.252,4.311-6.595,6.212-10.06,4.742-8.651,8.053-18.181,8.956-28.039.928-10.108-1.209-19.665-5.525-28.791-.009-.021-1.112-2.258-1.288-2.111-10.798,8.989-16.294,22.703-16.818,36.553-.353,9.34,1.607,18.565,5.132,27.173-1.087,1.552-2.202,3.085-3.342,4.594-6.463,8.563-13.649,16.541-20.469,24.814-7.197,8.729-14.023,17.767-20.454,27.075-6.339,9.176-12.303,18.615-17.844,28.294-5.273,9.212-10.128,18.716-13.693,28.732C2.204,186.868-.074,197.094.002,207.351"/>
      <polygon points="278.427 123.136 344.24 123.001 344.24 114.434 278.427 114.094 278.427 123.136" fill="#ff97eb"/>
    </g>
  </g>
</svg>