<?xml version="1.0" encoding="UTF-8"?>
<svg id="Layer_2" data-name="Layer 2" xmlns="http://www.w3.org/2000/svg" viewBox="0 0 107.282 32.991">
  <g id="Layer_1-2" data-name="Layer 1">
    <g>
      <path d="M97.873,25.448c-.241.072-.489.121-.737.161-.206.033-.417.061-.625.044-.552-.045-1.049-.423-1.3-.917-.251-.494-.271-1.087-.115-1.619.155-.532.474-1.006.862-1.402.795-.812,1.921-1.307,3.021-1.546,2.274-.494,4.732-.028,6.893.738.344.122.734.255,1.057.086.438-.228.449-.903.137-1.285-.312-.382-.821-.535-1.304-.636-3.4-.712-6.924.183-10.208,1.314-1.206.415-2.437.868-3.712.831-1.274-.037-2.625-.697-3.063-1.895-.2-.547-.285-1.265-.836-1.454-.554-.19-1.104.387-1.214.962-.111.576.039,1.173-.031,1.754-.148,1.229-1.271,2.163-2.468,2.477-2.379.625-5.622.215-8.087.215h-35.605c-2.456,0-5.595.291-7.289-1.897-.529-.683-.848-1.503-1.335-2.217-.486-.713-1.228-1.349-2.091-1.344,1.112.307,1.516,1.808,1.048,2.863-.467,1.055-1.51,1.727-2.538,2.251-2.529,1.29-5.438,2.072-8.219,1.5-3.475-.717-5.337-3.405-6.237-6.626-.543-1.944-.885-3.944-1.019-5.958-.043-.648-.168-1.444-.783-1.655-.405-.14-.869.076-1.124.42s-.334.789-.345,1.217c-.045,1.729.979,2.642,1.811,3.973.612.98,1.331,3.41.318,4.409-.891.88-1.955,1.475-3.268,1.208-3.957-.803-6.692-5.302-7.509-8.972-.451-2.028-.3-4.232.552-6.138.413-.926.992-1.756,1.724-2.458.674-.647,1.532-1.327,1.372-2.39C5.476.591,4.562-.019,3.682,0c-.88.018-1.686.547-2.248,1.226C.306,2.589.043,4.464.005,6.234c-.153,7.29,2.938,14.588,8.279,19.552,2.545,2.366,5.585,4.184,8.85,5.363,1.703.615,3.498,1.036,5.351,1.318,6.637,1.012,14.008.247,20.46.245,9.291-.002,18.582-.005,27.873-.008,9.061-.002,18.123-.004,27.184-.006v-7.301c-.044.015-.085.037-.13.05Z"/>
      <polygon points="27.478 32.625 93.292 32.59 93.292 23.582 27.478 23.582 27.478 32.625" fill="#ff97eb"/>
    </g>
  </g>
</svg>