<?xml version="1.0" encoding="UTF-8"?>
<svg id="Layer_2" data-name="Layer 2" xmlns="http://www.w3.org/2000/svg" viewBox="0 0 79.729 48.661">
  <g id="Layer_1-2" data-name="Layer 1">
    <g>
      <path d="M70.225,38.042s.003-.002.006-.004c5.659-3.463,9.497-10.122,9.497-17.752,0-4.195-1.16-8.096-3.146-11.334-3.308-5.397-8.908-8.952-15.247-8.952-4.098,0-7.887,1.486-10.947,3.994-3.167,2.596-5.555,6.287-6.698,10.56-.486,1.818-.747,3.742-.747,5.732,0,2.326.357,4.561,1.013,6.644.454,1.442,1.053,2.81,1.775,4.084,0,.001.001.002.002.003,4.255,7.397-.261,8.383-5.531,8.488H4.562c-2.52,0-4.562,2.042-4.562,4.561v.032c0,2.52,2.043,4.562,4.562,4.561l6.466-.013,28.632-.011,33.318-.008c2.519,0,4.56-2.042,4.56-4.561s-2.042-4.561-4.561-4.561h-.096s0,0-.002,0c-.03,0-.073,0-.111,0h-.28c-1.313-.003-4.497-.093-2.264-1.464ZM45.057,20.286c0-10.02,7.302-18.172,16.279-18.172s16.279,8.152,16.279,18.172-7.302,18.172-16.279,18.172-16.279-8.152-16.279-18.172Z"/>
      <polygon points="4.845 48.661 70.659 48.627 70.659 39.619 4.845 39.619 4.845 48.661" fill="#ff97eb"/>
    </g>
  </g>
</svg>