<?xml version="1.0" encoding="UTF-8"?>
<svg id="Layer_2" data-name="Layer 2" xmlns="http://www.w3.org/2000/svg" viewBox="0 0 97.498 31.859">
  <g id="Layer_1-2" data-name="Layer 1">
    <g>
      <path d="M94.289,12.282c-1.414-1.482-3.181-2.49-5.097-2.911.816-.049,1.579-.296,2.23-.71,1.302-.831,2.166-2.289,2.166-3.948v-.034c0-1.519-.724-2.869-1.845-3.723-.787-.6-1.769-.956-2.835-.956l-6.633.014-43.419.011L4.678.034c-2.584,0-4.678,2.095-4.678,4.679h0c0,2.585,2.095,4.679,4.679,4.679h66.883s.002,0,.003,0c4.007,0,9.274,1.123,6.908,4.983h0c-.532.907-.947,1.895-1.223,2.931-.277,1.032-.418,2.108-.418,3.199,0,1.271.189,2.518.565,3.708.253.801.586,1.57.992,2.284,1.905,3.358,5.187,5.364,8.776,5.364,1.752,0,3.485-.493,5.009-1.424,3.284-2.008,5.324-5.813,5.324-9.932,0-2.266-.607-4.456-1.758-6.33-.425-.695-.913-1.327-1.451-1.891ZM87.166,11.081c4.631,0,8.398,4.226,8.398,9.422s-3.767,9.422-8.398,9.422-8.399-4.226-8.399-9.422,3.767-9.422,8.399-9.422Z"/>
      <polygon points="7.144 9.191 72.958 9.157 72.958 .149 7.144 .149 7.144 9.191" fill="#ff97eb"/>
    </g>
  </g>
</svg>