<?xml version="1.0" encoding="UTF-8"?>
<svg id="Layer_2" data-name="Layer 2" xmlns="http://www.w3.org/2000/svg" viewBox="0 0 62.273 108.11">
  <g id="Layer_1-2" data-name="Layer 1">
    <g>
      <path d="M61.114,42.898c2.656-6.962.59-14.445-4.592-18.272,0,0,0,0-.001,0C52.068,21.077,25.626,0,25.626,0c0,0,23.744,21.832,21.199,22.243h0c-5.28.792-10.177,4.678-12.388,10.477h0S0,108.11,0,108.11c0,0,30.893-66.44,36.237-59.912,0,0,0,0,0,0,1.475,1.985,3.461,3.556,5.867,4.473,7.367,2.81,15.878-1.566,19.009-9.775Z"/>
      <ellipse cx="47.779" cy="37.859" rx="15.628" ry="14.025" transform="translate(-4.624 69.004) rotate(-69.117)" fill="red"/>
    </g>
  </g>
</svg>