<?xml version="1.0" encoding="UTF-8"?>
<svg id="Layer_2" data-name="Layer 2" xmlns="http://www.w3.org/2000/svg" viewBox="0 0 30.62 404.26">
  <defs>
    <style>
      .cls-1 {
        fill: red;
      }
    </style>
  </defs>
  <g id="Layer_1-2" data-name="Layer 1">
    <g>
      <g>
        <path d="M30.62,114.07c-.11-.92-.14-1.85-.25-2.77v-9.05c-.78.27-1.2-1-1.12-1.83.24-2.54.38-5.08.62-7.62v-26.02c-1.19-.5-1.27-1.91-1.1-3.19,1.16-9.21,1.3-18.53.6-27.79l-.11-20.27-.02.11c.36-6.51-3.01-12.56-8.85-14.78C12.97-1.97,4.4,2.43,1.25,10.7c-1.41,3.69-1.49,7.53-.5,10.9v88.91c-.53,33.25-.32,66.51-.41,99.77.81.02,1.63.05,2.31-.37-.74-29.62-.71-59.3,1.11-88.87v-24.83c-2.18-3.86-1.87-8.68-1.68-13.1.69-16.19.99-32.4,1.68-48.59l-1.52-9.48c1.4,2.36,3.44,4.28,6,5.44v32.17c.58,0,1.18-.07,1.68-.37-.33-2.77-.59-5.55-.92-8.32v-23.14c6.34,2.4,13.5-.48,17.41-6.52v53.69c.58,0,1.18-.07,1.68-.37-.33-2.77-.59-5.55-.92-8.32V28.95c.08-2.05.12-4.1.11-6.16.31-.59.59-1.2.84-1.84l.25,67.35c-.33.76-.49,1.51-.45,2.34.5,11.39,1,22.78,1.5,34.17,1.47-3.35-.71-7.63,1.2-10.75Z"/>
        <path d="M0,218.86c0,2.8-.03,5.51.27,8.23.04-5.6.06-11.2.08-16.8-.12,0-.23,0-.34,0v8.58Z"/>
        <path d="M0,297.34v75.04C0,376.63,0,380.88,0,385.13c0,2.38.04,4.64.23,6.98.3,3.7-.78,8.65,1.67,11.79.19.25.56.49.78.27.13-.13.11-.33.08-.51-.24-1.51-.75-2.97-1.5-4.31.38.05.72-.42.55-.77.44.2.86.25,1.3.04.86-4.53-1.42-9.37-1.6-13.93-.11-2.64-.21-5.28-.28-7.92-.3-12.57.93-25.06.69-37.58-.25-12.82-.38-25.65-.03-38.47.41-15.07,1.1-30.08.28-45.15-.1-1.9-.21-3.81.05-5.7.35-2.54,1.36-5,1.36-7.56,0-3.85-1.62-7.54-2.58-11.17-.36-1.36-.58-2.71-.73-4.06-.06,8.54-.13,17.09-.27,25.63v44.63Z"/>
      </g>
      <ellipse class="cls-1" cx="14.89" cy="15.8" rx="15.63" ry="14.03" transform="translate(-5.18 24.08) rotate(-69.12)"/>
    </g>
  </g>
</svg>