<?xml version="1.0" encoding="UTF-8"?>
<svg id="Layer_2" data-name="Layer 2" xmlns="http://www.w3.org/2000/svg" viewBox="0 0 186.54 164.027">
  <g id="Layer_1-2" data-name="Layer 1">
    <g>
      <path d="M6.38,60.214c2.135,34.378,15.466,62.138,38.55,80.282,19.307,15.174,45.331,23.532,73.28,23.532,23.411,0,42.163-7.528,54.23-21.771,8.828-10.42,14.099-24.784,14.099-38.424,0-16.854-4.809-31.432-13.907-42.159-8.484-10.003-19.893-15.575-32.123-15.687-.099-.002-.196-.002-.294-.002-11.507,0-20.121,6.249-24.922,18.087-5.691,14.039-4.568,32.556-1.533,40.463.417,1.15.968,2.229,1.63,3.222-9.35-6.993-14.459-20.885-13.376-37.76,1.525-23.777,16.17-51.59,44.716-57.482l.987,10.968,10.467-12.817-12.581-10.664,1.002,11.125c-29.341,5.97-44.389,34.447-45.95,58.78-1.295,20.197,6.107,36.284,19.026,41.946.593.35,1.207.673,1.866.929,7.32,2.844,15.778-1.585,18.89-9.893,3.111-8.307-.299-17.348-7.621-20.193-7.32-2.845-15.777,1.585-18.89,9.893-.369.984-.639,1.98-.829,2.973-1.07-8.884-.51-21.18,3.456-30.959,3.194-7.877,9.887-17.23,23.662-17.23.093,0,.189,0,.283.001,11.833.109,22.88,5.51,31.105,15.208,8.882,10.471,13.576,24.736,13.576,41.252,0,13.318-5.147,27.344-13.769,37.518-11.968,14.127-29.867,21.291-53.199,21.291-27.65,0-53.379-8.256-72.45-23.244C22.736,121.301,9.953,94.725,7.759,60.412l5.804-10.874-13.563.543,6.464,10.128-.084.005Z"/>
      <ellipse cx="127.312" cy="97.452" rx="15.628" ry="14.025" transform="translate(-9.119 181.664) rotate(-69.117)" fill="red"/>
    </g>
  </g>
</svg>