<?xml version="1.0" encoding="UTF-8"?>
<svg id="Layer_2" data-name="Layer 2" xmlns="http://www.w3.org/2000/svg" viewBox="0 0 73.18 71.112">
  <g id="Layer_1-2" data-name="Layer 1">
    <g>
      <path d="M72.976,26.122C71.29,11.65,59.905.084,45.039,0,30.01-.084,16.318,10.416,8.967,22.947,4.818,30.019,1.527,38.161.369,46.312c-.315,2.209-.451,4.35-.319,6.362.277,5.738,3.512,10.865,8.772,12.872,7.337,2.8,15.802-1.528,18.907-9.668,3.105-8.139-.325-17.006-7.662-19.804-5.995-2.288-12.739.187-16.701,5.606.138-3.982,1.161-7.931,2.912-11.027,5.592-9.895,17.814-21.664,28.808-24.723,10.962-3.049,20.965-.363,28.257,8.65,3.297,4.076,5.187,8.961,6.055,14.129.817,4.865.726,14.822-1.497,19.317-2.53,5.112-7.574,12.077-13.47,13.456-2.312.541-4.984.133-6.821-1.446-1.41-1.214-1.376-2.43-1.936-4.031.004-.169.01-.337.015-.506.645-.472,1.527-.894,1.72-.922,1.332-.194,3.434-8.302,3.361-8.317-4.811-.98-8.259,3.711-10.669,7.173-3.121,4.481-5.361,9.476-7.311,14.555-.114.293-1.231,3.368-.662,3.11,1.019-.462,2.017-4.111,2.357-4.998,1.527-3.975,5.558-10.352,10.314-11.469-1.392,3.013-2.849,6.572-2.549,9.709.296,3.108,2.694,5.176,5.716,5.601,3.17.444,6.124-1.094,8.49-3.074,5.761-4.823,9.627-11.898,12.44-18.742,2.859-6.957,4.965-14.415,4.081-22.001"/>
      <ellipse cx="14.54" cy="50.857" rx="15.628" ry="14.025" transform="translate(-38.159 46.313) rotate(-69.117)" fill="red"/>
    </g>
  </g>
</svg>