<?xml version="1.0" encoding="UTF-8"?>
<svg id="Layer_2" data-name="Layer 2" xmlns="http://www.w3.org/2000/svg" viewBox="0 0 30.277 103.04">
  <g id="Layer_1-2" data-name="Layer 1">
    <g>
      <path d="M29.063,91.768c-3.322,8.708-12.35,13.35-20.164,10.369-17.443-6.654-4.459-31.06-1.033-42.603,2.358-7.943,2.876-16.034,2.254-24.258-.604-8-2.938-15.401-4.169-23.329-.584-3.758-.511-8.07,2.171-10.765C8.801.499,9.702-.064,10.662.006c1.421.104,2.411,1.588,2.509,3.009.097,1.422-.456,2.796-.93,4.139-4.13,11.689-1.774,24.521.783,36.316.359,1.654.851,3.447,2.236,4.418,1.36.953,3.172.828,4.827.685,1.654-.144,3.484-.217,4.792.806,1.309,1.023,1.357,3.566-.238,4.028-1.254.363-2.399-.725-3.52-1.395-7.022-4.197-11.501,4.824-12.73,10.139-.417,1.805-.813,3.666-.524,5.496.289,1.83,1.416,3.644,3.178,4.215,1.722.558,3.562-.155,5.357-.382,1.738-.22,3.637-.103,5.342.292,1.704.394,3.186,1.295,4.978.548,1.553-.647,2.571-2.601,1.84-4.117.855,1.163.903,2.734.694,4.162-.209,1.428-.639,2.836-.617,4.279.037,2.433,1.406,4.698,1.589,7.185.198,2.687-.206,5.421-1.166,7.938"/>
      <ellipse cx="14.958" cy="87.452" rx="15.628" ry="14.025" transform="translate(-72.081 70.254) rotate(-69.117)" fill="red"/>
    </g>
  </g>
</svg>