<?xml version="1.0" encoding="UTF-8"?>
<svg id="Layer_2" data-name="Layer 2" xmlns="http://www.w3.org/2000/svg" viewBox="0 0 66.872 73.919">
  <g id="Layer_1-2" data-name="Layer 1">
    <g>
      <path d="M33.436,73.919c1.826,0,3.657-.164,5.442-.489,16.221-2.947,27.994-18.285,27.994-36.47C66.872,16.58,51.872,0,33.436,0c-1.706,0-3.42.144-5.092.428C12.186,3.168,0,18.873,0,36.96c0,20.379,14.999,36.959,33.436,36.959ZM33.436,2.368c17.131,0,31.068,15.517,31.068,34.591s-13.937,34.592-31.068,34.592c-5.255,0-10.209-1.46-14.553-4.035h0s0,0,0,0c-2.818-1.677-3.258-3.091-2.639-3.858,1.835-2.271,7.919,1.578,15.08-.961h0c4.343-1.433,8.16-4.974,10.038-9.897,3.125-8.19-.3-17.103-7.65-19.907-7.35-2.804-15.841,1.563-18.965,9.752,0,0,0,0,0,0h0c-2.791,7.569-10.73,9.083-12.107-1.106h0c-.179-1.498-.271-3.027-.271-4.579C2.368,17.886,16.305,2.368,33.436,2.368Z"/>
      <ellipse cx="28.14" cy="47.633" rx="15.628" ry="14.025" transform="translate(-26.394 56.946) rotate(-69.117)" fill="red"/>
    </g>
  </g>
</svg>