<?xml version="1.0" encoding="UTF-8"?>
<svg id="Layer_2" data-name="Layer 2" xmlns="http://www.w3.org/2000/svg" viewBox="0 0 251.455 217.542">
  <g id="Layer_1-2" data-name="Layer 1">
    <g>
      <path d="M195.869,178.241s0,0,0,0c0,0,0,0,0,0-10.117,1.636-12.597-64.439-12.981-77.212.311,12.833,1.304,79.461-11.668,77.435h-.003c-32.23-4.674-47.941-29.998-47.941-77.027h-9.052S0,0,0,0c0,0,113.527,107.403,115.379,122.109h0s0,.004,0,.006c2.58,20.617-41.769,44.148-55.103,50.73,13.477-6.367,59.129-26.97,64.761-16.709v-.014c1.096,2.117,2.271,4.135,3.533,6.041,9.847,14.865,24.659,23.451,44.117,25.605h0c9.8,1.158,10.629,29.773,10.629,29.773,0,0,.975-28.473,11.042-29.939,0,0,0,0,0,0,18.775-2.402,33.117-10.93,42.728-25.44,9.52-14.372,14.348-34.804,14.348-60.727h-9.053c0,46.329-15.247,71.595-46.513,76.805Z"/>
      <path d="M182.79,188.427c-24.532,0-42.804-8.804-54.306-26.168-9.528-14.384-14.361-34.833-14.361-60.781h9.06c0,52.411,19.497,77.889,59.606,77.889s59.605-25.478,59.605-77.889h9.06c0,25.946-4.832,46.396-14.361,60.781-11.502,17.364-29.773,26.168-54.305,26.168Z" fill="#0086ff"/>
    </g>
  </g>
</svg>