<?xml version="1.0" encoding="UTF-8"?>
<svg id="Layer_2" data-name="Layer 2" xmlns="http://www.w3.org/2000/svg" viewBox="0 0 138.98 415.77">
  <defs>
    <style>
      .cls-1 {
        fill: #0086ff;
      }
    </style>
  </defs>
  <g id="Layer_1-2" data-name="Layer 1">
    <g>
      <g>
        <path d="M138.87,25.27v-1.36c-.91-1.4-1.57-3-1.29-4.66,0-1.39-.42-3.29-.53-5.07.12-1.4.21-2.71.3-4.16,0-.02,0-.04.02-.06h-.01c.19-3-.06-6.81,0-9.97h-9.06c-.82,52.62-20.25,78.68-60.52,77.82C28.03,76.97,9.44,52.11,9.08,0H.02C-.04,4.12.05,6.63.23,10.47c0,3.89,0,7.78.02,11.67v17.14c-.43,6.36.04,12.75,1.25,19.01.14.71.21,1.44.21,2.16v6.31c.61,2.21.66,4.43.55,6.72-.23,4.78-.14,9.67.92,14.34v26.65c.52.73,1.43-15.55,1.44-16.45.07-4.57-.11-11.6-.95-16.09v-10.29c-.21-2.77-.27-5.55-.49-8.33,0-7.48-1.3-14.95-1.34-22.48-.02-4.39.08-8.77.18-13.16,1.25,7.45,3.08,14.23,5.5,20.3-.06,1.83-.54,3.76.7,5.35v20.33c-.06,6.59.04,13.24,1.16,19.73v6.97c.54,10.05.62,20.13,1.16,30.18v5.8c-.26,4.64-.32,9.29-.58,13.93v8.15c2.17,13.53-1.97,27.14.58,40.61,0,21.17-.48,42.14-1.39,63.17-.27,6.18-.53,12.36-.29,18.54.11,2.9.43,12.55,1.68,14.65v96.95c-.62.19-.76.69-.87,1.33-1.27,7.22-1.07,14.69.6,21.83.59.09,1.17.18,1.76.27-.28-2.59-.63-5.17-.91-7.76v-20.93c.44.59,1.14-.57,1.09-1.3-.23-3.42-.28-6.86-.51-10.28v-36.59c.85.62,1.89-1.11,1.83-2.16-.34-6.23-.33-12.48-.67-18.71v-32.51c-.25-2.7-.34-5.42-.58-8.13v-5.92c-.41.59-1.24-.5-1.24-1.22.03-3.24.14-6.5.66-9.69v-70.24c.12-6.39.46-12.77.58-19.15v-55.16c-.4-1.77-1.38-3.31-1.78-5.08-.66-2.94-1.29-6.13.04-8.84v-31.93c.34-3.13-.19-6.29-1.16-9.29v-8.65c1.02,2.16,2.12,4.22,3.3,6.17.15,2.05.34,4.1.45,6.16v17.49c.34,4.88.16,9.79.48,14.67.01.21.02.41.02.62v24.55s.01.06.02.09c0,.11-.01.2-.02.32v56.56c-.02,1.83.08,3.67.1,5.5.08,6.22.66,2.99,1.72,9.11.51.19.8-.58.79-1.12-.06-5.98-.06-2.52-.12-8.5v-10c-.52-10.32-1.11-20.63-1-30.96,0-6.62.27-5.99.54-12.61.27-6.55.53,10.69.8,4.14.17-4.08-.25-7.88-.28-11.9-.04-7.65.37-15.36-1-22.93-.02-.09-.03-.17-.05-.26.28-4.43.17-8.87,0-13.3v-16.98c0-1.56.2-3.87.56-6.1,3.11,4.24,6.66,7.91,10.66,11.03-.19.45-.14.96-.12,1.45.03.63.03,1.27-.08,1.9v5.51c-.13,1.05-.19,2.1-.08,3.14.04,1.1.04,2.2.08,3.3v2.11c.13,0,.27-.03.38-.09,0-.6-.02-1.2-.02-1.8v-2c.06-.69.03-1.38-.02-2.06-.02-.31-.05-.63-.04-.94,0-.22.03-.43.05-.65.16-1.69.28-3.38.44-5.07v-4.17c.08,0,.15,0,.23.01.65.49,1.31.97,1.99,1.43v15.92c-.36,6.87.12,13.8.88,20.64.05.41.07.82.07,1.23v-1.62c.04,1.25.02,2.39.06,3.64.17,5.08.24,10.17.41,15.25v5.67c-.27.45.38,1.12.85.87.61-4.19.74-8.49.1-12.68v-9.46c-.06-2.18.03-4.38-.29-6.53-.1-.68-.18-1.36-.18-2.04v4.39c-.1-4.41.19-8.86-.47-13.22v-9.96c1.14,0,1.05-1.48.78-2.59-.66-2.75-.95-5.66-.64-8.49,2.01,1.27,4.11,2.42,6.31,3.44v19.67c.56,0,.72.45.78,1.01,1.38,12.38.63,24.79,1.45,37.23,2.12,32.32,3.17,67.51,4.65,99.87v21.96s0,0,0,0c.38-.76,1.06-1.43,1.98,0,.71-.26.67-1.26.51-1.99-.45-1.98-.74-4.02-1.2-6v-5.34c-.17-1.1-.34.65-.43,2.12v-9.88c.93-3.72-.06-7.43-.54-11.23-.37-2.96-.51-6.05.11-8.97v-45.04c-.59-4.3-1.13-1.44-1.72-5.74v-8.91c.08,1.5.04-2.96,0-7.41v-27.74c0-1.67-.48-3.26-1.07-4.82-.15-.39-.21-.88-.22-1.32-.1-3-.33,10.58-.43,7.58v-2.85c0-1.64-.47-3.22-1.03-4.76-.18-.48-.15-1.02.17-1.42v-13.82c.58,0,1.17.13,1.72-.07v-4.17c0-3.17-1.35-11.28.07-15.95,4.08,1.49,8.44,2.61,13.09,3.34.24,2.75.58,5.5.8,8.25v13.88c.18,5.13.94,10.24,1.13,15.37v6.76c.27,2.62.54,5.24.37,7.86v26.25c.08,3.03.46,6.05.54,9.08.05,1.76.09,3.52.14,5.27.16,6.23.33,12.47.82,18.68.37,4.61.89,9.21.75,13.83v30.37c-.53,2.7-.47,5.53,0,8.25v2.65c.33,0,.46.5.34.81-.12.31-.4.52-.59.78-.46.62-.44,1.47-.39,2.24.25,4.11.64,8.21,1.16,12.29,1.95-1.59,1.53-4.68.98-7.14v-1.91c-.12-.11-.25-.23-.37-.34v-52.13c-.41-.91-.7-1.91-.76-2.91-.06-1.15.12-2.29.22-3.43.2-2.26.2-4.55-.21-6.78v-9.03c-1.27-2.42-1.7-5.45-.38-7.84v-1.55c.63-1.48.63-3.35,0-4.83v-4.19c-.76-1.09-1.23-2.45-.75-3.68v-4.14c-.73-.64-1.12-1.71-.75-2.61v-19.88c.61-3.21.55-6.53,0-9.75v-28.6c-.41.19-.64-.44-.65-.9-.12-3.47-.24-6.94-.36-10.4l-.7-.39c1.68.24,3.4.42,5.15.57,0,1.5.11,2.98.56,4.44.32,1.03.37,2.13.42,3.21.39,8.28.55,16.48.55,24.77,1.42,8.18,1.96,23.7,1.38,31.98.79-1.43,1.15-3.09,1.07-4.73v-20.41c-.86-1.99-1.19-4.21-.98-6.37v-10.78c-.28-1.85-.82-3.74-.78-5.62.05-2.41.11-4.83.16-7.24.03-1.51.4-2.93.5-4.41.05-.79.11-1.55-.05-2.34-.11-.56-.81-1.46-.81-1.95l-.2-.44c1.05.06,2.11.1,3.18.13v2.29c.4,2.63.63,5.29.66,7.96v13.8c-.27.05-.45.45-.26.66v.66c-.04.63.21,1.22.35,1.83.14.6.17,1.23.19,1.85.07,2.13.05,4.27.12,6.4v16.36c.59,0,.89.68.95,1.26.06.58.04,1.24.45,1.66.13.03.22-.15.18-.27-.04-.13-.14-.22-.21-.33-.12-.19-.14-.42-.16-.65-.04-.62-.14-7.59-.21-11.88.09-.02.19-.04.28-.06.69-3.67.8-7.43.44-11.14v-8.01c-.34.06-.7,0-1.01-.14.06-2.56.12-5.12.18-7.68.03-1.4.14-2.81-.09-4.19v-5.17c-.15-.11-.19-.26-.2-.44-.08-1.58-.16-3.15-.24-4.73,1.35.02,2.68,0,4-.03.23,2.43.51,4.86.71,7.29v13.88c.18,5.13.94,10.24,1.13,15.37v6.76c.27,2.62.54,5.24.37,7.86v26.25c.08,3.03.46,6.05.54,9.08.05,1.76.09,3.52.14,5.27.16,6.23.33,12.47.82,18.68.37,4.61.89,9.21.75,13.83v30.37c-.53,2.7-.47,5.53,0,8.25v2.65c.33,0,.46.5.34.81-.12.31-.4.52-.59.78-.46.62-.44,1.47-.39,2.24.25,4.11.64,8.2,1.16,12.29,1.95-1.59,1.53-4.68.98-7.14v-1.91c-.12-.11-.25-.23-.37-.34v-52.13c-.41-.91-.7-1.91-.76-2.91-.06-1.15.12-2.29.22-3.43.2-2.26.2-4.55-.21-6.78v-9.03c-1.27-2.42-1.7-5.45-.38-7.84v-1.55c.63-1.48.63-3.35,0-4.83v-4.19c-.76-1.09-1.23-2.45-.75-3.68v-4.14c-.73-.64-1.12-1.71-.75-2.61v-19.88c.61-3.21.55-6.53,0-9.75v-28.6c-.41.19-.64-.44-.65-.9-.12-3.37-.23-6.74-.35-10.11,2.04-.1,4.03-.26,5.97-.5-.04,2.59-.26,5.11.5,7.57.32,1.03.37,2.13.42,3.21.38,8.28.55,16.48.55,24.77,1.42,8.18,1.96,23.7,1.38,31.98.79-1.43,1.15-3.09,1.07-4.73v-20.41c-.86-1.99-1.19-4.21-.98-6.37v-10.78c-.28-1.85-.82-3.74-.78-5.62.05-2.41.11-4.83.16-7.24.03-1.51.4-2.93.5-4.41.05-.79.11-1.55-.05-2.34-.11-.56-.81-1.46-.81-1.95v-3.96c1.04-.15,2.07-.32,3.08-.5.24,12.01.47,24.02.71,36.03.17-1.96.18-3.93.35-5.88v-4.85c.17-1.93-.12-3.95-.28-5.86-.17-2.1.07-4.21.28-6.3.24-2.44-.21-4.78-.41-7.23v-3.04c-.06-.98-.14-1.97-.19-2.95,1.86-.36,3.66-.78,5.43-1.28.21,1.81.35,3.64.58,5.45v6.51c-.01,2.17,0,4.33,0,6.5v2.84c-.37,2.24-.09,4.59.56,6.77v29.12c.55,1.31.59,2.84.54,4.26-.04,1.26-.32,2.53-.15,3.78.11.79.4,1.56.43,2.36.02.53-.08,1.07-.16,1.6-.3,1.96-.35,3.96-.14,5.94.24,2.31,1,4.99-.24,6.95v4c.29.22.76-.02.96-.34.19-.31.2-.7.2-1.07-.01-2.37-.01-4.74-.02-7.11v-14.15c.46,0,.56-.6.58-1.07.12-2.66-.01-5.37-.58-7.97v-2.54c-.38-2.63-.93-5.26-.85-7.92v-12.73c.27-2.74.31-5.51-.28-8.2v-2.56c.09-2.91-.09-5.83,0-8.75v-12.09c.62-.19,1.23-.39,1.84-.59v13.4c-.04,7.02.53,14.04.49,21.05v48.55c-.32.75-.48,1.48-.44,2.3.49,11.16.98,42.13,1.47,53.29,1.44-3.28-.69-7.47,1.18-10.53-.11-.9-.13-1.81-.25-2.72v-35.84c-.76.27-1.17-.98-1.1-1.79.23-2.49.37-21.58.61-24.06v-1.73c-1.17-.49-1.24-1.87-1.08-3.13,1.13-9.02,1.27-18.15.59-27.22v-2.99c.03-6.2-.03-12.41,0-18.61v-8.33c.11-.57.18-1.38.27-2.26,1.23-.46,2.43-.95,3.61-1.48l-.25.43v3.76c.14-.15.31.15.31.35-.03,2.32.03,4.65,0,6.97v2.85c.23.56.22,1.19.15,1.8v1.36c-.05,1.45-.12,2.89-.06,4.34.02.46.04.92.06,1.38.03.64.05,1.28.19,1.91.32-.48.32-1.1.31-1.68-.02-1.23-.02-2.47-.05-3.71v-11.98c.41-.41.27-1.2.21-1.78-.16-1.51-.36-3-.51-4.51v-1.64c2.69-1.23,5.24-2.65,7.66-4.26.15,1.63.4-1.01.53,1.46v17.49c.34,4.88.16,9.79.48,14.67.01.21.02.41.02.62v24.55s.01.06.02.09c0,.11-.01.2-.02.32v56.56c-.02,1.83.08,3.67.1,5.5.08,6.22.66,2.99,1.72,9.11.51.19.8-.58.79-1.12-.06-5.98-.06-2.52-.12-8.5v-10c-.52-10.32-1.11-20.63-1-30.96,0-6.63.27-5.99.54-12.61.26-6.55.53,10.69.8,4.14.17-4.08-.25-7.88-.28-11.9-.04-7.65.37-15.36-1-22.93-.02-.09-.03-.17-.05-.26.28-4.43.17-8.87,0-13.3v-16.98c0-2.16.38-5.74,1.05-8.55,4.41-3.49,8.3-7.68,11.65-12.57.85-1.24,1.65-2.53,2.42-3.86.1.66.16,1.32.19,1.98v28.94c-.09-.01-.07,6.18,0,10.63v23.98c.48,0,.95.13,1.43.22-1.34,5.47-1.5,11.18-.69,16.75v189.39c.57,0,1.16-.07,1.64-.36-.32-2.71-.58-122.19-.91-124.9v-70.04c.07,1.46.11-1.05.11-4.28-.04.07-.07.14-.11.21v-8.97c0-.1,0-.18.01-.24h-.01c-.02-.48-.04-.96-.06-1.43-.16-.07-.32-.02-.45.09.19-2.01.26-4.03.14-6.05v-14.88c.35-2.86.35-5.76,0-8.62v-.9s-.08.04-.12.05c-.08-.51-.15-1.02-.25-1.52v-8.5c.65-2.04,1.15-4.17.74-6.27v-2.95c-.14-1.35-.23-2.71-.37-4.06v-10.55c.28-.52.55-1.05.82-1.58v1.62c.4,2.64.63,5.29.66,7.96v13.8c-.27.05-.45.45-.26.66v.66c-.04.63.21,1.22.35,1.83.14.61.17,1.23.19,1.85.07,2.13.05,4.27.12,6.4v16.36c.59,0,.89.68.95,1.26.06.58.04,1.24.45,1.66.13.03.22-.15.18-.27-.04-.13-.14-.22-.21-.33-.12-.19-.14-.42-.16-.65-.04-.62-.14-7.59-.21-11.88.09-.02.19-.04.28-.06.69-3.67.8-7.43.44-11.14v-8.01c-.34.06-.7,0-1.01-.14.06-2.56.12-5.12.18-7.68.03-1.4.14-2.81-.09-4.19v-5.17c-.15-.11-.19-.26-.2-.44-.11-2.15-.22-4.3-.33-6.45l-.1-.19c1.85-4.05,3.44-8.44,4.76-13.18v7.55c-.13,5.12.25,10.25.76,15.34.08-.12.18-.23.29-.32-.2-1.91-.33-3.84-.17-5.75v-2.62c-.05-2.45-.12-4.89-.18-7.34v-6.47c-.03-.87-.06-1.75-.09-2.62.41-1.6.79-3.25,1.14-4.93v3.36c-.05,1.46-.07,2.96.13,4.41.1.73.24,1.46.31,2.2.11,1.03.1,2.06.09,3.09-.02,1.55-.17,3.09-.18,4.63v17.66c.12,0,.24.01.35.04v3.45c.08-.78.15-1.57.2-2.36-.03,1.29-.05,2.58-.08,3.88-.06,2.75-.27,5.56.23,8.27v9.8c.19,0,.38-.01.57-.02-.03-2.33-.18-4.65-.22-6.98v-2.45c.11-1.4.24-2.79.18-4.19v-6.84c-.22.06-.46-.02-.63-.16.38-1.29.4-2.68.09-3.99,0-.36.02-.71.02-1.07v-12.78c-.18-.02-.37-.04-.55-.06.5-3.38.68-6.82.55-10.24v-15.03h-.05c.34-2.02.64-4.08.9-6.21v6.5c.51,0,1.07.01,1.45.35-.52,3.27-.73,6.6-.59,9.91v13.77c.62,0,.9-.6.9-1.22-.02-2.46-.02-4.93-.04-7.39v-5.15c.51-3.55.67-7.16.43-10.74ZM14.19,124.54c.2.5.34.3.44-.16,0,.16-.01.31-.02.49-.13,3.06-.28,1.66-.42-.33ZM68.08,132.25c.11-.62.19-1.64.19-2.26v-1.46s.09-.01.13-.02v6.81c-.2.06-.43.03-.62-.07.65-1.94-.27.14.29-2.99ZM108.92,138.09c.2.5.34.3.44-.16,0,.16-.01.31-.02.49-.13,3.06-.27,1.66-.42-.33ZM128.76,98.44c.11-.62.19-1.64.19-2.26v-1.46s.09-.01.13-.02v6.81c-.2.06-.43.03-.62-.07.65-1.94-.27.14.29-2.99Z"/>
        <path d="M126.76,129.94c1-1.73,1.54-3.77.99-5.69v-1.88c-.67.07-1.22-.97-.74-1.44h-.32c.05.92.07,5.41.06,9.01Z"/>
        <path d="M126.66,120.93h.04c-.01-.22-.02-.24-.04,0Z"/>
        <path d="M87.89,124.38c.16-.88.38-1.73.46-2.63.09-.91.1-1.82.11-2.74.02-1.65,0-3.29.03-4.94v-5.25c-.17-2.7-.4-5.41-.81-8.08l-.61-2.63v4.85c.34,2.86,1.18,5.66.61,8.49v1.01c.24,2.35.22,4.71.2,7.07v4.85Z"/>
        <path d="M43.91,260.26c-.44.88-.47,1.9,0,0h0Z"/>
      </g>
      <path class="cls-1" d="M68.69,86.95c-24.53,0-42.8-8.8-54.31-26.17C4.85,46.4.02,25.95.02,0h9.06c0,52.41,19.5,77.89,59.61,77.89S128.29,52.41,128.29,0h9.06c0,25.95-4.83,46.4-14.36,60.78-11.5,17.36-29.77,26.17-54.3,26.17Z"/>
    </g>
  </g>
</svg>