<?xml version="1.0" encoding="UTF-8"?>
<svg id="Layer_2" data-name="Layer 2" xmlns="http://www.w3.org/2000/svg" viewBox="0 0 87.21 425.2">
  <defs>
    <style>
      .cls-1 {
        fill: #0086ff;
      }
    </style>
  </defs>
  <g id="Layer_1-2" data-name="Layer 1">
    <g>
      <path class="cls-1" d="M87.21,68.67c0,24.53-8.8,42.8-26.17,54.31-14.38,9.53-34.83,14.36-60.78,14.36v-9.06c52.41,0,77.89-19.5,77.89-59.61S52.68,9.06.27,9.06V0c25.95,0,46.4,4.83,60.78,14.36,17.36,11.5,26.17,29.77,26.17,54.3Z"/>
      <g>
        <path d="M84.12,89.62c1.48-5.89,2.27-12.3,2.38-19.21.38-24.67-8.19-43.18-25.47-55.02C46.72,5.58,26.23.4.14,0l-.14,9.11c.22,0,.44.01.66.02-.37,11.6-.4,23.2.14,34.83l1.89,84.12c-.88,0-1.62.07-2.52.06l.02,9.31c.94.01,1.86,0,2.79.01-.49,32.25-2.49,65.16-2.58,97.42.79.02,1.6.05,2.26-.37-.72-29.06-.69-58.18,1.09-87.19v-9.22c1.3-.02,2.59-.04,3.86-.08v35.6c-.02,1.84.08,3.68.1,5.51.08,6.22.66,12.44,1.73,18.58.51.19.8-.58.79-1.12-.06-5.99-.06-11.98-.12-17.96v-10.02c-.52-10.21-1.1-20.42-1-30.65,2.9-.12,5.73-.31,8.47-.58l-.61,2.83v44.64c.04-.2.09-.4.14-.59,1.43-5.16,1.62-10.69.6-15.94v-8.51c.66-2.04,1.15-4.18.74-6.28v-2.96c-.14-1.35-.23-2.71-.37-4.07v-9.17c1.47-.14,2.91-.31,4.33-.49.11,1.96.14,3.93.02,5.89v11.55c-.13,5.13.25,10.26.76,15.36.08-.12.18-.23.29-.32-.2-1.91-.33-3.85-.17-5.76v-2.63c-.05-2.45-.12-4.9-.17-7.35v-6.48c-.09-2.86-.23-5.72-.18-8.57l-.26-1.73c.5-.07.99-.13,1.48-.2v6.3c-.05,1.46-.07,2.96.13,4.41.1.73.24,1.46.31,2.2.11,1.03.1,2.06.09,3.1-.01,1.55-.17,3.09-.18,4.64v34.31c.2,0,.42,0,.58.14-.03,1.63-.07,3.25-.1,4.88-.06,2.76-.27,5.57.23,8.28v9.82c.19,0,.38-.01.57-.02-.03-2.33-.18-4.66-.22-6.99v-2.46c.11-1.4.24-2.79.18-4.19v-6.85c-.22.06-.47-.02-.63-.16.49-1.65.4-3.47-.24-5.07v-10.5c.21-2.04.35-4.08.35-6.13v-12.8c-.18-.02-.37-.04-.55-.06.5-3.39.69-6.83.55-10.25v-11.38l-.39-1.31c1.85-.27,3.64-.59,5.41-.94v10.14c.51,0,1.07.01,1.45.35-.52,3.28-.73,6.61-.59,9.92v13.79c.62,0,.9-.6.9-1.22-.02-2.47-.02-4.94-.04-7.41v-5.16c.51-3.55.67-7.17.43-10.75v-1.36c-.92-1.41-1.58-3.01-1.29-4.66,0-1.07-.14-2.39-.25-3.76,2.74-.55,5.39-1.18,7.93-1.9.08,1.44.23,2.88.4,4.31v9.99c.17,0,.26.19.25.36-.08,2.57-.16,5.14-.23,7.71.18.06.37.1.56.13-.05-.31-.06-.63.01-.93v-5.17c0-1.06-.01-2.11,0-3.17v-2.59c0-.5-.07-1-.07-1.49.01-2.04.11-4.11-.17-6.13v-3.23c1.03-.3,2.04-.62,3.04-.94.04,1.41.07,2.81.15,4.22.02.42.17.8.22,1.22v-2.35c.18-.14.13-.46.11-.7-.05-.83-.15-1.65-.24-2.47.71-.24,1.42-.48,2.12-.73.08.96.15,1.91.25,2.87v4.46c-.06,1.06-.18,2.11-.23,3.17v7.08c.22,0,.45-.01.65.06-.02-.19-.03-.38-.06-.56v-3.06c-.1.11-.24-.12-.24-.27,0-1.51.1-3.03.12-4.54v-2.23c.09-2.27.14-4.54.23-6.81v-.43c.29-.11.58-.21.87-.32v30.82c-.33,2.72-.58,5.45-.91,8.16.49.29,1.08.36,1.65.36v-39.62c2.28-.9,4.45-1.88,6.53-2.94,1.93,23.21,3.73,46.42,4.8,69.68v31.45c-.88,3.55,0,80.39,1.98,83.46.71-.26.67-1.26.51-2-.45-1.98-.75-4.03-1.2-6.01v-88.81c-.32-2-.62-4.01-.43-6.02v-11.21c.93-3.72-.06-7.44-.54-11.25-.37-2.97-.51-6.06.11-8.99v-18.09c-.59-4.3-1.14-8.61-1.72-12.92v-21.22c.69-.41,1.38-.81,2.04-1.24,3.74-2.4,7.1-5.11,10.07-8.12l-.64,4.26c.06,2.86-.09,5.72-.17,8.57v6.48c-.05,2.45-.12,4.9-.18,7.35v2.63c.16,1.91.02,3.85-.17,5.76.11.1.21.2.29.32.51-5.1.89-10.24.76-15.36v-11.55c-.18-2.85-.05-5.72.22-8.57.99-1.01,1.94-2.06,2.85-3.14-.03,2.89-.1,5.26-.21,6.81.8-1.44,1.15-3.09,1.08-4.73v-3.13c.41-.51.8-1.02,1.19-1.55v5.11c-.04,7.03.53,14.06.49,21.09v65.25c-.33.75-.48,1.49-.44,2.3.49,11.18.98,22.35,1.47,33.53,1.44-3.29-.7-7.49,1.18-10.55-.11-.9-.14-1.82-.25-2.72v-8.88c-.77.27-1.17-.98-1.1-1.79.23-2.49.37-4.99.61-7.47v-25.53c-1.17-.49-1.24-1.87-1.08-3.13,1.13-9.04,1.27-18.18.59-27.26v-19.62c.03-6.21-.03-12.43,0-18.64v-3.77c.18-.28.37-.55.55-.83.14,1.28.18,2.56-.08,3.84v1.01c.24,2.35.22,4.72.2,7.08v4.86c.16-.88.38-1.73.46-2.63.09-.91.1-1.83.11-2.74.02-1.65,0-3.3.03-4.95v-5.26c-.05-.71-.1-1.42-.15-2.14.49-.79.96-1.6,1.41-2.42.94,3.71,1.33,7.55.79,11.33v15.22c1.42,8.2,1.97,40.36,1.38,48.66.79-1.44,1.15-3.09,1.08-4.73v-1.91c.15.02.31.05.46.08v19.89c.03,6.5-.75,13-1.72,19.42.31.01.62,0,.93.02v42.51c-.05,4.01-.06,8.02-.11,12.03,0,.55.48,1.41.9,1.05v17.09c-.33,3.57.07,7.2,1.02,10.65.14-.34.03-.77.17-1.11v-22.64c.15-6.26.41-12.52.56-18.78.09-3.76.18-7.52.27-11.28.07-2.95.14-5.9.51-8.83.13-1.02.24-1.75-.55-2.4v-25.03c.73-3.04-1.54-6.27-.64-9.26.11-.36.26-.7.34-1.06.13-.54.11-1.1.09-1.65-.32-8.96-.03-17.98.21-26.95v-77.06ZM25.44,13v3.52c-.04.28-.05.56-.08.84v-4.9c-.15-.11-.19-.26-.2-.44l-.04-.7c.37.07.75.12,1.12.19l-.81,1.49ZM2.1,110.09c.67-15.89.97-31.79,1.65-47.68V23.28c-1.21-2.22-.78-4.8-.11-7.24.63-2.29,1.27-4.6,2.29-6.74.35.02.7.04,1.05.05.05.72.1,1.44.14,2.17v17.52c.35,4.99.15,10.01.5,15v41.52c1.35,8.87,1.36,17.83.98,26.79-.23,5.52,1.18,10.01.93,15.53-1.34.05-2.7.07-4.08.09l-1.69-5.02c-2.14-3.78-1.83-8.51-1.65-12.86ZM47.26,119.83v-2.4c.81-5.58.65-11.3-.69-16.78.47-.09.95-.22,1.43-.22v-34.7s0,.03,0,.04c-.16.51-.65.87-1.1.6v24.44c-.12,2.02-.05,4.04.14,6.06-.13-.11-.29-.17-.45-.09-.02.48-.04.96-.06,1.44h-.37c.48.47-.07,1.51-.74,1.44v1.89c-.57,1.99.04,4.12,1.11,5.9v4.09c-.16,3.25-.14,5.42-.03,8.68-9.96,4.41-20.67,6.98-35.55,7.62.1-3.67-1.44-6.32-1.29-10.01.27-6.56.53-13.11.8-19.67.17-4.08-.25-7.89-.28-11.92-.04-7.66.37-15.39-1-22.97-.91-5.01-.4-11.55-.06-16.7.3-4.49.18-9.01,0-13.51v-17.01c.8-2.05,1.15-4.27,1.09-6.48,4.76.33,9.26.84,13.51,1.54.27,2.13.43,4.28.46,6.43v13.82c-.27.05-.45.45-.27.66v.66c-.04.63.21,1.22.35,1.83.14.61.17,1.23.19,1.85.07,2.13.05,4.28.12,6.41v64.87c.59,0,.89.68.96,1.27.06.58.04,1.24.45,1.67.13.03.22-.15.18-.27-.04-.13-.14-.22-.21-.33-.12-.19-.14-.42-.16-.65-.06-.88-.23-1.75-.29-2.62v-2.45c-.2.06-.43.03-.62-.07.71-2.12-.46-50.21.49-52.24v-2.97c.16,0,.32-.06.49-.09.69-3.67.8-7.44.44-11.16v-8.02c-.24.04-.48.01-.71-.05-.01-.49-.03-.98-.04-1.47,0-.17.08-.36.25-.36v-9.98c.25-2.09.46-4.19.47-6.3,2.77.51,5.44,1.11,7.98,1.78-.06,2.04-.38,4.25-.38,5.86.29,1.65-.37,3.26-1.29,4.66v1.36c-.24,3.58-.08,7.2.43,10.75v5.16c-.02,2.47-.02,4.94-.04,7.41,0,.62.28,1.22.9,1.22v-13.79c.13-3.32-.07-6.65-.59-9.92.39-.33.94-.35,1.45-.35v-12.23c2,.54,3.92,1.15,5.78,1.79l-.76,2.55v11.38c-.13,3.42.05,6.86.55,10.25-.18.02-.37.04-.55.06v12.8c0,2.05.14,4.09.35,6.13v10.5c-.64,1.6-.73,3.42-.24,5.07-.17.14-.42.21-.63.16v6.85c-.07,1.4.07,2.8.18,4.19v2.46c-.03,2.33-.18,4.66-.22,6.99.19.01.38.02.57.02v-9.82c.5-2.71.29-5.53.23-8.28-.03-1.63-.07-3.25-.1-4.88.16-.13.37-.14.58-.14v-34.31c-.02-1.55-.17-3.09-.18-4.64-.01-1.03-.02-2.07.09-3.1.08-.74.21-1.47.31-2.2.2-1.45.18-2.95.13-4.42v-7.53c.54.19,1.08.39,1.61.59l-.38,2.56c.06,2.86-.09,5.72-.17,8.57v6.48c-.05,2.45-.12,4.9-.18,7.35v2.63c.16,1.91.02,3.85-.17,5.76.11.1.21.21.29.32.51-5.1.89-10.24.76-15.36v-11.55c-.14-2.22-.08-4.45.07-6.68,1.47.56,2.9,1.15,4.28,1.78v8.67c-.14,1.35-.23,2.71-.37,4.07v2.96c-.41,2.1.08,4.24.74,6.28v8.51c-1.03,5.25-.83,10.78.6,15.94.05.19.1.39.14.59V20.16l-.45-2.09c1.44.67,2.81,1.4,4.14,2.15v18.32c.56,0,.72.45.79,1.01.65,5.79,1.2,11.67.94,17.49v22.83c-.08,3.03-.16,6.1-.86,9.05v24.12c.14,1.63.19,2.27.33,3.9-1.8,1.08-3.62,1.97-5.62,2.89ZM57.3,114.33c0-.24,0-.48-.01-.72v-38.5c-.99.06-1.24-1.14-1.28-2.14-.1-3-.33-6.03-.43-9.04v-6.52c-.96-.37-1.5-1.73-.86-2.53v-13.84c.58,0,1.18.13,1.72-.07v-4.17c0-2.74-1.01-9.16-.37-13.87,1.31.91,2.55,1.88,3.75,2.88.24,12.21.48,24.43.72,36.64.17-1.96.18-3.93.35-5.89v-4.86c.11-1.28,0-2.57-.2-3.84v-1.21c.09-1.21.11-2.43.2-3.64v-4.41s.16-.09.15-.22c-.16-2.03-.39-4.07-.56-6.1v-3.04l-.44-3.23c3.68,3.12,6.77,6.69,9.27,10.69v5.76c1.42,4.42,2.13,9.12,1.47,13.72v15.22c.73,4.19,1.23,14.66,1.46,24.99-3.34,7.54-8.32,13.04-14.94,17.96ZM73.23,93.96v-15.72c-.86-1.99-1.19-4.22-.98-6.38v-10.79c-.3-1.97-.68-3.92-.98-5.89v-8.4c.66-1.51,1.06-3.24.88-4.84,3.67,7.96,5.42,17.38,5.25,28.31-.14,8.93-1.52,16.83-4.16,23.7ZM82.54,111.87v42.1c-.35,2.05-.63,4.1-.86,6.16v-22.37c-.86-1.99-1.19-4.22-.98-6.38v-10.79c-.3-1.97-.68-3.92-.98-5.89v-8.4c.8-1.84,1.22-4,.66-5.86.96-2.13,1.82-4.35,2.56-6.65v4.18c-.3,4.62-.09,9.28-.4,13.9Z"/>
        <path d="M45.65,150.86c.02-.42.01-.85-.02-1.27-.12.41-.12.86.02,1.27Z"/>
        <path d="M45.74,149.29s-.09-.05-.14-.07c.01.12.03.24.04.37.03-.1.06-.2.1-.3Z"/>
        <path d="M18.41,220.69c-1.34,5.48-1.5,11.2-.69,16.78v52.91c.57,0,1.16-.07,1.65-.36-.33-2.72-.58-5.45-.91-8.16v-39.57c.14-3.57.17-7.15,0-10.73v-4.09c1.07-1.78,1.68-3.91,1.11-5.9v-1.89c-.67.07-1.22-.97-.74-1.44h-.37c-.02-.48-.04-.96-.06-1.44-.16-.07-.33-.02-.45.09.19-2.01.26-4.04.14-6.06v-24.44c-.45.28-.94-.09-1.1-.6,0-.01,0-.03,0-.04v34.7c.48,0,.96.13,1.43.22Z"/>
        <path d="M16.98,185.77v-.93c-.06.31-.09.63,0,.93Z"/>
        <path d="M48,64.8v.93c.09-.3.06-.62,0-.93Z"/>
        <path d="M.06,243.29c0,2.75-.03,5.41.26,8.07.04-5.5.06-10.99.08-16.49-.11,0-.23,0-.34,0v8.42Z"/>
        <path d="M.06,320.3v73.63c0,4.17,0,8.34,0,12.51,0,2.33.04,4.55.23,6.85.29,3.63-.76,8.49,1.64,11.57.19.24.55.48.77.26.12-.12.11-.33.08-.5-.24-1.48-.74-2.92-1.47-4.23.38.05.71-.41.54-.75.43.2.84.25,1.27.04.85-4.44-1.39-9.19-1.57-13.67-.1-2.59-.21-5.18-.27-7.77-.3-12.34.91-24.59.67-36.87-.25-12.58-.37-25.17-.03-37.74.4-14.79,1.08-29.52.27-44.3-.1-1.86-.2-3.74.05-5.59.34-2.49,1.33-4.9,1.33-7.42,0-3.78-1.59-7.39-2.53-10.96-.35-1.34-.57-2.66-.72-3.99-.05,8.38-.13,16.77-.26,25.15v43.79Z"/>
      </g>
      <path class="cls-1" d="M86.95,68.67c0,24.53-8.8,42.8-26.17,54.31-14.38,9.53-34.83,14.36-60.78,14.36v-9.06c52.41,0,77.89-19.5,77.89-59.61S52.41,9.06,0,9.06V0c25.95,0,46.4,4.83,60.78,14.36,17.36,11.5,26.17,29.77,26.17,54.3Z"/>
    </g>
  </g>
</svg>