<?xml version="1.0" encoding="UTF-8"?>
<svg id="Layer_2" data-name="Layer 2" xmlns="http://www.w3.org/2000/svg" viewBox="0 0 137.332 225.591">
  <g id="Layer_1-2" data-name="Layer 1">
    <g>
      <path d="M128.273,138.642c0,24.136-4.324,42.903-12.854,55.778-4.67,7.05-10.724,12.472-17.992,16.115-2.049,1.028-4.217,1.921-6.493,2.686,4.006-4.63,6.765-10.438,8.89-16.175,1.162-3.137,2.114-6.338,2.886-9.593.306-1.291-.806.8-.875.943-.654,1.36-1.255,2.818-1.604,4.292-2.066,8.713-6.851,16.778-15.093,20.922-6.468,3.252-13.983,3.364-20.859,1.426-20.065-5.661-32.756-26.422-39.113-44.958-9.612-28.023-7.275-58.76-.743-87.184,5.623-24.469,15.311-49.327,34.617-66.295,8.764-7.702,22.598-14.67,33.654-7.301,10.9,7.264,12.726,23.155,9.29,34.783-.91,3.08-2.424,5.878-4.119,8.593-.659,1.055-1.129,2.287-1.559,3.448-.105.285-.54,2.356-.622,2.401,9.536-5.219,16.822-13.369,21.94-22.88.737-1.369,1.373-2.886,1.774-4.389.263-.985.163-1.297-.439-.178-4.464,8.296-11.067,15.474-19.161,20.318,5.376-10.825,8.394-23.433,4.697-35.029-1.931-6.057-5.757-11.837-11.652-14.615-6.102-2.876-13.069-1.893-19.083.694-12.312,5.295-21.782,16.512-28.876,27.543-7.787,12.106-13.432,25.626-17.795,39.305-4.722,14.798-8.041,30.131-9.768,45.569-1.805,16.127-1.684,32.638,1.76,48.547,2.919,13.481,8.162,26.696,16.396,37.837,3.296,4.461,7.09,8.659,11.425,12.14-2.46-.8-4.796-1.745-6.995-2.848-7.269-3.643-13.322-9.066-17.992-16.115-8.529-12.875-12.853-31.642-12.853-55.778H0c0,25.947,4.832,46.397,14.361,60.781,11.503,17.364,29.773,26.168,54.306,26.168s42.803-8.804,54.305-26.168c9.53-14.385,14.361-34.835,14.361-60.781h-9.059Z"/>
      <path d="M68.667,225.591c-24.532,0-42.804-8.804-54.306-26.168C4.832,185.039,0,164.59,0,138.643h9.06c0,52.411,19.497,77.889,59.606,77.889s59.605-25.478,59.605-77.889h9.06c0,25.946-4.832,46.396-14.361,60.781-11.502,17.364-29.773,26.168-54.305,26.168Z" fill="#0086ff"/>
    </g>
  </g>
</svg>