<?xml version="1.0" encoding="UTF-8"?>
<svg id="Layer_2" data-name="Layer 2" xmlns="http://www.w3.org/2000/svg" viewBox="0 0 165.902 205">
  <g id="Layer_1-2" data-name="Layer 1">
    <g>
      <path d="M68.745,86.822c-7.842,0-15.764-.881-23.281-3.183-8.714-2.669-15.446-5.218-22.332-11.471-1.039-.944-2.534-1.977-3.699-1.193-.934.628-.91,1.991-.744,3.105,1.185,7.965,4.829,15.296,8.592,22.328,1.206,2.253,2.444,4.549,4.305,6.3,2.829,2.661,7.025,3.784,10.806,2.891,3.78-.893,7.031-3.775,8.37-7.421.442-1.203.699-2.503,1.43-3.556.731-1.053,2.154-1.792,3.309-1.233,1.042.505,1.413,1.816,1.401,2.975-.06,5.573-5.538,9.529-10.29,10.923-12.102,3.552-4.336,20.256-.232,27.73,4.055,7.386,8.761,15.025,16.934,18.328,3.317,1.341,6.943,1.867,10.145,3.462,3.203,1.594,6.058,4.756,5.7,8.315-.04.4-.147.839-.481,1.063-.387.259-.914.122-1.318-.108-1.906-1.084-2.283-3.616-3.401-5.502-1.259-2.12-3.5-3.437-5.702-4.548-1.133-.571-2.331-1.124-3.599-1.127-1.269-.002-2.626.701-2.982,1.917-.876,2.989,8.892,10.449,10.938,12.234,4.879,4.253,10.248,7.966,16.086,10.782,8.401,4.054,16.007,8.048,25.58,8.645,4.705.294,9.656-.049,13.884,2.038,4.228,2.086,7.102,7.876,4.226,11.612-2.046,2.659-5.884,3.024-9.232,2.823-24.044-1.447-43.471-19.829-58.364-38.76-5.906-7.507-11.492-15.265-16.745-23.244-2.742-4.165-5.458-8.371-7.958-12.687-.96-1.658-2.405-8.013-5.575-5.205-1.342,1.189-1.438,3.224-1.335,5.014.302,5.224,1.458,10.397,3.408,15.252-5.225-6.341-6.056-15.103-6.745-23.291-.84-9.996-4.243-17.385-7.736-26.475-4.028-10.48-8.467-20.664-11.762-31.429-3.239-10.578-5.812-21.367-7.562-32.293C2.367,29.231-.772,0,.178,0h9.047c0,52.335,19.468,77.776,59.52,77.776S128.263,52.335,128.263,0h9.047c0,3.596-1.578,10.791,4.221,10.668,2.264-.049,4.308-2.069,4.381-4.333.78,2.996-1.615,5.762-3.435,8.266-3.778,5.198-5.622,11.77-5.099,18.175.694,8.491,5.315,16.155,10.549,22.877,5.235,6.722,11.237,12.913,15.471,20.306,1.452,2.536,2.716,5.356,2.472,8.267-.081.971-.352,1.966-1.007,2.685-.655.72-1.763,1.087-2.643.672-.912-.43-1.319-1.54-1.298-2.548.021-1.008.372-1.976.564-2.966.53-2.727-.168-5.577-1.416-8.058-1.248-2.481-3.021-4.653-4.78-6.803-1.813-2.218-3.628-4.437-5.441-6.655-.916-1.119-3.532-5.242-5.036-5.401-1.71-.18-2.189,1.853-1.655,3.379.538,1.536,1.791,2.697,2.653,4.077.153.244.299.517.277.804-.043.577-.776.898-1.327.717-.55-.182-.923-.691-1.198-1.2-1.41-2.603-1.208-5.747-1.808-8.646-.67-3.232-2.399-6.234-4.857-8.434-.626-.56-1.343-1.089-2.177-1.183-1.78-.203-3.103,1.545-4.025,3.081-6.96,11.596-13.265,22.638-25.128,29.881-11.022,6.729-24.047,9.192-36.827,9.192"/>
      <path d="M68.667,86.948c-24.532,0-42.804-8.804-54.306-26.168C4.832,46.396,0,25.947,0,0h9.06c0,52.411,19.497,77.889,59.606,77.889S128.272,52.411,128.272,0h9.06c0,25.946-4.832,46.396-14.361,60.781-11.502,17.364-29.773,26.168-54.305,26.168Z" fill="#0086ff"/>
    </g>
  </g>
</svg>