<?xml version="1.0" encoding="UTF-8"?>
<svg id="Layer_2" data-name="Layer 2" xmlns="http://www.w3.org/2000/svg" viewBox="0 0 137.332 141.178">
  <g id="Layer_1-2" data-name="Layer 1">
    <g>
      <path d="M68.667,132.132c-.88,0-1.733-.035-2.593-.059-19.794-.856-5.88-11.732,5.717-13.757h0s0,0,0,0c25.528-4.637,45.067-29.223,45.067-58.765C116.858,26.714,92.717,0,63.043,0c-2.782,0-5.515.235-8.185.687C29.055,5.063,9.229,29.793,9.229,59.551c0,.14.009.278.01.419,0,.004-.001.007-.002.01-.052-1.84-.085-3.706-.085-5.618H.105c0,25.907,4.825,46.325,14.339,60.687,11.485,17.337,29.729,26.128,54.223,26.128s42.737-8.791,54.222-26.128c9.514-14.362,14.339-34.781,14.339-60.687h-9.046c0,52.331-19.468,77.77-59.514,77.77ZM63.043,2.594c28.243,0,51.219,25.551,51.219,56.957s-22.976,56.958-51.219,56.958S11.824,90.958,11.824,59.551,34.8,2.594,63.043,2.594Z"/>
      <path d="M68.667,141.178c-24.532,0-42.804-8.804-54.306-26.168C4.832,100.625,0,80.176,0,54.229h9.06c0,52.411,19.497,77.889,59.606,77.889s59.605-25.478,59.605-77.889h9.06c0,25.946-4.832,46.396-14.361,60.781-11.502,17.364-29.773,26.168-54.305,26.168Z" fill="#0086ff"/>
    </g>
  </g>
</svg>