<?xml version="1.0" encoding="UTF-8"?>
<svg id="Layer_2" data-name="Layer 2" xmlns="http://www.w3.org/2000/svg" viewBox="0 0 242.833 219.531">
  <g id="Layer_1-2" data-name="Layer 1">
    <g>
      <path d="M150.737,44.923h0s0-.007.001-.01c.06-.372.097-.692.117-.975,1.239-10.295-1.47-20.5-7.699-28.837-5.679-7.601-13.89-12.964-23.12-15.102l-1.985,8.572c7.208,1.669,13.62,5.858,18.056,11.795,4.464,5.976,6.622,13.182,6.2,20.542h0s0,0,0,0c-.511,6.496-40.896-10.636-40.896-10.636,0,0,39.458,20.488,36.286,25.376,0,.002-.002.003-.003.005-2.049,3.322-4.728,6.26-7.949,8.666-9.44,7.05-21.583,7.982-31.646,3.49h0c-9.178-3.876,1.253-19.344,4.787-24.146-3.486,4.519-14.351,18.01-17.095,14.294h0s0,0,0,0l-7.049,5.266s0,0,0,0C84.467,68.953,10.653,200.613,0,219.531c10.686-18.913,84.775-149.295,93.496-144.159h0c5.475,2.628,11.472,3.977,17.504,3.977,8.368,0,16.806-2.597,24.012-7.98,4.491-3.356,8.16-7.521,10.859-12.247.011-.018.02-.031.03-.05,3.723-6.472,96.932,46.052,96.932,46.052,0,0-93.198-53.396-92.096-60.201Z"/>
      <path d="M104.668,78.943c-10.396-1.65-19.603-7.273-25.923-15.719l7.081-5.188c5.03,6.723,12.379,11.131,20.687,12.28,8.309,1.196,16.587-.915,23.31-5.945,6.722-5.03,11.082-12.377,12.279-20.687,1.196-8.309-.915-16.587-5.945-23.31-4.444-5.939-10.865-10.127-18.081-11.793L120.055.002c9.241,2.133,17.462,7.494,23.151,15.098,6.439,8.604,9.143,19.203,7.611,29.84-1.532,10.639-7.114,20.043-15.72,26.482-8.604,6.439-19.202,9.142-29.84,7.61-.196-.028-.393-.058-.59-.089Z" fill="#00ffb0"/>
    </g>
  </g>
</svg>