<?xml version="1.0" encoding="UTF-8"?>
<svg id="Layer_2" data-name="Layer 2" xmlns="http://www.w3.org/2000/svg" viewBox="0 0 74.207 351.032">
  <g id="Layer_1-2" data-name="Layer 1">
    <g>
      <g>
        <path d="M.636,188.097c0,2.849-.033,5.599.3,8.363-.003-2.123.004-4.248.037-6.375.052-3.446.109-6.894.164-10.343-.168-.004-.336-.007-.501-.007v8.362Z"/>
        <path d="M2.283,228.497c1.329-4.4.715-9.453.466-13.994-.102-1.851-.203-3.716.05-5.553.341-2.479,1.321-4.871,1.325-7.373.006-3.756-1.579,2.046-2.515-1.5-.321-1.214-.528-2.417-.673-3.617.012,9.938.348,19.842.518,29.799.014.834.109,1.816.829,2.238Z"/>
        <path d="M23.931,136.13c.116,2.003.05,4.017-.142,6.015.125-.111.286-.166.448-.094.021.476.041.952.062,1.427h.011c-.004.064-.007.141-.011.243v82.673c.322,2.701.579,54.429.901,57.131l-.795-129.306c.004-.55.006-1.146.008-1.774-.006.011-.012.023-.019.034l-.055-9h.01c-.003-.068-.007-.116-.011-.143l-.154-25.069c-.035,1.021-.127,2.039-.252,3.053v14.811Z"/>
        <path d="M23.563,110.392c.098.501.174,1.007.25,1.513.039-.015.079-.028.118-.051v.904c.121.979.198,1.963.236,2.949l-.096-15.574c-.145.606-.318,1.207-.508,1.8v8.458Z"/>
        <path d="M23.714,142.937c.03-.263.049-.527.075-.791-.228.202-.332.595-.075.791Z"/>
        <path d="M24.299,95.695v-2.939c-.112-1.07-.195-2.144-.293-3.216l.065,10.594c.351-1.466.517-2.96.228-4.439Z"/>
        <path d="M24.412,152.445c.991-1.724,1.536-3.751.988-5.658v-1.874c-.663.071-1.213-.967-.735-1.434h-.318c.048.916.073,5.383.064,8.966Z"/>
        <path d="M24.167,115.708l.016,2.559c.029-.853.017-1.706-.016-2.559Z"/>
        <path d="M73.586,86.756c-.383-2.612-.925-5.238-.844-7.876v-12.662c.27-2.723.308-5.482-.282-8.155v-2.547c.089-2.899-.088-5.805,0-8.704v-12.658l-.369.125c-.814-6.738-3.332-13.359-7.677-19.175C58.736,7.503,50.524,2.14,41.294.001l-1.986,8.572c1.206.279,2.387.635,3.543,1.052.241,2.792.584,5.584.813,8.377v13.81c.183,5.105.937,10.189,1.119,15.293v6.727c.269,2.604.54,5.212.374,7.825v6.113c-13.138,5.948-28.972,2.254-37.949-9.761l-7.208,5.218c.455.609.928,1.197,1.41,1.773-.531,13.176-.658,26.344-.041,39.553v52.235c0,7.649-.11,15.303-.232,22.954.733.015,1.473.021,2.083-.366-.097-3.888-.18-6.55-.247-8.331.222,1.144.646.014,1.33-11.112v-17.08c-2.127-3.76-1.821-8.457-1.638-12.773.669-15.786.969-7.923,1.638-23.71v-22.36c-1.204-2.21-.771-4.769-.108-7.197.627-2.293,1.272-4.614,2.298-6.747,2.612,2.173,5.458,3.97,8.458,5.39v.711c.134-.148.308.153.305.353-.033,2.311.025,4.625-.008,6.936v2.831c.224.562.215,1.186.149,1.788v1.349c-.048,1.44-.117,2.872-.06,4.313.018.459.037.917.055,1.375.026.636.052,1.276.19,1.897.323-.477.322-1.094.31-1.67-.024-1.228-.023-2.459-.048-3.689v-11.919c.411-.411.273-1.194.213-1.773-.073-.705-.157-1.406-.24-2.108,1.616.719,3.27,1.339,4.957,1.837l2.789,273.344v-188.446c-.805-5.545-.651-11.228.685-16.67-.47-.093-.94-.219-1.419-.219v-23.829c.039,2.569.091,4.544.142,4.36.446-1.606.756-3.251.96-4.91v-8.561c-.035-.285-.075-.569-.118-.853-.414.154-.833-.184-.977-.644-.002-.008-.005,0-.007,0v-28.795c-.058-1.5-.311-2.989-.736-4.426.61.158,1.222.303,1.838.432v10.24c.029.275.05.551.075.826l-.068-11.065c1.42.298,2.853.522,4.296.666.109,1.944.138,3.891.017,5.825v11.478c-.125,5.092.253,10.195.756,15.263.082-.118.179-.227.286-.322-.195-1.898-.329-3.824-.173-5.726v-2.608c-.054-2.434-.121-4.87-.174-7.304v-6.436c-.086-2.84-.232-5.679-.173-8.519v-1.605c.406.035.81.079,1.217.102v5.853c-.048,1.455-.068,2.945.133,4.386.102.729.235,1.454.31,2.186.105,1.021.095,2.051.085,3.077-.015,1.539-.166,3.07-.181,4.609v17.569c.117,0,.235.012.348.04v3.432c.08-.78.146-1.562.203-2.344-.027,1.285-.054,2.57-.081,3.856-.058,2.74-.27,5.534.226,8.228v9.753c.188,0,.375-.013.563-.023-.032-2.316-.183-4.63-.215-6.946v-2.441c.108-1.389.243-2.776.174-4.167v-6.802c-.214.055-.462-.015-.63-.158.382-1.287.402-2.668.091-3.973.008-.356.017-.711.016-1.067v-12.713c-.183-.019-.365-.038-.547-.058.498-3.368.68-6.782.547-10.184v-11.303l-.236-.785c.486.018.972.041,1.459.041,1.27,0,2.54-.067,3.808-.187-.031.071-.062.134-.092.208l.216-.046v12.628c.507,0,1.061.013,1.445.345-.52,3.256-.722,6.564-.59,9.859v13.7c.618,0,.897-.598.892-1.216-.019-2.451-.019-4.906-.038-7.357v-5.127c.51-3.531.661-7.123.427-10.683v-1.351c-.91-1.398-1.565-2.988-1.282-4.632,0-1.724-.368-4.126-.382-6.268l1.386-.297c1.137-.165,2.27-.376,3.396-.64.938,1.609,1.403,3.951.861,5.925v15.988c-.359,6.833.117,13.727.872,20.531.045.408.068.817.068,1.228v-1.617c.042,1.244.022,2.375.064,3.619.172,5.057.234,10.117.406,15.175v5.64c-.274.45.379,1.116.843.866.602-4.17.731-8.451.097-12.616v-9.413c-.058-2.171.031-4.361-.288-6.501-.1-.674-.183-1.349-.183-2.03v4.373c-.095-4.386.187-8.814-.47-13.152v-9.915c1.132,0,1.042-1.471.777-2.572-.827-3.427-1.079-7.103-.308-10.543,0,0,0-5.66,0-5.66l-.846.181c.609-.175,1.215-.368,1.817-.573v10.554c.078,3.014.461,6.024.54,9.037.045,1.75.091,3.499.137,5.248.162,6.202.324,12.406.819,18.59.368,4.585.887,9.167.742,13.765v30.223c-.527,2.691-.465,5.506,0,8.208v2.639c.327,0,.461.499.34.802-.12.304-.395.515-.588.776-.459.621-.435,1.46-.387,2.23.254,4.086.637,8.163,1.15,12.226,1.941-1.585,1.518-4.659.977-7.106v-1.902c-.124-.112-.249-.224-.374-.336v-51.866c-.409-.907-.7-1.9-.754-2.893-.063-1.14.118-2.278.219-3.417.201-2.247.194-4.529-.211-6.747v-8.986c-1.267-2.412-1.69-5.418-.374-7.805v-1.538c.622-1.477.624-3.329,0-4.805v-4.172c-.753-1.082-1.222-2.435-.746-3.665v-4.121c-.73-.636-1.112-1.7-.746-2.595v-2.605c2.028-.734,4.015-1.638,5.94-2.718v14.405c.557,0,.719.447.781,1.001,1.376,12.323.627,24.663,1.438,37.046,2.107,32.154,3.155,67.175,4.628,99.37v21.848s0,.001,0,.002c.376-.76,1.054-1.419,1.97-.002.704-.259.669-1.254.503-1.985-.448-1.97-.741-4.002-1.188-5.971v-5.318c-.173-1.091-.342.649-.429,2.107v-9.834c.928-3.698-.059-7.394-.536-11.176-.372-2.949-.503-6.018.108-8.927v-44.816c-.584-4.276-1.128-1.434-1.711-5.71v-8.861c.084,1.493.042-2.921,0-7.336v-27.637c0-1.658-.477-3.247-1.063-4.798-.148-.392-.206-.872-.221-1.315-.101-2.984-.327,10.525-.428,7.54v-2.831c0-1.634-.47-3.2-1.025-4.736-.174-.483-.15-1.02.169-1.418v-13.753c.579,0,1.168.125,1.711-.073v-4.147c0-3.144-1.334-11.154.048-15.806.318-.243.631-.489.939-.74.005,3.481.008,6.962.015,10.443v17.058c-.431,6.329.043,12.689,1.249,18.917.138.71.213,1.429.213,2.152v6.282c.602,2.198.658,4.406.55,6.683-.226,4.756-.14,9.624.912,14.269v26.52c.521.726,1.419-15.47,1.433-16.365.072-4.543-.112-11.538-.945-16.004v-10.235c-.213-2.757-.274-5.527-.488-8.285,0-7.438-1.297-14.874-1.338-22.366-.045-8.332.364-16.66.364-24.992,0-1.736-.013-3.544.384-5.246l-.397-.509c.22-.203.429-.415.643-.622v8.939c.583,0,.886.678.95,1.258.063.581.043,1.233.445,1.656.128.027.218-.144.181-.269-.037-.125-.142-.216-.213-.325-.123-.188-.14-.422-.155-.646-.04-.608-.136-7.316-.209-11.604.088-.091.172-.185.259-.277.005,0,.01-.003.015-.003.001-.005.002-.011.003-.016,5.313-5.613,8.763-12.507,10.206-19.785v.099c-.009,2.155.01,4.309,0,6.464v2.826c-.371,2.231-.087,4.571.563,6.738v28.974c.548,1.305.585,2.822.539,4.238-.042,1.255-.323,2.513-.148,3.756.11.789.402,1.551.432,2.348.02.532-.078,1.062-.158,1.588-.296,1.952-.344,3.942-.143,5.906.235,2.294.993,4.97-.241,6.918v3.978c.294.221.76-.023.952-.335.193-.313.197-.701.195-1.068-.011-2.358-.011-4.717-.021-7.075v-14.076c.46,0,.56-.601.58-1.062.121-2.648-.012-5.34-.58-7.929v-2.532ZM45.903,67.42v-7.629c.61-3.195.543-6.493,0-9.701v-28.462c-.41.193-.636-.44-.651-.893-.119-3.431-.238-6.861-.356-10.291,4.907,2.17,9.219,5.575,12.469,9.925.619.828,1.187,1.678,1.712,2.545v4.825c.399,2.622.627,5.266.66,7.918v13.728c-.271.05-.445.45-.264.657v.661c-.044.623.206,1.209.351,1.817.101.422.135.855.158,1.29-2.107,4.011-5.114,7.627-8.979,10.515-1.627,1.215-3.337,2.241-5.099,3.096ZM61.057,73.648c-.204.056-.43.026-.617-.073.645-1.932-.273.143.292-2.979.111-.615.193-1.629.193-2.253v-1.039c.045-.046.087-.095.133-.142v6.486ZM61.848,49.507v-1.762c-.338.06-.696.004-1.007-.142.059-2.548.118-5.097.177-7.644.032-1.389.136-2.801-.094-4.17v-5.149c-.152-.108-.189-.255-.199-.441-.08-1.561-.16-3.122-.24-4.683,3.68,7.618,4.043,16.272,1.363,23.992Z"/>
        <path d="M65.768,67.627c.026.628.03,1.268-.082,1.886v5.482c-.126,1.04-.191,2.085-.077,3.126.041,1.093.036,2.188.077,3.281v2.095c.131,0,.263-.027.377-.094.002-.595-.023-1.192-.021-1.787v-1.993c.059-.683.028-1.369-.017-2.053-.021-.314-.047-.626-.04-.94.005-.216.026-.431.046-.646.16-1.679.278-3.366.438-5.046v-4.147l-.571-.636c-.209.452-.15.976-.13,1.474Z"/>
        <path d="M58.689,247.916c-.435.878-.467,1.891,0,0h0Z"/>
      </g>
      <path d="M26.123,78.984c-10.4-1.621-19.592-7.13-25.936-15.558l7.036-5.295c5.049,6.709,12.41,11.096,20.721,12.222,8.312,1.173,16.585-.961,23.293-6.01,6.708-5.049,11.048-12.408,12.221-20.721,1.173-8.312-.961-16.585-6.01-23.293-4.461-5.926-10.894-10.097-18.114-11.743l1.957-8.586c9.246,2.107,17.483,7.445,23.193,15.033,6.463,8.586,9.196,19.177,7.694,29.819-1.502,10.643-7.058,20.063-15.646,26.526-8.586,6.463-19.177,9.195-29.819,7.693-.196-.027-.393-.057-.59-.087Z" fill="#00ffb0"/>
    </g>
  </g>
</svg>