<?xml version="1.0" encoding="UTF-8"?>
<svg id="Layer_2" data-name="Layer 2" xmlns="http://www.w3.org/2000/svg" viewBox="0 0 178.438 267.072">
  <g id="Layer_1-2" data-name="Layer 1">
    <g>
      <path d="M141.203,185.851l-.606,8.877c7.33.519,14.273,3.681,19.552,8.904,5.975,5.911,9.331,13.839,9.453,22.322.12,8.481-3.01,16.505-8.815,22.59-5.805,6.085-13.588,9.504-21.917,9.626-8.328.122-16.206-3.066-22.181-8.977l.404-.541c-.17-.132-17.25-13.599-35.47-45.626-16.65-29.267-37.596-80.364-43.465-158.083l.687-.026c-.143-3.836-.303-8.754,1.841-12.064,2.213-3.393,7.465-6.289,11.441-6.902l-.968-25.95c-6.61.873-12.79,5.186-14.879,11.878-2.814-6.58-8.831-10.038-15.725-10.694l.969,25.95c3.858.236,8.535,2.13,11.054,4.955,3.306,3.561,3.427,8.322,3.599,12.93l.647-.025c5.881,78.003,26.92,129.316,43.644,158.714,17.801,31.29,34.603,45.054,35.753,45.975l-5.619,5.891.366-.567c-.204-.137-20.705-14.013-43.212-41.521-19.645-24.009-44.656-63.36-55.427-116.965l7.814-1.245-2.722-17.739-17.419,2.773,2.724,17.74,8.284-1.319c10.824,53.935,35.99,93.519,55.754,117.665,22.63,27.647,43.267,41.609,43.473,41.746l.366-.568c7.507,7.428,17.359,11.498,27.804,11.497.198,0,.395-.002.593-.004,10.662-.157,20.627-4.533,28.057-12.323,7.431-7.789,11.439-18.06,11.284-28.919-.155-10.86-4.452-21.009-12.101-28.576-6.757-6.687-15.647-10.735-25.034-11.399Z"/>
      <path d="M138.186,266.959c-10.526,0-20.019-4.035-27.585-11.386l6.088-6.381c6.022,5.852,13.581,9.125,21.967,8.957,8.394-.121,16.239-3.504,22.089-9.526,5.85-6.022,9.005-13.961,8.884-22.356-.121-8.394-3.458-16.785-9.48-22.635-5.32-5.169-12.164-8.39-19.552-8.904l.606-8.877c9.461.657,18.502,5.06,25.313,11.678,7.709,7.488,11.763,17.866,11.918,28.612.155,10.747-3.884,20.911-11.373,28.619-7.488,7.709-17.532,12.039-28.278,12.194-.198.003-.397.005-.597.005Z" fill="#00ffb0"/>
    </g>
  </g>
</svg>