<?xml version="1.0" encoding="UTF-8"?>
<svg id="Layer_2" data-name="Layer 2" xmlns="http://www.w3.org/2000/svg" viewBox="0 0 319.991 281.097">
  <g id="Layer_1-2" data-name="Layer 1">
    <g>
      <path d="M43.938,134.734c10.797.66,21.161-3.228,29.159-10.506,16.508-15.025,17.703-40.668,2.662-57.164-6.437-7.062-15.196-11.633-24.66-12.872l-1.153,8.78c7.391.969,14.23,4.54,19.259,10.055,11.75,12.885,10.818,32.918-2.079,44.654-6.244,5.684-14.335,8.6-22.776,8.204-.157-.005-.312-.015-.469-.024-13.278-.811-21.308-6.116-26.177-11.832-1.708,1.242-3.544,2.308-5.475,3.163,4.453,7.985,14.062,16.464,31.709,17.542Z" fill="#00ffb0"/>
      <path d="M290.592,207.647c16.537-23.209,26.397-50.084,28.837-78.469,2.371-27.572-2.621-55.936-17.678-79.492-13.612-21.289-34.694-38.082-58.96-45.502-6.805-2.079-14.137-3.598-21.48-4.047-6.57-.401-13.148.053-19.374,1.728-12.214,3.286-22.475,11.559-29.777,21.707-16.864,23.438-17.073,54.919-11.436,82.126.984,4.746,2.146,9.451,3.415,14.127-15.74-5.604-27.462-21.12-27.842-37.949-.007-.289-.036-.405-.08-.407-.157-.01-.488,1.424-.511,1.541-.27,1.486-.438,3.03-.405,4.542.412,18.199,13.348,35.067,31.013,39.815.002,0,.005,0,.009,0,.413.025,1.013-5.873.833-6.493-4.458-15.151-8.177-30.701-8.672-46.551-.448-14.364,2.899-28.183,10.505-40.444,6.899-11.124,17.116-20.49,29.697-24.648,6.927-2.29,14.373-2.926,21.79-2.473,6.802.416,13.578,1.747,19.91,3.56,25.045,7.175,46.839,24.349,60.753,46.23,15.317,24.085,20.995,54.638,16.405,82.722-4.669,28.547-18.901,54.929-37.923,76.487-9.567,10.844-20.407,20.555-32.102,29.057-12.901,9.378-26.902,17.603-41.963,22.991-16.004,5.723-32.785,7.231-49.682,6.388-.833-.041-1.668-.088-2.502-.139-13.08-.799-26.099-2.746-38.813-5.92-26.526-6.624-51.993-18.71-72.365-37.134C18.79,209.836,3.291,179.916,1.233,148.275c-.496-7.637-.199-15.314,1.39-22.816.867-4.091,2.109-8.041,3.419-12.005.596-1.801,1.142-3.623,1.905-5.362.217-.499.664-1.905,1.129-2.217-.17,2.781.732,6.977,3.154,11.319,1.931-.855,3.767-1.921,5.475-3.163-5.847-6.865-7.129-14.322-7.396-15.307-.021-.083-.047-.126-.076-.128-.029-.002-.063.035-.1.109-1.876,2.829-2.797,6.101-3.86,9.29-1.251,3.751-2.401,7.509-3.277,11.368-1.732,7.633-2.67,15.469-2.932,23.29-.508,15.194,2.057,30.409,7.288,44.674,10.062,27.444,29.584,49.968,54.172,65.51,22.67,14.33,48.802,22.753,75.3,26.302,5.395.722,10.848,1.287,16.316,1.621,9.824.6,19.705.455,29.42-.865,16.218-2.206,31.533-8.336,45.67-16.437,24.311-13.932,46.083-32.964,62.363-55.809Z"/>
    </g>
  </g>
</svg>