<?xml version="1.0" encoding="UTF-8"?>
<svg id="Layer_2" data-name="Layer 2" xmlns="http://www.w3.org/2000/svg" viewBox="0 0 95.246 264.489">
  <g id="Layer_1-2" data-name="Layer 1">
    <g>
      <path d="M46.181,88.444c-4.314.058-8.553-.634-12.395-2.194-.991-.403-2.002-.864-3.072-.839-4.66.108-4.428,5.998-3.746,9.191.5,2.337,1.88,4.616,4.067,5.581,1.449.639,3.087.648,4.67.628,3.376-.043,7.087-.302,9.513-2.649,1.363-1.319,2.162-3.173,3.667-4.328,2.941-2.258,4.74.951,2.845,3.393-4.243,5.464-11.911,4.781-17.729,6.881-.866.313-1.717.753-2.305,1.462-.593.715-.868,1.636-1.086,2.54-1.51,6.249-1.097,13.204-1.259,19.606-.18,7.141-1.532,14.449-2.286,21.556-.175,1.651-.349,3.332-.032,4.963.318,1.63,1.206,3.231,2.676,4.005,6.883,3.625,19.652-12.217,22.68-16.758,3.379-5.068,5.31-11.427,3.799-17.328-.568-2.218-1.599-4.305-2.039-6.551-.338-1.73-.318-3.508-.295-5.27.021-1.672.155-3.583,1.478-4.605,4.735-3.662,6.885,6.225,7.517,8.902,1.411,5.982,1.136,12.678-1.957,18.136-4.003,7.064-10.537,12.272-16.33,17.789C17.357,178.458,2.975,217.818,9.124,254.873c.668,4.025-.144,10.056-4.198,9.59-2.513-.289-3.718-3.208-4.179-5.696-2.174-11.719.768-23.735,4.073-35.188,6.942-24.048,15.602-47.685,20.069-72.314.91-5.015,1.636-10.064,2.133-15.136.407-4.157,1.571-9.67.692-13.772-.138-.648-.721-1.252-1.379-1.171-.884.109-1.741,1.372-2.067,2.109-.485,1.096-.438,2.498.388,3.367.312.329.716.566.999.92.283.354.41.907.108,1.245-.218.245-.6.293-.908.181-.308-.111-.552-.354-.745-.619-.984-1.349-.824-3.206-.43-4.827.96-3.947,3.789-7.154,4.722-11.131.921-3.928-.052-8.069-1.571-11.808-1.518-3.739-3.578-7.246-4.974-11.033-1.516-4.115-2.211-8.528-2.061-12.909.043-1.264-.069-5.492,1.2-5.807.881-.218,3.785,2.097,4.585,2.576,6.12,3.676,12.006,7.098,19.389,6.992,8.512-.123,16.469-3.555,22.402-9.661,12.246-12.607,11.954-32.828-.653-45.075-5.397-5.242-12.494-8.415-19.985-8.935l.619-8.909c.018-.276,7.683,1.552,8.313-.027.228-.57.169-1.217.012-1.811-.325-1.233-1.064-2.353-2.069-3.138-.422-.329-.897-.609-1.224-1.032-.328-.424-.468-1.058-.148-1.487.476-.641,1.517-.357,2.123.163.549.472.972,1.087,1.218,1.767.203.565.284,1.166.407,1.754,1.678,7.971,11.604,10.05,16.957,15.249,1.711,1.661,4.062,5.706,6.817,5.355,4.382-.558,4.752-6.88,4.177-10.151-.204-1.16-.551-2.296-1.037-3.37-.43-.952-1.214-1.806-1.57-2.758,2.765,2.937,4.238,7.051,3.98,11.074-.185,2.872-1.202,5.633-1.473,8.498-.529,5.576,1.845,11.124,5.362,15.484,2.902,3.597,6.87,7.454,5.902,11.973-.407,1.02-2.047.863-2.712-.01-.665-.875-.67-2.061-.759-3.156-.099-1.225-.336-2.439-.707-3.611-.549-1.739-1.635-3.579-3.428-3.909-3.423-.63-2.353,3.356-2.215,5.035.259,3.133-.636,6.759-1.465,9.755-1.815,6.563-5.293,12.611-10.037,17.494-6.763,6.963-17.386,11.301-27.594,11.439"/>
      <path d="M44.564,88.36c-10.777-2.109-15.482-3.414-24.712-9.204l2.592-7.789c6.465,5.152,14.138,9.198,22.525,9.077s16.551-3.639,22.402-9.661c5.85-6.022,9.412-14.761,9.29-23.156-.121-8.394-4.158-16.198-10.18-22.048-5.32-5.169-12.319-8.298-19.707-8.812l.611-8.784c9.461.657,18.421,4.664,25.232,11.281,7.709,7.488,12.04,17.532,12.195,28.278.155,10.747-3.371,21.93-11.036,29.464-7.147,7.024-17.869,11.195-28.615,11.35-.198.003-.397.005-.597.005Z" fill="#00ffb0"/>
    </g>
  </g>
</svg>