<?xml version="1.0" encoding="UTF-8"?>
<svg id="Layer_2" data-name="Layer 2" xmlns="http://www.w3.org/2000/svg" viewBox="0 0 68.292 118.992">
  <g id="Layer_1-2" data-name="Layer 1">
    <g>
      <path d="M43.479,98.99c0-4.136-1.144-7.982-3.101-11.175h0c-3.989-6.06.115-8.374,8.312-13.294h0s0,0,0,0c5.061-3.039,9.586-7.288,13.149-12.74,2.98-4.561,4.971-9.735,5.816-15.117,2.097-13.359-2.276-26.277-11.664-35.4C49.19,4.657,40.245.657,30.801,0c-.003.002-.004.003-.007.006l-.608,8.758s.004.004.006.007c7.374.514,14.359,3.638,19.671,8.798,6.013,5.841,9.39,13.674,9.511,22.056.122,8.382-3.028,16.309-8.869,22.322-12.058,12.409-31.961,12.697-44.374.644-.004,0-.005,0-.009,0L.004,68.89v.005s-.003,0-.004,0c.002.001.003.003.004.004H.004c.033.032.067.061.1.092.363.339.714.663,1.058.978.125.113.247.231.374.342,8.301,7.555,10.875,8.549,6.429,22.962-.006.022-.015.044-.021.066-.48,1.793-.737,3.69-.737,5.651,0,2.293.352,4.498.998,6.551,2.465,7.822,9.216,13.452,17.137,13.452,10,0,18.135-8.973,18.135-20.003ZM9.292,98.99c0-9.881,7.2-17.919,16.051-17.919s16.051,8.038,16.051,17.919-7.2,17.919-16.051,17.919-16.051-8.039-16.051-17.919Z"/>
      <path d="M28.04,80.383c-10.526,0-20.456-4.027-28.023-11.378l6.136-6.316c6.022,5.852,13.971,9.053,22.356,8.885,8.394-.121,16.239-3.504,22.089-9.526,5.85-6.022,9.005-13.961,8.884-22.356-.121-8.394-3.504-16.239-9.526-22.089-5.32-5.169-12.319-8.298-19.707-8.812L30.861.005c9.461.657,18.421,4.664,25.232,11.281,7.709,7.488,12.04,17.532,12.195,28.278.155,10.747-3.884,20.911-11.373,28.619-7.488,7.709-17.532,12.039-28.278,12.194-.198.003-.397.005-.597.005Z" fill="#00ffb0"/>
    </g>
  </g>
</svg>